<svg id="visual" viewBox="0 0 900 600" width="900" height="600" xmlns="http://www.w3.org/2000/svg" xmlns:xlink="http://www.w3.org/1999/xlink" version="1.1"><rect x="0" y="0" width="900" height="600" fill="#4c1500"></rect><path d="M0 446L129 300L257 294L386 514L514 597L643 302L771 398L900 206L900 601L771 601L643 601L514 601L386 601L257 601L129 601L0 601Z" fill="#bf5600"></path><path d="M0 525L129 560L257 412L386 300L514 263L643 446L771 557L900 241L900 601L771 601L643 601L514 601L386 601L257 601L129 601L0 601Z" fill="#a34108"></path><path d="M0 521L129 344L257 489L386 434L514 573L643 415L771 486L900 381L900 601L771 601L643 601L514 601L386 601L257 601L129 601L0 601Z" fill="#872e0b"></path><path d="M0 434L129 569L257 377L386 580L514 384L643 425L771 537L900 588L900 601L771 601L643 601L514 601L386 601L257 601L129 601L0 601Z" fill="#6b1c09"></path><path d="M0 478L129 482L257 544L386 536L514 573L643 525L771 540L900 549L900 601L771 601L643 601L514 601L386 601L257 601L129 601L0 601Z" fill="#4f0c00"></path></svg>