<svg id="visual" viewBox="0 0 900 600" width="900" height="600" xmlns="http://www.w3.org/2000/svg" xmlns:xlink="http://www.w3.org/1999/xlink" version="1.1"><rect x="0" y="0" width="900" height="600" fill="#001122"></rect><path d="M0 176L21.5 180.7C43 185.3 86 194.7 128.8 194.3C171.7 194 214.3 184 257.2 171.7C300 159.3 343 144.7 385.8 143C428.7 141.3 471.3 152.7 514.2 162.8C557 173 600 182 642.8 183C685.7 184 728.3 177 771.2 175.7C814 174.3 857 178.7 878.5 180.8L900 183L900 601L878.5 601C857 601 814 601 771.2 601C728.3 601 685.7 601 642.8 601C600 601 557 601 514.2 601C471.3 601 428.7 601 385.8 601C343 601 300 601 257.2 601C214.3 601 171.7 601 128.8 601C86 601 43 601 21.5 601L0 601Z" fill="#0066ff"></path><path d="M0 201L21.5 207.2C43 213.3 86 225.7 128.8 224.2C171.7 222.7 214.3 207.3 257.2 203C300 198.7 343 205.3 385.8 204C428.7 202.7 471.3 193.3 514.2 193C557 192.7 600 201.3 642.8 202.5C685.7 203.7 728.3 197.3 771.2 200.7C814 204 857 217 878.5 223.5L900 230L900 601L878.5 601C857 601 814 601 771.2 601C728.3 601 685.7 601 642.8 601C600 601 557 601 514.2 601C471.3 601 428.7 601 385.8 601C343 601 300 601 257.2 601C214.3 601 171.7 601 128.8 601C86 601 43 601 21.5 601L0 601Z" fill="#005eeb"></path><path d="M0 234L21.5 240.2C43 246.3 86 258.7 128.8 261.8C171.7 265 214.3 259 257.2 251.8C300 244.7 343 236.3 385.8 240.3C428.7 244.3 471.3 260.7 514.2 269.8C557 279 600 281 642.8 278.2C685.7 275.3 728.3 267.7 771.2 263.3C814 259 857 258 878.5 257.5L900 257L900 601L878.5 601C857 601 814 601 771.2 601C728.3 601 685.7 601 642.8 601C600 601 557 601 514.2 601C471.3 601 428.7 601 385.8 601C343 601 300 601 257.2 601C214.3 601 171.7 601 128.8 601C86 601 43 601 21.5 601L0 601Z" fill="#0057d7"></path><path d="M0 303L21.5 302.2C43 301.3 86 299.7 128.8 293.2C171.7 286.7 214.3 275.3 257.2 273.3C300 271.3 343 278.7 385.8 285.5C428.7 292.3 471.3 298.7 514.2 293.8C557 289 600 273 642.8 267.2C685.7 261.3 728.3 265.7 771.2 266.7C814 267.7 857 265.3 878.5 264.2L900 263L900 601L878.5 601C857 601 814 601 771.2 601C728.3 601 685.7 601 642.8 601C600 601 557 601 514.2 601C471.3 601 428.7 601 385.8 601C343 601 300 601 257.2 601C214.3 601 171.7 601 128.8 601C86 601 43 601 21.5 601L0 601Z" fill="#004fc4"></path><path d="M0 275L21.5 277.3C43 279.7 86 284.3 128.8 288.2C171.7 292 214.3 295 257.2 303.5C300 312 343 326 385.8 331C428.7 336 471.3 332 514.2 322.2C557 312.3 600 296.7 642.8 294.8C685.7 293 728.3 305 771.2 312.3C814 319.7 857 322.3 878.5 323.7L900 325L900 601L878.5 601C857 601 814 601 771.2 601C728.3 601 685.7 601 642.8 601C600 601 557 601 514.2 601C471.3 601 428.7 601 385.8 601C343 601 300 601 257.2 601C214.3 601 171.7 601 128.8 601C86 601 43 601 21.5 601L0 601Z" fill="#0048b1"></path><path d="M0 358L21.5 353.3C43 348.7 86 339.3 128.8 338.3C171.7 337.3 214.3 344.7 257.2 348.2C300 351.7 343 351.3 385.8 348.2C428.7 345 471.3 339 514.2 335.3C557 331.7 600 330.3 642.8 336.7C685.7 343 728.3 357 771.2 365C814 373 857 375 878.5 376L900 377L900 601L878.5 601C857 601 814 601 771.2 601C728.3 601 685.7 601 642.8 601C600 601 557 601 514.2 601C471.3 601 428.7 601 385.8 601C343 601 300 601 257.2 601C214.3 601 171.7 601 128.8 601C86 601 43 601 21.5 601L0 601Z" fill="#00419e"></path><path d="M0 351L21.5 355.3C43 359.7 86 368.3 128.8 370C171.7 371.7 214.3 366.3 257.2 367.5C300 368.7 343 376.3 385.8 381.7C428.7 387 471.3 390 514.2 392.3C557 394.7 600 396.3 642.8 393.7C685.7 391 728.3 384 771.2 380C814 376 857 375 878.5 374.5L900 374L900 601L878.5 601C857 601 814 601 771.2 601C728.3 601 685.7 601 642.8 601C600 601 557 601 514.2 601C471.3 601 428.7 601 385.8 601C343 601 300 601 257.2 601C214.3 601 171.7 601 128.8 601C86 601 43 601 21.5 601L0 601Z" fill="#00398c"></path><path d="M0 395L21.5 395.3C43 395.7 86 396.3 128.8 396.2C171.7 396 214.3 395 257.2 395.2C300 395.3 343 396.7 385.8 400.8C428.7 405 471.3 412 514.2 418.7C557 425.3 600 431.7 642.8 434C685.7 436.3 728.3 434.7 771.2 432.5C814 430.3 857 427.7 878.5 426.3L900 425L900 601L878.5 601C857 601 814 601 771.2 601C728.3 601 685.7 601 642.8 601C600 601 557 601 514.2 601C471.3 601 428.7 601 385.8 601C343 601 300 601 257.2 601C214.3 601 171.7 601 128.8 601C86 601 43 601 21.5 601L0 601Z" fill="#00327a"></path><path d="M0 431L21.5 431.7C43 432.3 86 433.7 128.8 437.7C171.7 441.7 214.3 448.3 257.2 453.7C300 459 343 463 385.8 460.8C428.7 458.7 471.3 450.3 514.2 444.2C557 438 600 434 642.8 433.5C685.7 433 728.3 436 771.2 441.5C814 447 857 455 878.5 459L900 463L900 601L878.5 601C857 601 814 601 771.2 601C728.3 601 685.7 601 642.8 601C600 601 557 601 514.2 601C471.3 601 428.7 601 385.8 601C343 601 300 601 257.2 601C214.3 601 171.7 601 128.8 601C86 601 43 601 21.5 601L0 601Z" fill="#002b68"></path><path d="M0 483L21.5 481.3C43 479.7 86 476.3 128.8 474C171.7 471.7 214.3 470.3 257.2 472.8C300 475.3 343 481.7 385.8 480.8C428.7 480 471.3 472 514.2 470.5C557 469 600 474 642.8 474.7C685.7 475.3 728.3 471.7 771.2 469.5C814 467.3 857 466.7 878.5 466.3L900 466L900 601L878.5 601C857 601 814 601 771.2 601C728.3 601 685.7 601 642.8 601C600 601 557 601 514.2 601C471.3 601 428.7 601 385.8 601C343 601 300 601 257.2 601C214.3 601 171.7 601 128.8 601C86 601 43 601 21.5 601L0 601Z" fill="#002356"></path><path d="M0 503L21.5 506.7C43 510.3 86 517.7 128.8 520C171.7 522.3 214.3 519.7 257.2 517.2C300 514.7 343 512.3 385.8 510.7C428.7 509 471.3 508 514.2 511.2C557 514.3 600 521.7 642.8 524.3C685.7 527 728.3 525 771.2 522.2C814 519.3 857 515.7 878.5 513.8L900 512L900 601L878.5 601C857 601 814 601 771.2 601C728.3 601 685.7 601 642.8 601C600 601 557 601 514.2 601C471.3 601 428.7 601 385.8 601C343 601 300 601 257.2 601C214.3 601 171.7 601 128.8 601C86 601 43 601 21.5 601L0 601Z" fill="#001c45"></path><path d="M0 551L21.5 551C43 551 86 551 128.8 549.8C171.7 548.7 214.3 546.3 257.2 546.8C300 547.3 343 550.7 385.8 552.8C428.7 555 471.3 556 514.2 557.2C557 558.3 600 559.7 642.8 559C685.7 558.3 728.3 555.7 771.2 555.7C814 555.7 857 558.3 878.5 559.7L900 561L900 601L878.5 601C857 601 814 601 771.2 601C728.3 601 685.7 601 642.8 601C600 601 557 601 514.2 601C471.3 601 428.7 601 385.8 601C343 601 300 601 257.2 601C214.3 601 171.7 601 128.8 601C86 601 43 601 21.5 601L0 601Z" fill="#001535"></path></svg>