<svg id="visual" viewBox="0 0 900 600" width="900" height="600" xmlns="http://www.w3.org/2000/svg" xmlns:xlink="http://www.w3.org/1999/xlink" version="1.1"><rect x="0" y="0" width="900" height="600" fill="#282828"></rect><path d="M0 110L21.5 115.7C43 121.3 86 132.7 128.8 131.7C171.7 130.7 214.3 117.3 257.2 133C300 148.7 343 193.3 385.8 213C428.7 232.7 471.3 227.3 514.2 208.5C557 189.7 600 157.3 642.8 139.5C685.7 121.7 728.3 118.3 771.2 140C814 161.7 857 208.3 878.5 231.7L900 255L900 601L878.5 601C857 601 814 601 771.2 601C728.3 601 685.7 601 642.8 601C600 601 557 601 514.2 601C471.3 601 428.7 601 385.8 601C343 601 300 601 257.2 601C214.3 601 171.7 601 128.8 601C86 601 43 601 21.5 601L0 601Z" fill="#6d5757"></path><path d="M0 252L21.5 245.2C43 238.3 86 224.7 128.8 204.3C171.7 184 214.3 157 257.2 148.3C300 139.7 343 149.3 385.8 174.5C428.7 199.7 471.3 240.3 514.2 246C557 251.7 600 222.3 642.8 220.3C685.7 218.3 728.3 243.7 771.2 234.8C814 226 857 183 878.5 161.5L900 140L900 601L878.5 601C857 601 814 601 771.2 601C728.3 601 685.7 601 642.8 601C600 601 557 601 514.2 601C471.3 601 428.7 601 385.8 601C343 601 300 601 257.2 601C214.3 601 171.7 601 128.8 601C86 601 43 601 21.5 601L0 601Z" fill="#786363"></path><path d="M0 299L21.5 282C43 265 86 231 128.8 224.8C171.7 218.7 214.3 240.3 257.2 255.5C300 270.7 343 279.3 385.8 280.3C428.7 281.3 471.3 274.7 514.2 266.2C557 257.7 600 247.3 642.8 235.5C685.7 223.7 728.3 210.3 771.2 216.3C814 222.3 857 247.7 878.5 260.3L900 273L900 601L878.5 601C857 601 814 601 771.2 601C728.3 601 685.7 601 642.8 601C600 601 557 601 514.2 601C471.3 601 428.7 601 385.8 601C343 601 300 601 257.2 601C214.3 601 171.7 601 128.8 601C86 601 43 601 21.5 601L0 601Z" fill="#826f6f"></path><path d="M0 261L21.5 260.3C43 259.7 86 258.3 128.8 272C171.7 285.7 214.3 314.3 257.2 327.8C300 341.3 343 339.7 385.8 321.3C428.7 303 471.3 268 514.2 261.7C557 255.3 600 277.7 642.8 293.5C685.7 309.3 728.3 318.7 771.2 325C814 331.3 857 334.7 878.5 336.3L900 338L900 601L878.5 601C857 601 814 601 771.2 601C728.3 601 685.7 601 642.8 601C600 601 557 601 514.2 601C471.3 601 428.7 601 385.8 601C343 601 300 601 257.2 601C214.3 601 171.7 601 128.8 601C86 601 43 601 21.5 601L0 601Z" fill="#8d7c7b"></path><path d="M0 289L21.5 282.3C43 275.7 86 262.3 128.8 272C171.7 281.7 214.3 314.3 257.2 322.5C300 330.7 343 314.3 385.8 302.3C428.7 290.3 471.3 282.7 514.2 288.2C557 293.7 600 312.3 642.8 317C685.7 321.7 728.3 312.3 771.2 299.3C814 286.3 857 269.7 878.5 261.3L900 253L900 601L878.5 601C857 601 814 601 771.2 601C728.3 601 685.7 601 642.8 601C600 601 557 601 514.2 601C471.3 601 428.7 601 385.8 601C343 601 300 601 257.2 601C214.3 601 171.7 601 128.8 601C86 601 43 601 21.5 601L0 601Z" fill="#988988"></path><path d="M0 321L21.5 333.5C43 346 86 371 128.8 378C171.7 385 214.3 374 257.2 358C300 342 343 321 385.8 319C428.7 317 471.3 334 514.2 340C557 346 600 341 642.8 338C685.7 335 728.3 334 771.2 345C814 356 857 379 878.5 390.5L900 402L900 601L878.5 601C857 601 814 601 771.2 601C728.3 601 685.7 601 642.8 601C600 601 557 601 514.2 601C471.3 601 428.7 601 385.8 601C343 601 300 601 257.2 601C214.3 601 171.7 601 128.8 601C86 601 43 601 21.5 601L0 601Z" fill="#a39594"></path><path d="M0 362L21.5 364.2C43 366.3 86 370.7 128.8 370.8C171.7 371 214.3 367 257.2 364.3C300 361.7 343 360.3 385.8 364.5C428.7 368.7 471.3 378.3 514.2 390.2C557 402 600 416 642.8 406.8C685.7 397.7 728.3 365.3 771.2 356C814 346.7 857 360.3 878.5 367.2L900 374L900 601L878.5 601C857 601 814 601 771.2 601C728.3 601 685.7 601 642.8 601C600 601 557 601 514.2 601C471.3 601 428.7 601 385.8 601C343 601 300 601 257.2 601C214.3 601 171.7 601 128.8 601C86 601 43 601 21.5 601L0 601Z" fill="#aea3a2"></path><path d="M0 417L21.5 413.3C43 409.7 86 402.3 128.8 403.2C171.7 404 214.3 413 257.2 417.3C300 421.7 343 421.3 385.8 418.5C428.7 415.7 471.3 410.3 514.2 402.2C557 394 600 383 642.8 380.2C685.7 377.3 728.3 382.7 771.2 390.3C814 398 857 408 878.5 413L900 418L900 601L878.5 601C857 601 814 601 771.2 601C728.3 601 685.7 601 642.8 601C600 601 557 601 514.2 601C471.3 601 428.7 601 385.8 601C343 601 300 601 257.2 601C214.3 601 171.7 601 128.8 601C86 601 43 601 21.5 601L0 601Z" fill="#b9b0af"></path><path d="M0 482L21.5 475.7C43 469.3 86 456.7 128.8 446.2C171.7 435.7 214.3 427.3 257.2 433C300 438.7 343 458.3 385.8 458C428.7 457.7 471.3 437.3 514.2 432.5C557 427.7 600 438.3 642.8 440.5C685.7 442.7 728.3 436.3 771.2 438.8C814 441.3 857 452.7 878.5 458.3L900 464L900 601L878.5 601C857 601 814 601 771.2 601C728.3 601 685.7 601 642.8 601C600 601 557 601 514.2 601C471.3 601 428.7 601 385.8 601C343 601 300 601 257.2 601C214.3 601 171.7 601 128.8 601C86 601 43 601 21.5 601L0 601Z" fill="#c4bdbc"></path><path d="M0 453L21.5 460.2C43 467.3 86 481.7 128.8 481.5C171.7 481.3 214.3 466.7 257.2 462.7C300 458.7 343 465.3 385.8 473.8C428.7 482.3 471.3 492.7 514.2 495C557 497.3 600 491.7 642.8 491C685.7 490.3 728.3 494.7 771.2 493.2C814 491.7 857 484.3 878.5 480.7L900 477L900 601L878.5 601C857 601 814 601 771.2 601C728.3 601 685.7 601 642.8 601C600 601 557 601 514.2 601C471.3 601 428.7 601 385.8 601C343 601 300 601 257.2 601C214.3 601 171.7 601 128.8 601C86 601 43 601 21.5 601L0 601Z" fill="#cfcaca"></path><path d="M0 537L21.5 530.8C43 524.7 86 512.3 128.8 506.2C171.7 500 214.3 500 257.2 501.2C300 502.3 343 504.7 385.8 503.3C428.7 502 471.3 497 514.2 496.3C557 495.7 600 499.3 642.8 504.7C685.7 510 728.3 517 771.2 517.3C814 517.7 857 511.3 878.5 508.2L900 505L900 601L878.5 601C857 601 814 601 771.2 601C728.3 601 685.7 601 642.8 601C600 601 557 601 514.2 601C471.3 601 428.7 601 385.8 601C343 601 300 601 257.2 601C214.3 601 171.7 601 128.8 601C86 601 43 601 21.5 601L0 601Z" fill="#dbd8d8"></path><path d="M0 574L21.5 573.2C43 572.3 86 570.7 128.8 564.7C171.7 558.7 214.3 548.3 257.2 544.7C300 541 343 544 385.8 543.3C428.7 542.7 471.3 538.3 514.2 540.8C557 543.3 600 552.7 642.8 552.8C685.7 553 728.3 544 771.2 541.8C814 539.7 857 544.3 878.5 546.7L900 549L900 601L878.5 601C857 601 814 601 771.2 601C728.3 601 685.7 601 642.8 601C600 601 557 601 514.2 601C471.3 601 428.7 601 385.8 601C343 601 300 601 257.2 601C214.3 601 171.7 601 128.8 601C86 601 43 601 21.5 601L0 601Z" fill="#e6e6e6"></path></svg>