<svg id="visual" viewBox="0 0 900 600" width="900" height="600" xmlns="http://www.w3.org/2000/svg" xmlns:xlink="http://www.w3.org/1999/xlink" version="1.1"><path d="M0 31L82 67L164 31L245 49L327 49L409 49L491 67L573 43L655 43L736 31L818 49L900 37L900 0L818 0L736 0L655 0L573 0L491 0L409 0L327 0L245 0L164 0L82 0L0 0Z" fill="#000000"></path><path d="M0 67L82 97L164 55L245 79L327 97L409 103L491 85L573 67L655 91L736 67L818 79L900 91L900 35L818 47L736 29L655 41L573 41L491 65L409 47L327 47L245 47L164 29L82 65L0 29Z" fill="#001c3e"></path><path d="M0 169L82 163L164 217L245 229L327 247L409 187L491 211L573 145L655 277L736 157L818 235L900 301L900 89L818 77L736 65L655 89L573 65L491 83L409 101L327 95L245 77L164 53L82 95L0 65Z" fill="#002f54"></path><path d="M0 199L82 181L164 253L245 247L327 283L409 199L491 229L573 157L655 289L736 175L818 247L900 313L900 299L818 233L736 155L655 275L573 143L491 209L409 185L327 245L245 227L164 215L82 161L0 167Z" fill="#21436a"></path><path d="M0 361L82 343L164 313L245 337L327 343L409 337L491 331L573 355L655 385L736 379L818 307L900 433L900 311L818 245L736 173L655 287L573 155L491 227L409 197L327 281L245 245L164 251L82 179L0 197Z" fill="#3a5982"></path><path d="M0 421L82 421L164 409L245 421L327 391L409 421L491 439L573 397L655 433L736 427L818 385L900 475L900 431L818 305L736 377L655 383L573 353L491 329L409 335L327 341L245 335L164 311L82 341L0 359Z" fill="#44628c"></path><path d="M0 481L82 457L164 451L245 481L327 427L409 475L491 463L573 451L655 457L736 463L818 451L900 517L900 473L818 383L736 425L655 431L573 395L491 437L409 419L327 389L245 419L164 407L82 419L0 419Z" fill="#44628c"></path><path d="M0 517L82 469L164 475L245 511L327 457L409 517L491 481L573 493L655 493L736 487L818 487L900 529L900 515L818 449L736 461L655 455L573 449L491 461L409 473L327 425L245 479L164 449L82 455L0 479Z" fill="#3a5982"></path><path d="M0 541L82 505L164 487L245 535L327 493L409 535L491 511L573 517L655 505L736 505L818 511L900 553L900 527L818 485L736 485L655 491L573 491L491 479L409 515L327 455L245 509L164 473L82 467L0 515Z" fill="#21436a"></path><path d="M0 571L82 541L164 547L245 559L327 541L409 559L491 571L573 559L655 541L736 559L818 553L900 571L900 551L818 509L736 503L655 503L573 515L491 509L409 533L327 491L245 533L164 485L82 503L0 539Z" fill="#002f54"></path><path d="M0 583L82 553L164 571L245 571L327 565L409 589L491 583L573 583L655 559L736 571L818 583L900 583L900 569L818 551L736 557L655 539L573 557L491 569L409 557L327 539L245 557L164 545L82 539L0 569Z" fill="#001c3e"></path><path d="M0 601L82 601L164 601L245 601L327 601L409 601L491 601L573 601L655 601L736 601L818 601L900 601L900 581L818 581L736 569L655 557L573 581L491 581L409 587L327 563L245 569L164 569L82 551L0 581Z" fill="#000000"></path></svg>