<svg xmlns="http://www.w3.org/2000/svg" xmlns:xlink="http://www.w3.org/1999/xlink" width="500" zoomAndPan="magnify" viewBox="0 0 375 374.999991" height="500" preserveAspectRatio="xMidYMid meet" version="1.0"><defs><clipPath id="cd50687db6"><path d="M 26 37.5 L 355 37.5 L 355 342.75 L 26 342.75 Z M 26 37.5 " clip-rule="nonzero"/></clipPath></defs><g clip-path="url(#cd50687db6)"><path fill="#ffffff" d="M 53.597656 37.730469 C 73.429688 38.519531 94.6875 41.335938 120.558594 46.628906 C 132.894531 49.164062 138.894531 50.621094 148.539062 53.472656 C 165.574219 58.503906 173.105469 60.402344 180.128906 61.457031 C 186.324219 62.375 192.660156 62.515625 197.460938 61.863281 C 202.882812 61.105469 209.394531 59.628906 217.261719 57.34375 C 227.378906 54.386719 230.863281 53.507812 244.925781 50.394531 C 257.664062 47.542969 268.648438 45.398438 280.613281 43.375 C 290.398438 41.722656 291.875 41.546875 296.011719 41.652344 C 299.199219 41.722656 299.691406 41.773438 301.117188 42.195312 C 303.085938 42.792969 304.265625 43.464844 305.304688 44.554688 C 306.273438 45.609375 306.746094 46.523438 307.097656 47.964844 C 307.785156 50.886719 307.117188 54.5625 305.214844 58.398438 C 302.082031 64.710938 295.484375 71.941406 283.605469 82.109375 C 281.917969 83.550781 279.46875 85.664062 278.183594 86.789062 C 276.882812 87.914062 275.546875 89.074219 275.195312 89.390625 C 274.824219 89.691406 274.578125 89.972656 274.628906 90.007812 C 274.683594 90.042969 276.109375 90.851562 277.796875 91.800781 C 284.554688 95.585938 292.527344 101.335938 298.914062 107.019531 C 305.320312 112.734375 312.324219 120.054688 318.046875 127.054688 C 329.078125 140.511719 338.953125 156.238281 345.921875 171.453125 C 350.902344 182.304688 353.890625 193.492188 354.71875 204.328125 C 355.019531 208.375 354.84375 216.820312 354.367188 220.320312 C 353.664062 225.5625 352.765625 229.449219 351.199219 234.214844 C 347.3125 245.894531 340.484375 256.257812 330.875 265 L 329.851562 265.933594 L 330.75 268.941406 C 332.617188 275.238281 333.25 278.210938 333.285156 280.65625 C 333.320312 283.628906 332.511719 284.648438 330.257812 284.488281 C 328.445312 284.347656 326.757812 283.574219 320.421875 279.953125 C 317.183594 278.121094 314.472656 276.609375 314.382812 276.609375 C 314.296875 276.609375 313.75 276.839844 313.1875 277.136719 C 311.253906 278.105469 307.027344 279.757812 304.496094 280.550781 C 296.082031 283.171875 288.496094 284.296875 272.167969 285.40625 C 263.859375 285.96875 259.601562 286.320312 259.441406 286.441406 C 259.371094 286.511719 258.949219 287.761719 258.511719 289.203125 C 257.3125 293.089844 256.59375 294.199219 255.183594 294.199219 C 253.847656 294.199219 251.121094 292.441406 248.304688 289.765625 L 246.472656 287.992188 L 245.011719 288.132812 C 242.832031 288.308594 240.332031 288.710938 239.347656 289.027344 C 236.742188 289.890625 233.167969 293.671875 229.71875 299.300781 C 229.085938 300.320312 227.363281 303.328125 225.882812 305.984375 C 221.324219 314.199219 220.640625 315.238281 216.75 319.96875 C 209.429688 328.886719 202.039062 336.136719 196.496094 339.8125 C 193.203125 341.992188 191.285156 342.75 189.121094 342.75 C 187.519531 342.75 186.621094 342.398438 185.796875 341.449219 C 183.066406 338.335938 183.207031 332.953125 186.269531 323.769531 C 186.746094 322.363281 187.765625 319.40625 188.558594 317.207031 C 189.332031 315.027344 190.457031 311.578125 191.058594 309.554688 C 191.636719 307.550781 193.1875 302.644531 194.507812 298.683594 C 198.113281 287.707031 199.378906 283.03125 200.191406 277.699219 C 200.945312 272.703125 200.839844 270.453125 199.75 267.144531 C 197.796875 261.339844 193.1875 254.992188 182.417969 243.363281 C 176.484375 236.941406 172.261719 231.558594 167.351562 224.101562 C 159.363281 211.945312 155.210938 201.707031 154.679688 192.824219 C 154.398438 188.164062 155.683594 182.816406 157.566406 180.792969 C 157.847656 180.492188 158.429688 180.070312 158.851562 179.859375 C 159.484375 179.527344 159.820312 179.472656 160.945312 179.542969 C 163.480469 179.683594 165.960938 181.320312 170.273438 185.648438 C 173.511719 188.902344 175.976562 191.824219 180.902344 198.242188 C 182.910156 200.847656 185.039062 203.625 185.636719 204.398438 C 186.234375 205.171875 188.152344 207.230469 189.914062 208.972656 C 193.203125 212.226562 195.316406 214.480469 202.039062 221.816406 C 206.613281 226.828125 215.394531 235.660156 217.875 237.769531 C 222.960938 242.0625 227.0625 244.910156 231.074219 246.882812 C 234.03125 248.359375 236.179688 249.148438 238.996094 249.800781 C 240.914062 250.242188 241.421875 250.292969 244.625 250.292969 C 247.335938 250.3125 248.496094 250.242188 249.710938 249.996094 C 259.089844 248.09375 266.007812 242.308594 268.4375 234.304688 C 269.191406 231.839844 269.402344 230.277344 269.402344 227.53125 C 269.402344 220.707031 266.835938 214.390625 261.765625 208.78125 C 258.335938 204.980469 253.53125 201.390625 246.738281 197.523438 C 243.515625 195.691406 228.433594 188.214844 218.335938 183.433594 L 216.328125 182.5 L 216.449219 184.46875 C 216.644531 187.335938 217.03125 190.027344 217.542969 191.789062 C 217.910156 193.089844 218.28125 193.757812 219.882812 196.21875 C 222.890625 200.777344 224.125 203.308594 224.125 204.875 C 224.125 206.300781 223.4375 206.703125 221.34375 206.527344 C 215.710938 206.054688 209.816406 203.625 202.566406 198.804688 C 190.351562 190.679688 178.367188 177.167969 173.582031 166.105469 L 172.84375 164.398438 L 166.929688 162.464844 C 159.132812 159.914062 157.355469 159.367188 148.011719 156.746094 C 143.648438 155.515625 138.386719 154.039062 136.308594 153.457031 C 115.542969 147.601562 102.222656 142.21875 90.554688 134.953125 C 72.921875 123.976562 59.371094 111.855469 49.726562 98.417969 C 45.308594 92.277344 37.988281 80.121094 34.34375 72.910156 C 28.011719 60.386719 25.828125 51.960938 27.359375 45.945312 C 28.449219 41.6875 31.285156 39.207031 36.511719 37.957031 C 37.898438 37.625 47.703125 37.5 53.597656 37.730469 Z M 47.984375 43.605469 C 48.265625 43.886719 51.679688 45.011719 60.460938 47.773438 C 99.035156 59.875 103.859375 61.457031 115.277344 65.785156 C 126.859375 70.164062 144.652344 78.203125 152.886719 82.777344 C 154.101562 83.445312 154.523438 83.605469 154.628906 83.445312 C 155.140625 82.601562 157.179688 76.003906 158.128906 72.152344 C 158.5 70.625 158.941406 69.179688 159.082031 68.953125 C 159.378906 68.476562 160.3125 68.230469 161.035156 68.40625 C 161.613281 68.566406 162.054688 69.304688 162.6875 71.238281 C 163.445312 73.542969 163.710938 74.6875 164.027344 77.007812 C 164.464844 80.4375 164.308594 83.78125 163.550781 87.035156 C 163.355469 87.898438 163.234375 88.617188 163.269531 88.652344 C 163.515625 88.882812 166.121094 90.324219 166.171875 90.253906 C 166.59375 89.851562 168.777344 82.9375 169.746094 78.980469 C 170.574219 75.582031 170.800781 75.195312 172.050781 75.195312 C 172.949219 75.195312 173.441406 75.671875 173.953125 77.042969 C 176.011719 82.53125 176.433594 88.582031 175.128906 94.054688 L 174.726562 95.777344 L 175.5 96.21875 C 175.921875 96.464844 176.765625 97.0625 177.402344 97.535156 L 178.542969 98.398438 L 179.320312 95.9375 C 179.757812 94.5625 180.445312 92.101562 180.851562 90.449219 C 181.660156 87.035156 181.90625 86.402344 182.523438 86.121094 C 183.558594 85.644531 184.511719 86.085938 185.019531 87.28125 C 186.816406 91.503906 187.554688 97.34375 186.902344 102.109375 C 186.726562 103.324219 186.585938 104.46875 186.570312 104.660156 C 186.550781 104.925781 187.007812 105.3125 188.3125 106.191406 C 190.5625 107.6875 192.304688 108.546875 193.996094 109.003906 C 195.753906 109.464844 199.980469 109.5 204.0625 109.078125 C 211.328125 108.335938 212.421875 108.335938 218.316406 108.988281 C 227.660156 110.027344 236.335938 111.875 248.496094 115.410156 C 257.789062 118.117188 275.949219 124.027344 282.742188 126.5625 C 284.292969 127.140625 286.703125 127.933594 288.128906 128.339844 C 292.246094 129.480469 293.953125 130.449219 294.535156 131.960938 C 295.414062 134.285156 292.96875 135.867188 286.332031 137.273438 C 284.871094 137.574219 283.09375 137.976562 282.375 138.171875 C 279.523438 138.890625 260.851562 143.976562 260.78125 144.046875 C 260.691406 144.132812 262.609375 145.734375 267.203125 149.410156 L 270.953125 152.382812 L 271.921875 151.960938 C 273.292969 151.363281 275.84375 150.941406 277.359375 151.101562 C 282.445312 151.574219 287.300781 154.214844 288.886719 157.34375 C 289.042969 157.679688 289.414062 158.648438 289.675781 159.507812 C 290.222656 161.230469 290.609375 161.691406 292 162.183594 C 293.792969 162.832031 294.796875 163.449219 295.925781 164.558594 C 297.191406 165.824219 298.089844 167.25 299.339844 170.011719 C 299.8125 171.03125 300.464844 172.316406 300.78125 172.878906 C 301.433594 173.984375 301.695312 174.757812 301.414062 174.757812 C 300.726562 174.757812 299.304688 172.773438 297.507812 169.324219 C 295.800781 166.015625 294.359375 164.628906 291.964844 163.941406 C 289.449219 163.21875 288.636719 162.375 287.671875 159.421875 C 287.460938 158.769531 287 157.871094 286.648438 157.433594 C 284.925781 155.164062 280.542969 153.105469 276.566406 152.683594 C 275.421875 152.558594 272.167969 153 272.167969 153.28125 C 272.167969 153.351562 273.558594 154.582031 275.246094 156.007812 C 294.867188 172.5625 308.066406 187.652344 316.410156 203.046875 C 320.261719 210.167969 322.460938 216.855469 323.289062 224.011719 C 323.570312 226.492188 323.625 230.75 323.394531 232.949219 C 323.289062 234.058594 323.308594 234.214844 323.554688 234.109375 C 324.378906 233.757812 324.503906 233.828125 325.261719 235.042969 L 326 236.238281 L 325.347656 236.363281 C 324.996094 236.433594 324.292969 236.484375 323.800781 236.484375 L 322.902344 236.503906 L 322.410156 238.5625 C 321.917969 240.707031 320.773438 244.121094 319.980469 245.824219 L 319.539062 246.792969 L 320.773438 248.464844 C 322.425781 250.679688 324.152344 253.652344 325.769531 256.996094 L 327.109375 259.738281 L 327.988281 258.542969 C 328.464844 257.894531 328.902344 257.136719 328.957031 256.855469 C 329.078125 256.257812 329.464844 256.046875 331.523438 255.414062 L 333.074219 254.957031 L 334.148438 253.601562 C 336.328125 250.839844 338.953125 246.6875 340.625 243.363281 C 345.957031 232.71875 348.332031 221.039062 347.820312 207.863281 C 347.347656 195.585938 344.25 183.238281 338.601562 171.03125 C 333.054688 159.035156 321.863281 142.023438 311.339844 129.550781 C 305.058594 122.128906 296.980469 114.089844 290.203125 108.53125 C 282.53125 102.234375 273.398438 96.585938 265.164062 93.050781 C 263.613281 92.382812 263.226562 92.152344 263.402344 91.976562 C 263.527344 91.871094 264.933594 90.605469 266.535156 89.179688 C 270.125 85.980469 273.046875 83.21875 278.855469 77.660156 C 281.316406 75.285156 284.800781 71.996094 286.597656 70.339844 C 294.429688 63.09375 298.773438 58.082031 300.640625 54.125 C 301.203125 52.910156 301.273438 52.609375 301.292969 51.328125 C 301.292969 50.042969 301.257812 49.847656 300.851562 49.425781 C 300.269531 48.792969 299.339844 48.335938 297.914062 47.984375 C 295.925781 47.472656 289.484375 47.578125 284.660156 48.175781 C 273.734375 49.566406 262.222656 52.03125 237.5 58.273438 C 234.839844 58.941406 231.550781 59.753906 230.195312 60.070312 C 227.925781 60.597656 225.125 61.371094 216.910156 63.761719 C 209.535156 65.910156 203.605469 67.28125 198.957031 67.933594 C 197.355469 68.144531 195.542969 68.230469 192.269531 68.230469 C 187.871094 68.25 187.714844 68.230469 184.089844 67.578125 C 172 65.453125 163.902344 63.640625 140.882812 57.957031 C 133.089844 56.023438 125.0625 54.070312 123.039062 53.59375 L 119.378906 52.714844 L 119.503906 53.894531 C 119.554688 54.527344 119.644531 55.214844 119.695312 55.40625 C 119.765625 55.6875 119.679688 55.636719 119.328125 55.230469 C 118.871094 54.703125 118.851562 54.597656 119.097656 52.960938 C 119.132812 52.699219 119.011719 52.59375 118.621094 52.503906 C 118.324219 52.433594 115.929688 51.890625 113.289062 51.292969 C 96.0625 47.421875 76.738281 44.800781 58.789062 43.886719 C 53.175781 43.605469 47.824219 43.464844 47.984375 43.605469 Z M 34.222656 44.589844 C 32.992188 45.820312 32.425781 47.105469 32.339844 48.96875 C 32.164062 52.382812 32.921875 54.667969 38.023438 65.875 C 41.261719 72.996094 45.34375 80.824219 48.882812 86.683594 C 50.324219 89.09375 53.933594 94.722656 54.019531 94.722656 C 54.054688 94.722656 54.003906 94.230469 53.914062 93.613281 C 53.617188 91.46875 54.25 89.285156 55.675781 87.527344 C 58.050781 84.589844 63.929688 82.375 71.460938 81.53125 C 80.046875 80.597656 92.472656 81.230469 100.550781 83.042969 C 108.0625 84.714844 114.664062 87.757812 119.730469 91.855469 C 121.15625 93.015625 123.726562 95.585938 123.585938 95.726562 C 123.550781 95.742188 121.5625 95.621094 119.152344 95.425781 C 108.011719 94.5625 98.066406 94.246094 91.132812 94.527344 C 78.9375 95.019531 74.328125 96.304688 71.53125 100 C 69.683594 102.445312 69.066406 105.574219 69.699219 109.445312 C 70.035156 111.519531 70.773438 113.859375 71.25 114.40625 C 71.988281 115.199219 76.070312 118.539062 79.167969 120.863281 C 88.074219 127.546875 98.683594 133.613281 109.734375 138.347656 C 116.828125 141.390625 123.339844 143.640625 133.667969 146.613281 C 144.492188 149.726562 155.5625 153.105469 162.671875 155.445312 C 164.449219 156.027344 165.925781 156.464844 165.960938 156.429688 C 165.996094 156.414062 165.539062 155.726562 164.957031 154.917969 C 163.902344 153.457031 163.867188 153.265625 164.554688 153.054688 C 164.921875 152.945312 165.714844 153.527344 169.5 156.835938 C 171.222656 158.328125 171.257812 158.347656 173.707031 159.191406 C 186.992188 163.765625 203.902344 170.414062 216.292969 175.957031 C 226.023438 180.300781 237.605469 185.929688 245.503906 190.152344 C 258 196.851562 265.25 202.625 269.878906 209.554688 C 276.003906 218.734375 277.199219 230.523438 272.941406 239.652344 C 268.769531 248.585938 259.460938 254.691406 248.25 255.835938 C 239.417969 256.75 230.96875 254.023438 222.242188 247.460938 C 217.910156 244.226562 213.863281 240.476562 206.84375 233.25 C 204.042969 230.347656 200.332031 226.632812 198.625 224.980469 C 196.917969 223.34375 192.957031 219.546875 189.824219 216.539062 C 177.488281 204.734375 169.746094 195.957031 163.515625 186.757812 C 162.460938 185.207031 161.878906 184.503906 161.792969 184.664062 C 161.597656 184.960938 161.613281 189.078125 161.828125 191.382812 C 162.933594 203.574219 167.722656 214.585938 178.175781 228.9375 C 183.453125 236.203125 186.078125 239.441406 191.761719 245.738281 C 196.320312 250.785156 198.605469 253.460938 200.769531 256.238281 L 202.089844 257.945312 L 202.902344 256.273438 C 203.621094 254.796875 203.761719 254.621094 204.167969 254.621094 L 204.644531 254.621094 L 204.535156 256.152344 C 204.449219 257.398438 204.324219 257.910156 203.886719 258.738281 L 203.359375 259.757812 L 204.007812 260.796875 C 204.359375 261.375 204.660156 261.816406 204.695312 261.78125 C 204.871094 261.605469 206.15625 257.699219 206.261719 257.046875 C 206.421875 256.027344 206.5625 255.816406 207.070312 255.886719 C 207.492188 255.941406 207.492188 255.957031 207.441406 257.699219 C 207.371094 259.96875 207.035156 261.585938 206.351562 262.851562 L 205.804688 263.875 L 206.277344 264.929688 L 206.738281 265.96875 L 207.351562 264.296875 C 208.496094 261.148438 209.113281 257.945312 209.164062 254.832031 C 209.164062 254.726562 209.324219 254.621094 209.515625 254.621094 C 210.097656 254.621094 210.273438 255.765625 210.167969 259.019531 C 210.0625 262.464844 209.65625 264.3125 208.410156 266.988281 L 207.597656 268.710938 L 207.597656 271.296875 C 207.597656 277.066406 206.316406 282.21875 201.386719 296.222656 C 200.226562 299.511719 199.011719 303.101562 198.675781 304.191406 C 197.921875 306.707031 192.410156 327.640625 192.480469 327.726562 C 192.515625 327.761719 192.816406 327.324219 193.152344 326.777344 C 193.46875 326.230469 194.382812 324.738281 195.191406 323.488281 C 196.25 321.800781 209.535156 298.949219 215.238281 289.011719 C 215.449219 288.625 216.433594 286.601562 217.402344 284.523438 C 221.183594 276.449219 223.226562 273.53125 225.832031 272.5625 C 226.921875 272.160156 229.402344 271.878906 232.058594 271.859375 L 233.75 271.859375 L 233.660156 271.367188 C 233.625 271.050781 233.695312 270.785156 233.875 270.644531 C 234.894531 269.800781 238.113281 272.175781 244.167969 278.261719 L 247.230469 281.339844 L 247.953125 280.074219 C 248.355469 279.371094 248.867188 278.386719 249.09375 277.875 C 249.429688 277.15625 249.605469 276.960938 249.941406 276.960938 C 250.292969 276.960938 250.34375 277.050781 250.34375 277.613281 C 250.34375 278.402344 249.660156 280.972656 249.128906 282.167969 L 248.742188 283.011719 L 249.5 283.769531 C 250.046875 284.332031 250.273438 284.472656 250.378906 284.277344 C 250.679688 283.734375 252.597656 278.191406 253.230469 276.027344 C 253.460938 275.253906 253.601562 275.027344 253.882812 275.027344 C 254.429688 275.027344 254.464844 275.449219 254.144531 277.648438 C 253.707031 280.601562 253.25 282.238281 252.332031 284.085938 L 251.523438 285.722656 L 252.070312 286.40625 C 252.351562 286.777344 252.878906 287.339844 253.195312 287.65625 L 253.792969 288.21875 L 254.464844 286.074219 C 257.613281 275.78125 259.039062 271.703125 260.726562 268.253906 C 262.171875 265.296875 263.035156 264.242188 263.929688 264.332031 C 264.777344 264.402344 265.039062 265.261719 264.792969 267.269531 C 264.6875 268.09375 264.617188 268.765625 264.652344 268.78125 C 264.847656 268.957031 275.316406 267.550781 279.136719 266.847656 C 283.746094 266.003906 292.421875 263.644531 292.984375 263.082031 C 293.054688 263.011719 292.511719 262.484375 291.753906 261.921875 C 288.851562 259.757812 287.476562 258.367188 287.476562 257.558594 C 287.476562 257.066406 288.816406 257.171875 290.59375 257.824219 C 292.300781 258.4375 299.742188 262.148438 303.050781 264.03125 C 304.214844 264.683594 307.132812 266.371094 309.546875 267.761719 C 311.957031 269.152344 313.945312 270.257812 313.980469 270.242188 C 313.996094 270.207031 313.890625 269.644531 313.75 268.992188 C 313.503906 267.867188 313.503906 267.691406 313.785156 266.617188 C 314.4375 264.226562 314.332031 263.152344 313.328125 261.851562 C 313.136719 261.621094 312.996094 261.269531 312.996094 261.09375 C 312.996094 260.796875 313.066406 260.761719 313.46875 260.867188 C 314.136719 261.023438 314.4375 261.324219 315.035156 262.414062 C 315.546875 263.3125 315.546875 263.363281 315.546875 266.230469 C 315.546875 268.835938 315.582031 269.238281 315.949219 270.136719 C 316.160156 270.679688 316.53125 271.367188 316.742188 271.667969 C 317.164062 272.28125 322.726562 275.660156 322.8125 275.378906 C 322.9375 275.027344 321.546875 272.757812 320.316406 271.296875 C 319.609375 270.46875 318.925781 269.519531 318.800781 269.1875 C 318.679688 268.871094 318.519531 267.179688 318.449219 265.4375 C 318.273438 261.480469 317.957031 260.390625 316.144531 257.503906 C 315.40625 256.34375 315.28125 255.851562 315.757812 255.851562 C 316.304688 255.851562 317.816406 257.628906 318.574219 259.195312 C 319.59375 261.304688 320.015625 262.800781 320.296875 265.492188 C 320.457031 266.777344 320.667969 268.09375 320.808594 268.394531 C 320.929688 268.710938 321.441406 269.433594 321.953125 270.011719 C 323.097656 271.332031 324.292969 273.707031 324.695312 275.394531 L 325.015625 276.695312 L 326.6875 277.71875 C 327.601562 278.28125 328.375 278.703125 328.429688 278.648438 C 328.464844 278.613281 328.375 277.804688 328.214844 276.855469 C 326.914062 269.292969 323.554688 260.671875 319.136719 253.636719 C 317.921875 251.683594 317.867188 251.628906 314.667969 247.585938 C 311.078125 243.0625 309.828125 241.148438 309.828125 240.160156 C 309.828125 239.703125 309.878906 239.667969 310.476562 239.667969 C 311.289062 239.667969 313.910156 240.917969 315.421875 242.027344 C 316.019531 242.464844 316.585938 242.835938 316.65625 242.835938 C 316.726562 242.835938 317.007812 242.289062 317.269531 241.605469 L 317.746094 240.371094 L 315.652344 238.296875 C 313.679688 236.363281 313.136719 235.589844 313.433594 235.113281 C 313.488281 235.007812 313.679688 234.917969 313.855469 234.917969 C 314.332031 234.917969 316.691406 236.589844 317.515625 237.503906 C 318.046875 238.085938 318.292969 238.242188 318.34375 238.066406 C 318.398438 237.925781 318.554688 237.347656 318.695312 236.765625 L 318.976562 235.710938 L 318.484375 235.359375 C 317.535156 234.671875 314.914062 232.015625 314.964844 231.769531 C 315 231.648438 315.160156 231.4375 315.335938 231.332031 C 315.703125 231.101562 316.9375 231.699219 318.398438 232.792969 L 319.3125 233.496094 L 319.433594 232.933594 C 319.503906 232.613281 319.558594 230.820312 319.558594 228.9375 C 319.523438 221.128906 317.605469 214.214844 312.925781 205.101562 C 305.164062 189.976562 292.316406 175.359375 271.726562 158.207031 C 266.394531 153.757812 262.664062 150.835938 259.039062 148.25 C 257.015625 146.808594 254.074219 144.644531 252.527344 143.429688 C 250.996094 142.234375 249.078125 140.773438 248.269531 140.210938 C 246.789062 139.136719 246.402344 138.523438 247.230469 138.523438 C 247.742188 138.523438 248.214844 138.785156 251.472656 140.773438 L 254.109375 142.394531 L 254.480469 141.722656 C 254.761719 141.25 254.816406 141.019531 254.675781 140.878906 C 254.570312 140.757812 252.808594 139.667969 250.785156 138.433594 C 248.742188 137.1875 246 135.515625 244.660156 134.707031 C 243.339844 133.898438 240.59375 132.3125 238.589844 131.207031 C 234.789062 129.078125 234.332031 128.777344 234.332031 128.375 C 234.332031 127.652344 236.144531 128.390625 243.570312 132.171875 C 249.640625 135.269531 250.800781 135.9375 254.199219 138.207031 C 255.605469 139.15625 256.664062 139.753906 256.839844 139.703125 C 256.996094 139.648438 257.59375 139.4375 258.175781 139.226562 C 258.757812 139.015625 265.164062 137.222656 272.414062 135.25 C 279.664062 133.28125 285.613281 131.644531 285.648438 131.609375 C 285.734375 131.523438 276.425781 128.179688 269.703125 125.910156 C 256.417969 121.390625 246.703125 118.539062 235.757812 115.917969 L 231.109375 114.8125 L 229.738281 115.410156 C 227.75 116.289062 227.449219 116.234375 226.148438 114.898438 L 225.054688 113.789062 L 223.050781 113.578125 C 217.753906 113.015625 215.90625 112.945312 204.589844 112.945312 L 192.886719 112.929688 L 191.742188 112.382812 C 191.109375 112.085938 190.195312 111.539062 189.71875 111.152344 C 189.226562 110.78125 188.082031 109.902344 187.183594 109.21875 L 185.511719 107.933594 L 184.914062 109.023438 C 184.070312 110.519531 182.785156 112.136719 182.398438 112.136719 C 181.710938 112.136719 181.765625 111.730469 183.207031 106.597656 C 184.019531 103.695312 184.351562 101.476562 184.351562 99.050781 C 184.351562 97.078125 184.035156 94.019531 183.839844 94.019531 C 183.789062 94.019531 183.296875 95.339844 182.769531 96.957031 C 179.933594 105.59375 175.90625 112.402344 171.945312 115.214844 C 170.820312 116.023438 168.214844 117.34375 168.054688 117.203125 C 168.019531 117.148438 168.320312 116.640625 168.742188 116.078125 C 169.921875 114.476562 172.210938 111.011719 173.441406 108.96875 C 174.410156 107.351562 176.960938 102.355469 176.960938 102.058594 C 176.960938 101.96875 173.988281 99.910156 173.160156 99.417969 C 173.035156 99.347656 172.597656 99.753906 172.121094 100.367188 C 171.503906 101.160156 171.1875 101.40625 170.90625 101.371094 C 170.589844 101.320312 170.539062 101.214844 170.574219 100.597656 C 170.589844 100.191406 170.925781 98.699219 171.328125 97.273438 C 172.351562 93.683594 172.71875 91.785156 172.84375 89.445312 C 172.949219 87.597656 172.71875 84.0625 172.4375 83.359375 C 172.386719 83.199219 171.945312 84.273438 171.417969 85.875 C 170.132812 89.78125 169.164062 92.152344 167.792969 94.863281 C 165.488281 99.382812 162.933594 102.761719 160.488281 104.503906 C 159.378906 105.292969 156.777344 106.613281 156.617188 106.472656 C 156.582031 106.421875 156.882812 105.910156 157.304688 105.347656 C 158.5 103.710938 161.140625 99.71875 162.160156 98.011719 C 163.023438 96.535156 164.289062 94.125 164.289062 93.949219 C 164.289062 93.859375 162.019531 92.488281 161.613281 92.347656 C 161.472656 92.292969 161.015625 92.734375 160.507812 93.402344 C 159.890625 94.195312 159.503906 94.546875 159.222656 94.546875 C 158.660156 94.546875 158.710938 93.859375 159.539062 90.871094 C 161.015625 85.523438 161.402344 82.585938 161.105469 79.15625 C 160.789062 75.636719 160.789062 75.636719 159.820312 78.644531 C 157.144531 86.929688 153.503906 93.4375 149.773438 96.65625 C 148.3125 97.921875 146.535156 98.960938 145.125 99.382812 C 144.757812 99.507812 144.773438 99.417969 145.460938 98.488281 C 147.851562 95.195312 152.5 87.703125 152.5 87.125 C 152.5 86.945312 139.777344 80.613281 135.78125 78.820312 C 122.019531 72.59375 107.078125 66.839844 89.058594 60.859375 C 80.664062 58.0625 72.746094 55.546875 55.09375 50.078125 C 39.941406 45.363281 37.953125 44.730469 36.492188 44.0625 C 36.070312 43.867188 35.59375 43.710938 35.417969 43.710938 C 35.242188 43.710938 34.699219 44.113281 34.222656 44.589844 Z M 89.53125 85.171875 C 91.417969 87.070312 92.542969 87.898438 93.140625 87.828125 C 93.546875 87.792969 93.722656 87.582031 94.195312 86.628906 C 94.511719 85.996094 94.796875 85.292969 94.832031 85.046875 C 94.867188 84.644531 94.777344 84.609375 93.457031 84.308594 C 91.839844 83.957031 89.460938 83.691406 88.742188 83.796875 C 88.230469 83.867188 88.25 83.867188 89.53125 85.171875 Z M 78.761719 83.796875 C 78.761719 84.042969 81.542969 86.101562 82.371094 86.472656 C 83.269531 86.875 83.917969 86.894531 84.253906 86.488281 C 84.695312 85.996094 85.082031 85.136719 85.203125 84.363281 L 85.328125 83.640625 L 82.035156 83.640625 C 80.152344 83.640625 78.761719 83.710938 78.761719 83.796875 Z M 72.144531 84.449219 C 69.894531 84.835938 68.90625 85.066406 68.90625 85.222656 C 68.90625 85.398438 71.039062 86.664062 71.988281 87.054688 C 72.851562 87.421875 73.730469 87.457031 74.097656 87.160156 C 74.453125 86.859375 74.980469 85.839844 75.136719 85.136719 C 75.207031 84.835938 75.296875 84.46875 75.347656 84.273438 C 75.472656 83.921875 75.15625 83.9375 72.144531 84.449219 Z M 99 85.347656 C 100.566406 88.054688 101.253906 89.003906 101.660156 89.058594 C 102.097656 89.109375 102.257812 88.953125 104.246094 86.59375 C 104.492188 86.3125 104.4375 86.242188 103.683594 85.910156 C 102.609375 85.453125 100.9375 85.082031 99.738281 85.066406 C 98.894531 85.046875 98.824219 85.082031 99 85.347656 Z M 63.714844 86.542969 C 62.695312 86.839844 61.726562 87.40625 61.585938 87.773438 C 61.445312 88.144531 61.796875 88.53125 62.730469 89.003906 C 63.785156 89.515625 66.585938 90.429688 66.726562 90.289062 C 66.8125 90.183594 66.550781 87.441406 66.339844 86.472656 C 66.25 86.101562 66.199219 86.066406 65.421875 86.171875 C 64.964844 86.242188 64.191406 86.402344 63.714844 86.542969 Z M 78.375 89.566406 C 78.234375 89.742188 78.058594 90.097656 77.988281 90.359375 C 77.847656 91.011719 78.375 93.316406 78.691406 93.4375 C 78.921875 93.527344 85.117188 92.824219 85.238281 92.699219 C 85.328125 92.613281 82.457031 90.765625 81.402344 90.238281 C 79.449219 89.25 78.78125 89.109375 78.375 89.566406 Z M 58.667969 90.097656 C 57.734375 91.046875 57.136719 92.207031 57.503906 92.347656 C 57.628906 92.398438 58.558594 92.71875 59.546875 93.050781 C 61.09375 93.5625 61.359375 93.613281 61.269531 93.351562 C 60.496094 91.257812 59.6875 89.269531 59.597656 89.269531 C 59.527344 89.269531 59.105469 89.636719 58.667969 90.097656 Z M 88.476562 90.097656 C 88.441406 90.429688 88.582031 90.976562 88.847656 91.484375 L 89.269531 92.3125 L 93.5625 92.292969 C 95.921875 92.277344 98.773438 92.328125 99.882812 92.417969 C 100.988281 92.503906 101.921875 92.558594 101.957031 92.523438 C 101.992188 92.488281 101.5 92.101562 100.882812 91.660156 C 99.335938 90.554688 97.609375 89.78125 96.625 89.742188 C 95.921875 89.707031 95.746094 89.78125 95.375 90.203125 C 95.078125 90.535156 94.953125 90.90625 94.953125 91.398438 C 94.953125 91.765625 94.917969 92.082031 94.867188 92.082031 C 94.8125 92.082031 94.476562 91.890625 94.109375 91.660156 C 92.296875 90.519531 89.726562 89.445312 88.96875 89.496094 C 88.617188 89.53125 88.511719 89.636719 88.476562 90.097656 Z M 110.195312 90.710938 C 109.875 91.152344 109.824219 92.011719 110.070312 92.664062 C 110.230469 93.070312 110.335938 93.105469 112.816406 93.316406 C 114.222656 93.4375 115.421875 93.492188 115.457031 93.457031 C 115.597656 93.332031 112.867188 91.363281 111.8125 90.816406 C 110.667969 90.21875 110.527344 90.21875 110.195312 90.710938 Z M 103.011719 90.519531 C 102.644531 90.710938 102.167969 91.679688 102.167969 92.222656 C 102.167969 92.523438 102.398438 92.59375 104.140625 92.769531 C 105.230469 92.894531 106.355469 93.015625 106.65625 93.070312 C 107.167969 93.15625 107.148438 93.121094 106.214844 92.242188 C 105.441406 91.539062 103.71875 90.34375 103.4375 90.324219 C 103.402344 90.324219 103.222656 90.414062 103.011719 90.519531 Z M 70.527344 92.011719 C 69.875 92.46875 70 93.683594 70.84375 95.390625 L 71.566406 96.816406 L 72.832031 95.953125 C 73.535156 95.480469 74.609375 94.898438 75.207031 94.667969 L 76.316406 94.265625 L 75.558594 93.738281 C 74.3125 92.859375 73.535156 92.433594 72.570312 92.082031 C 71.425781 91.660156 71.039062 91.660156 70.527344 92.011719 Z M 64.226562 96.078125 C 64.015625 96.886719 65.125 99.03125 66.882812 101.265625 L 67.765625 102.375 L 67.871094 101.460938 C 68.011719 100.386719 68.679688 99.15625 69.453125 98.539062 L 70 98.117188 L 68.609375 97.238281 C 66.882812 96.128906 66.515625 95.9375 65.652344 95.691406 C 64.773438 95.425781 64.351562 95.53125 64.226562 96.078125 Z M 182.59375 168.023438 C 182.609375 168.390625 183.050781 168.636719 185.144531 169.375 C 189.28125 170.855469 189.859375 171.082031 193.097656 172.667969 C 196.019531 174.089844 197.023438 174.777344 197.023438 175.324219 C 197.023438 175.621094 196.425781 175.691406 195.632812 175.5 C 193.855469 175.042969 188.699219 173.019531 186.464844 171.910156 C 185.160156 171.257812 184.070312 170.75 184.035156 170.785156 C 184 170.820312 184.28125 171.398438 184.632812 172.066406 C 185.214844 173.125 185.40625 173.335938 186.042969 173.5625 C 186.445312 173.703125 187.539062 174.25 188.46875 174.757812 C 189.859375 175.535156 190.160156 175.761719 190.160156 176.113281 C 190.160156 176.710938 189.878906 176.746094 188.488281 176.359375 C 187.820312 176.167969 187.238281 176.042969 187.183594 176.078125 C 187.097656 176.183594 189.597656 179.5625 191.179688 181.445312 C 193.027344 183.660156 196.847656 187.355469 199.238281 189.253906 C 201.492188 191.066406 205.277344 193.617188 208.019531 195.183594 C 210.257812 196.464844 215.660156 199.105469 215.78125 198.980469 C 215.835938 198.929688 215.429688 198.101562 214.902344 197.136719 C 212.210938 192.296875 209.871094 185.734375 209.023438 180.671875 L 208.707031 178.753906 L 206.773438 177.890625 C 200.523438 175.058594 183.417969 167.933594 182.804688 167.917969 C 182.699219 167.898438 182.59375 167.953125 182.59375 168.023438 Z M 296.328125 266.953125 C 294.515625 267.671875 292.492188 268.375 290.558594 268.976562 C 288.285156 269.660156 282.390625 271.15625 281.667969 271.226562 C 281.335938 271.261719 280.421875 271.421875 279.644531 271.578125 C 277.5 272 271.65625 272.84375 267.34375 273.355469 C 265.214844 273.601562 263.472656 273.8125 263.457031 273.828125 C 263.351562 273.96875 261.238281 280.707031 261.292969 280.742188 C 261.484375 280.917969 280.066406 279.917969 284.132812 279.492188 C 293.003906 278.597656 301.082031 276.539062 307.609375 273.53125 L 308.628906 273.039062 L 308.136719 272.738281 C 303.28125 269.765625 299.09375 267.179688 298.582031 266.847656 C 298.246094 266.601562 297.894531 266.40625 297.824219 266.40625 C 297.753906 266.40625 297.085938 266.652344 296.328125 266.953125 Z M 227.800781 276.730469 C 226.429688 277.347656 225.234375 279.175781 222.925781 284.171875 C 221.535156 287.179688 212.738281 302.625 198.765625 326.53125 C 196.8125 329.875 195.332031 332.722656 195.5625 332.722656 C 195.738281 332.722656 198.308594 330.382812 201.230469 327.535156 C 206.4375 322.449219 211.152344 317.015625 216.257812 310.15625 C 221.378906 303.3125 221.203125 303.609375 221.554688 301.234375 C 222.046875 297.910156 222.152344 297.558594 222.769531 297.171875 C 223.085938 296.996094 223.382812 296.839844 223.453125 296.839844 C 223.527344 296.839844 223.667969 297.277344 223.789062 297.804688 C 223.914062 298.351562 224.054688 298.828125 224.125 298.863281 C 224.175781 298.898438 225.304688 297.226562 226.605469 295.148438 C 230.722656 288.554688 232.464844 286.546875 235.4375 285 C 236.6875 284.347656 239.785156 283.257812 241.054688 283.03125 C 241.421875 282.960938 241.722656 282.855469 241.722656 282.785156 C 241.722656 282.730469 240.929688 281.78125 239.960938 280.691406 C 238.996094 279.582031 237.796875 278.140625 237.289062 277.453125 L 236.355469 276.238281 L 232.484375 276.292969 C 228.980469 276.34375 228.523438 276.398438 227.800781 276.730469 Z M 227.800781 276.730469 " fill-opacity="1" fill-rule="nonzero"/></g><path fill="#ffffff" d="M 104.210938 49.601562 C 106.515625 50.09375 108.539062 51.203125 111.195312 53.402344 C 112.535156 54.511719 113.785156 55.898438 113.785156 56.304688 C 113.785156 56.65625 113.464844 56.761719 113.042969 56.53125 C 112.816406 56.410156 111.9375 55.777344 111.054688 55.125 C 109.789062 54.160156 107.253906 52.679688 106.867188 52.679688 C 106.816406 52.679688 106.921875 52.996094 107.113281 53.382812 C 107.871094 54.933594 107.359375 56.886719 105.988281 57.675781 C 104.296875 58.679688 102.238281 58.644531 100.128906 57.605469 C 97.910156 56.515625 96.609375 54.597656 96.75 52.644531 L 96.820312 51.589844 L 96.289062 51.695312 C 95.992188 51.75 95.621094 51.714844 95.480469 51.625 C 95.058594 51.363281 95.445312 50.902344 96.554688 50.339844 C 98.386719 49.425781 101.835938 49.074219 104.210938 49.601562 Z M 99.105469 51.378906 C 98.738281 51.75 98.753906 52.117188 99.175781 52.804688 C 100.128906 54.351562 102.871094 54.351562 102.871094 52.804688 C 102.871094 52.136719 102.46875 51.484375 101.921875 51.273438 C 101.253906 51.007812 99.40625 51.0625 99.105469 51.378906 Z M 99.105469 51.378906 " fill-opacity="1" fill-rule="nonzero"/><path fill="#ffffff" d="M 281.316406 56.78125 C 281.265625 56.832031 277.65625 58.292969 273.3125 60.035156 C 268.945312 61.792969 265.09375 63.339844 264.722656 63.5 L 264.035156 63.78125 L 264.492188 64.132812 C 265.09375 64.605469 265.375 65.523438 265.164062 66.296875 C 264.6875 68.019531 261.414062 71.167969 257.753906 73.4375 L 256.292969 74.351562 L 254.9375 73.984375 C 252.632812 73.367188 249.535156 72.910156 247.566406 72.910156 C 245.328125 72.910156 243.324219 73.242188 240.523438 74.054688 C 238.113281 74.757812 234.769531 76.058594 235.332031 76.058594 C 235.738281 76.078125 237.480469 75.953125 243.570312 75.441406 C 245.503906 75.285156 247.617188 75.214844 248.269531 75.265625 C 249.625 75.390625 251.648438 75.988281 254.074219 76.992188 L 255.78125 77.695312 L 259.003906 75.160156 C 260.78125 73.773438 262.328125 72.558594 262.46875 72.46875 C 262.945312 72.1875 262.59375 74.335938 261.960938 75.617188 C 261.292969 76.957031 259.550781 78.730469 257.613281 80.015625 C 256.960938 80.457031 256.453125 80.824219 256.503906 80.824219 C 256.558594 80.824219 257.261719 80.703125 258.089844 80.5625 C 259.65625 80.28125 260.867188 80.226562 261.328125 80.402344 C 262.382812 80.808594 260.289062 83.324219 256.417969 86.277344 L 254.832031 87.492188 L 243.746094 84.539062 C 237.640625 82.917969 223.136719 79.066406 211.507812 75.96875 C 199.875 72.890625 190.421875 70.339844 190.511719 70.304688 C 190.597656 70.269531 193.75 70.464844 197.496094 70.730469 C 212.984375 71.800781 218.597656 71.238281 233.273438 67.191406 C 242.761719 64.570312 255.273438 61.421875 261.167969 60.15625 C 264.105469 59.523438 273.117188 57.957031 277.796875 57.273438 C 279.101562 57.078125 280.457031 56.867188 280.789062 56.796875 C 281.125 56.726562 281.371094 56.726562 281.316406 56.78125 Z M 281.316406 56.78125 " fill-opacity="1" fill-rule="nonzero"/><path fill="#ffffff" d="M 190.070312 72.609375 C 190.527344 73.703125 190.457031 73.789062 188.714844 74.40625 L 188.066406 74.652344 L 187.34375 73.492188 C 186.957031 72.855469 186.675781 72.292969 186.726562 72.242188 C 186.78125 72.1875 187.484375 72.101562 188.3125 72.066406 L 189.808594 71.976562 Z M 190.070312 72.609375 " fill-opacity="1" fill-rule="nonzero"/><path fill="#ffffff" d="M 184.984375 72.503906 C 185.25 72.699219 185.582031 73.351562 185.582031 73.683594 C 185.582031 74.019531 184.5625 74.316406 184.140625 74.105469 C 183.804688 73.949219 182.855469 72.769531 182.960938 72.644531 C 183.121094 72.503906 184.808594 72.382812 184.984375 72.503906 Z M 184.984375 72.503906 " fill-opacity="1" fill-rule="nonzero"/><path fill="#ffffff" d="M 156.8125 73.808594 C 156.96875 74.105469 157.074219 74.371094 157.039062 74.386719 C 157.003906 74.40625 156.566406 74.597656 156.035156 74.808594 C 155 75.230469 154.894531 75.195312 154.382812 74.335938 C 154.136719 73.914062 154.117188 73.773438 154.292969 73.71875 C 154.417969 73.683594 154.785156 73.5625 155.121094 73.457031 C 156.125 73.121094 156.511719 73.207031 156.8125 73.808594 Z M 156.8125 73.808594 " fill-opacity="1" fill-rule="nonzero"/><path fill="#ffffff" d="M 341.222656 197.839844 C 342.207031 200.53125 343.261719 204.117188 343.261719 204.734375 C 343.261719 206 342.523438 206.089844 342.03125 204.875 C 341.835938 204.417969 341.554688 203.855469 341.398438 203.609375 C 340.570312 202.269531 340.078125 200.933594 339.902344 199.542969 C 339.671875 197.769531 339.847656 197.101562 340.519531 197.101562 C 340.871094 197.101562 340.992188 197.242188 341.222656 197.839844 Z M 341.222656 197.839844 " fill-opacity="1" fill-rule="nonzero"/><path fill="#ffffff" d="M 343.632812 210.398438 C 344.195312 211.085938 343.984375 216.890625 343.246094 221.09375 C 342.507812 225.191406 340.359375 230.328125 338 233.582031 C 336.839844 235.183594 336.328125 235.625 335.996094 235.289062 C 335.855469 235.148438 336.171875 234.355469 337.070312 232.507812 C 338.457031 229.625 339.515625 226.96875 340.589844 223.660156 C 341.960938 219.40625 342.472656 217.046875 342.734375 213.546875 C 342.859375 212.085938 343.035156 210.730469 343.15625 210.503906 C 343.351562 210.117188 343.386719 210.117188 343.632812 210.398438 Z M 343.632812 210.398438 " fill-opacity="1" fill-rule="nonzero"/><path fill="#ffffff" d="M 329.429688 234.777344 L 330.046875 235.535156 L 329.394531 235.660156 C 328.039062 235.90625 327.792969 235.851562 327.476562 235.164062 C 327.179688 234.566406 327.179688 234.53125 327.511719 234.285156 C 328.144531 233.828125 328.761719 233.988281 329.429688 234.777344 Z M 329.429688 234.777344 " fill-opacity="1" fill-rule="nonzero"/><path fill="#ffffff" d="M 65.847656 57.324219 C 66.269531 57.746094 66.621094 58.222656 66.621094 58.378906 C 66.621094 58.695312 65.863281 59.542969 65.582031 59.542969 C 65.492188 59.542969 65.035156 59.222656 64.597656 58.835938 L 63.785156 58.132812 L 63.03125 58.574219 C 62.609375 58.820312 62.222656 59.011719 62.167969 59.011719 C 61.9375 59.011719 62.042969 57.464844 62.273438 57.289062 C 62.484375 57.113281 64.492188 56.566406 64.929688 56.550781 C 65.019531 56.550781 65.421875 56.902344 65.847656 57.324219 Z M 65.847656 57.324219 " fill-opacity="1" fill-rule="nonzero"/><path fill="#ffffff" d="M 285.980469 191.964844 C 286.28125 192.140625 286.753906 192.597656 287.039062 192.984375 C 287.320312 193.351562 287.863281 194.003906 288.25 194.410156 L 288.9375 195.164062 L 287.8125 195.058594 C 287.195312 195.007812 285.964844 194.882812 285.066406 194.796875 C 284.167969 194.707031 283.359375 194.636719 283.253906 194.636719 C 283.042969 194.636719 282.023438 193.265625 282.023438 192.984375 C 282.023438 192.738281 284.027344 191.839844 284.855469 191.71875 C 285.257812 191.664062 285.628906 191.734375 285.980469 191.964844 Z M 285.980469 191.964844 " fill-opacity="1" fill-rule="nonzero"/><path fill="#ffffff" d="M 279.101562 273.039062 C 279.539062 273.496094 279.839844 273.933594 279.769531 274.003906 C 279.539062 274.234375 277.710938 274.570312 277.410156 274.445312 C 277.253906 274.394531 277.023438 274.058594 276.917969 273.6875 C 276.707031 273.054688 276.726562 273.003906 277.164062 272.617188 C 277.851562 272.035156 278.21875 272.105469 279.101562 273.039062 Z M 279.101562 273.039062 " fill-opacity="1" fill-rule="nonzero"/></svg>