<svg xmlns="http://www.w3.org/2000/svg" xmlns:xlink="http://www.w3.org/1999/xlink" width="500" zoomAndPan="magnify" viewBox="0 0 375 374.999991" height="500" preserveAspectRatio="xMidYMid meet" version="1.0"><defs><clipPath id="4953f4b64f"><path d="M 59.386719 30.542969 L 315.886719 30.542969 L 315.886719 344.792969 L 59.386719 344.792969 Z M 59.386719 30.542969 " clip-rule="nonzero"/></clipPath></defs><g clip-path="url(#4953f4b64f)"><path fill="#ffffff" d="M 125.753906 139.644531 C 126.222656 139.726562 126.695312 139.800781 127.164062 139.878906 C 128.105469 140.035156 129.28125 140.585938 130.691406 141.527344 C 131.398438 141.996094 132.105469 142.464844 132.8125 142.9375 C 132.027344 143.5625 131.246094 144.195312 130.460938 144.820312 C 128.890625 146.078125 127.164062 147.015625 125.285156 147.640625 C 124.339844 147.957031 123.402344 148.269531 122.460938 148.585938 C 122.695312 148.035156 122.929688 147.488281 123.164062 146.9375 C 123.632812 145.839844 124.261719 144.976562 125.046875 144.347656 C 125.832031 143.722656 126.144531 142.78125 125.988281 141.527344 C 125.910156 140.902344 125.832031 140.269531 125.753906 139.644531 Z M 248.089844 120.824219 C 255.070312 128.273438 262.054688 135.726562 269.03125 143.171875 C 276.007812 150.621094 282.992188 158.074219 289.972656 165.523438 C 288.875 164.660156 287.773438 163.796875 286.675781 162.9375 C 284.480469 161.207031 280.089844 157.054688 273.5 150.46875 C 266.914062 143.878906 261.03125 137.289062 255.855469 130.703125 C 253.265625 127.410156 250.679688 124.117188 248.089844 120.824219 Z M 159.867188 30.714844 C 159.082031 30.558594 158.375 30.796875 157.75 31.421875 C 157.125 32.050781 156.808594 34.324219 156.808594 38.246094 C 156.808594 42.167969 157.277344 47.417969 158.222656 54.007812 C 158.691406 57.300781 159.160156 60.59375 159.632812 63.890625 C 157.199219 61.144531 154.769531 58.398438 152.339844 55.65625 C 147.480469 50.164062 144.730469 47.1875 144.105469 46.714844 C 143.480469 46.242188 142.613281 46.164062 141.515625 46.480469 C 140.417969 46.792969 139.949219 47.890625 140.105469 49.773438 C 140.257812 51.65625 141.597656 55.8125 144.105469 62.242188 C 146.613281 68.675781 147.789062 72.121094 147.632812 72.59375 C 147.550781 72.828125 147.480469 73.066406 147.398438 73.300781 C 147.164062 72.675781 146.925781 72.042969 146.691406 71.417969 C 146.222656 70.164062 145.828125 69.535156 145.515625 69.535156 C 145.359375 69.535156 145.203125 69.535156 145.042969 69.535156 C 145.75 71.105469 146.457031 72.675781 147.164062 74.238281 C 148.574219 77.378906 149.28125 79.101562 149.28125 79.414062 C 149.28125 79.574219 149.28125 79.734375 149.28125 79.886719 C 149.125 79.808594 148.964844 79.734375 148.808594 79.652344 C 148.496094 79.496094 147.789062 78.558594 146.691406 76.828125 C 146.140625 75.96875 145.597656 75.101562 145.042969 74.238281 C 145.433594 75.496094 145.828125 76.75 146.222656 78.003906 C 147.007812 80.511719 147.398438 82.628906 147.398438 84.355469 C 147.398438 86.082031 146.773438 88.910156 145.515625 92.828125 C 144.257812 96.746094 140.890625 101.296875 135.398438 106.472656 C 129.90625 111.648438 125.988281 115.882812 123.632812 119.175781 C 121.285156 122.46875 119.320312 125.683594 117.753906 128.820312 C 116.96875 130.390625 116.1875 131.960938 115.402344 133.527344 C 115.246094 133.136719 115.085938 132.742188 114.929688 132.351562 C 114.773438 131.960938 114.617188 131.566406 114.460938 131.175781 C 114.304688 132.667969 114.144531 134.15625 113.988281 135.644531 C 113.835938 137.136719 113.675781 138.625 113.519531 140.117188 C 113.363281 139.488281 113.203125 138.859375 113.050781 138.234375 C 112.894531 137.605469 112.734375 136.976562 112.578125 136.351562 C 112.425781 136.742188 112.261719 137.136719 112.109375 137.527344 C 111.792969 138.3125 111.71875 140.585938 111.871094 144.347656 C 112.027344 148.113281 111.953125 150.386719 111.636719 151.171875 C 111.324219 151.957031 110.148438 153.289062 108.109375 155.171875 C 106.070312 157.054688 104.027344 158.386719 101.992188 159.171875 C 99.953125 159.957031 96.425781 161.839844 91.40625 164.820312 C 86.382812 167.796875 81.289062 170.933594 76.113281 174.226562 C 70.933594 177.519531 68.035156 179.558594 67.40625 180.34375 C 66.78125 181.128906 65.367188 181.675781 63.171875 181.992188 C 60.976562 182.304688 59.800781 182.855469 59.644531 183.640625 C 59.484375 184.425781 59.566406 185.132812 59.878906 185.757812 C 60.191406 186.382812 61.289062 187.558594 63.171875 189.285156 C 65.054688 191.011719 66.621094 192.109375 67.875 192.578125 C 69.132812 193.050781 70.308594 192.34375 71.40625 190.460938 C 72.503906 188.578125 73.050781 186.617188 73.050781 184.578125 C 73.050781 182.542969 73.210938 181.367188 73.523438 181.050781 C 73.839844 180.734375 78.148438 177.992188 86.464844 172.816406 C 94.777344 167.640625 99.71875 165.132812 101.285156 165.289062 C 102.070312 165.367188 102.851562 165.445312 103.636719 165.523438 C 103.320312 165.523438 103.011719 165.523438 102.695312 165.523438 C 102.070312 165.523438 100.5 166.308594 97.992188 167.875 C 96.734375 168.660156 95.484375 169.441406 94.226562 170.230469 C 95.167969 169.992188 96.109375 169.757812 97.050781 169.523438 C 98.929688 169.050781 101.285156 168.898438 104.109375 169.050781 C 105.519531 169.132812 106.933594 169.207031 108.34375 169.289062 C 107.246094 169.835938 106.148438 170.382812 105.050781 170.933594 C 102.851562 172.03125 100.109375 172.972656 96.816406 173.757812 C 95.167969 174.148438 93.523438 174.542969 91.875 174.933594 C 92.898438 174.933594 93.914062 174.933594 94.933594 174.933594 C 95.953125 174.933594 97.992188 175.25 97.992188 175.40625 C 97.992188 175.71875 96.027344 176.898438 92.109375 178.933594 C 90.148438 179.957031 88.191406 180.972656 86.230469 181.992188 C 87.875 181.519531 89.523438 181.050781 91.167969 180.582031 C 94.460938 179.640625 96.816406 178.777344 98.226562 177.992188 C 99.636719 177.207031 100.5 176.5 100.8125 175.875 C 101.128906 175.25 102.144531 175.25 103.875 175.875 C 104.734375 176.191406 105.597656 176.5 106.460938 176.816406 C 105.910156 176.265625 105.367188 175.71875 104.8125 175.167969 C 104.265625 174.621094 103.71875 174.074219 103.167969 173.523438 C 104.421875 172.898438 105.675781 172.265625 106.933594 171.640625 C 109.441406 170.382812 110.851562 169.835938 111.167969 169.992188 C 111.324219 170.074219 111.480469 170.148438 111.636719 170.230469 C 111.085938 170.699219 110.542969 171.167969 109.988281 171.640625 C 109.441406 172.113281 108.894531 172.582031 108.34375 173.050781 C 109.128906 172.660156 109.910156 172.265625 110.695312 171.875 C 112.261719 171.089844 114.070312 169.605469 116.109375 167.40625 C 118.144531 165.207031 120.027344 162.699219 121.753906 159.875 C 123.480469 157.054688 125.675781 154.855469 128.339844 153.289062 C 131.007812 151.722656 134.066406 150.703125 137.515625 150.230469 C 140.964844 149.761719 143.632812 149.605469 145.515625 149.761719 C 147.398438 149.917969 149.832031 150.386719 152.808594 151.171875 C 155.785156 151.957031 158.222656 152.820312 160.101562 153.761719 C 161.042969 154.230469 161.984375 154.703125 162.925781 155.171875 C 161.433594 153.914062 159.945312 152.664062 158.457031 151.40625 C 155.476562 148.898438 152.808594 146.9375 150.457031 145.527344 C 148.105469 144.113281 145.597656 143.09375 142.925781 142.464844 C 141.597656 142.152344 140.257812 141.839844 138.929688 141.527344 C 139.554688 141.136719 140.183594 140.742188 140.8125 140.351562 C 142.066406 139.5625 143.789062 139.171875 145.988281 139.171875 C 147.082031 139.171875 148.183594 139.171875 149.28125 139.171875 C 146.457031 137.761719 143.632812 136.351562 140.8125 134.941406 C 135.164062 132.113281 131.636719 130.785156 130.222656 130.941406 C 128.8125 131.09375 127.320312 131.644531 125.753906 132.585938 C 124.96875 133.058594 124.1875 133.527344 123.402344 133.996094 C 123.871094 133.292969 124.339844 132.585938 124.8125 131.878906 C 125.753906 130.46875 126.929688 129.371094 128.339844 128.585938 C 129.046875 128.195312 129.753906 127.800781 130.460938 127.410156 C 130.066406 127.328125 129.671875 127.257812 129.28125 127.175781 C 128.496094 127.019531 127.789062 127.097656 127.164062 127.410156 C 126.851562 127.566406 126.539062 127.726562 126.222656 127.882812 C 126.019531 128.265625 125.730469 128.597656 125.285156 128.820312 C 124.96875 128.976562 124.65625 129.136719 124.339844 129.292969 C 124.496094 128.902344 124.65625 128.507812 124.8125 128.117188 C 125.125 127.328125 126.378906 125.84375 128.578125 123.644531 C 130.773438 121.449219 132.730469 119.882812 134.457031 118.941406 C 135.320312 118.46875 136.183594 118 137.046875 117.53125 C 136.574219 117.609375 136.105469 117.683594 135.632812 117.765625 C 134.691406 117.921875 133.4375 118.707031 131.871094 120.117188 C 131.085938 120.824219 130.300781 121.527344 129.515625 122.234375 C 129.4375 122 129.363281 121.765625 129.28125 121.527344 C 129.128906 121.058594 129.90625 119.960938 131.636719 118.234375 C 133.363281 116.507812 136.105469 114.550781 139.867188 112.355469 C 143.632812 110.15625 147.082031 108.824219 150.21875 108.355469 C 151.789062 108.117188 153.359375 107.882812 154.925781 107.648438 C 152.964844 108.667969 151.007812 109.683594 149.042969 110.707031 C 147.082031 111.730469 145.125 112.746094 143.164062 113.765625 C 144.023438 113.683594 144.890625 113.609375 145.75 113.53125 C 147.480469 113.375 149.515625 113.53125 151.867188 114 C 153.046875 114.238281 154.21875 114.46875 155.394531 114.707031 C 154.925781 114.785156 154.457031 114.863281 153.984375 114.941406 C 153.515625 115.023438 153.046875 115.097656 152.574219 115.175781 C 152.890625 115.332031 153.199219 115.492188 153.515625 115.648438 C 153.832031 115.804688 154.140625 115.960938 154.457031 116.121094 C 153.433594 116.199219 152.417969 116.273438 151.398438 116.351562 C 149.359375 116.507812 147.871094 116.824219 146.925781 117.292969 C 146.457031 117.53125 145.988281 117.765625 145.515625 118 C 146.222656 118 146.925781 118 147.632812 118 C 149.042969 118 150.925781 118.390625 153.277344 119.175781 C 154.457031 119.566406 155.632812 119.960938 156.808594 120.351562 C 155.867188 120.507812 154.925781 120.667969 153.984375 120.824219 C 153.046875 120.976562 152.101562 121.136719 151.164062 121.292969 C 152.183594 121.683594 153.199219 122.082031 154.21875 122.46875 C 156.257812 123.253906 158.0625 124.195312 159.632812 125.292969 C 161.199219 126.390625 163.007812 127.960938 165.042969 130 C 167.082031 132.035156 168.808594 134.3125 170.21875 136.820312 C 171.628906 139.328125 173.902344 146.785156 177.042969 159.171875 C 180.179688 171.558594 181.902344 179.011719 182.21875 181.519531 C 182.535156 184.027344 182.535156 188.578125 182.21875 195.164062 C 181.902344 201.753906 180.726562 208.261719 178.6875 214.691406 C 176.652344 221.125 174.84375 225.90625 173.277344 229.042969 C 171.710938 232.183594 170.066406 234.925781 168.335938 237.277344 C 166.609375 239.632812 164.183594 242.300781 161.042969 245.277344 C 157.902344 248.257812 154.691406 250.769531 151.398438 252.804688 C 148.105469 254.84375 145.042969 256.414062 142.222656 257.511719 C 139.398438 258.605469 135.867188 259.550781 131.636719 260.335938 C 129.515625 260.722656 127.398438 261.121094 125.285156 261.511719 C 128.023438 261.355469 130.773438 261.195312 133.515625 261.042969 C 139.007812 260.722656 144.257812 259.863281 149.28125 258.453125 C 154.300781 257.039062 158.925781 255.160156 163.160156 252.804688 C 167.398438 250.453125 171.003906 247.863281 173.984375 245.042969 C 176.960938 242.21875 179.945312 238.300781 182.925781 233.277344 C 185.902344 228.257812 188.019531 223.789062 189.277344 219.867188 C 190.53125 215.949219 191.394531 212.578125 191.863281 209.753906 C 192.097656 208.34375 192.332031 206.929688 192.570312 205.515625 C 191.238281 208.578125 189.902344 211.636719 188.570312 214.691406 C 185.902344 220.8125 183.628906 225.042969 181.746094 227.398438 C 180.804688 228.574219 179.863281 229.75 178.925781 230.925781 C 179.472656 229.90625 180.019531 228.890625 180.570312 227.867188 C 181.667969 225.832031 182.84375 222.929688 184.101562 219.164062 C 185.355469 215.398438 186.296875 211.871094 186.921875 208.578125 C 187.546875 205.285156 187.941406 201.675781 188.101562 197.753906 C 188.253906 193.835938 188.019531 189.441406 187.394531 184.578125 C 186.765625 179.71875 184.960938 172.660156 181.980469 163.40625 C 179.003906 154.152344 177.195312 148.035156 176.570312 145.054688 C 175.945312 142.078125 175.394531 136.433594 174.921875 128.117188 C 174.453125 119.804688 174.609375 114.390625 175.394531 111.882812 C 175.785156 110.628906 176.179688 109.375 176.570312 108.117188 C 175.707031 109.765625 174.84375 111.414062 173.984375 113.058594 C 173.121094 114.707031 172.257812 116.351562 171.394531 118 C 171.394531 116.90625 171.394531 115.804688 171.394531 114.707031 C 171.394531 113.609375 171.394531 112.507812 171.394531 111.414062 C 171.003906 112.039062 170.609375 112.667969 170.21875 113.292969 C 169.828125 113.921875 169.433594 114.550781 169.042969 115.175781 C 168.960938 114.785156 168.886719 114.390625 168.808594 114 C 168.652344 113.214844 168.808594 111.730469 169.277344 109.53125 C 169.746094 107.332031 170.535156 105.140625 171.628906 102.941406 C 172.183594 101.847656 172.726562 100.746094 173.277344 99.648438 C 172.183594 100.746094 171.082031 101.847656 169.984375 102.941406 C 168.886719 104.039062 167.785156 105.140625 166.691406 106.238281 C 167.003906 105.0625 167.316406 103.882812 167.628906 102.707031 C 168.253906 100.355469 168.574219 97.53125 168.574219 94.238281 C 168.574219 90.945312 167.945312 86.945312 166.691406 82.242188 C 166.0625 79.886719 165.433594 77.535156 164.808594 75.183594 C 165.359375 75.96875 165.90625 76.75 166.453125 77.535156 C 167.550781 79.101562 168.492188 80.121094 169.277344 80.59375 C 169.667969 80.828125 170.066406 81.0625 170.453125 81.296875 C 169.59375 80.277344 168.726562 79.261719 167.867188 78.242188 C 166.140625 76.203125 164.960938 74.003906 164.335938 71.652344 C 164.023438 70.476562 163.710938 69.300781 163.398438 68.125 C 165.746094 70.945312 168.101562 73.769531 170.453125 76.59375 C 175.160156 82.242188 177.667969 85.613281 177.980469 86.710938 C 178.136719 87.257812 178.296875 87.804688 178.453125 88.355469 C 178.535156 88.121094 178.605469 87.886719 178.6875 87.652344 C 178.84375 87.179688 178.605469 86.160156 177.980469 84.589844 C 177.667969 83.804688 177.355469 83.027344 177.042969 82.242188 C 177.902344 82.945312 178.769531 83.652344 179.628906 84.355469 C 180.488281 85.0625 181.355469 85.769531 182.21875 86.472656 C 181.589844 85.535156 180.960938 84.589844 180.335938 83.652344 C 179.078125 81.769531 177.902344 80.4375 176.804688 79.652344 C 176.257812 79.261719 175.707031 78.867188 175.160156 78.476562 C 176.179688 78.558594 177.195312 78.628906 178.21875 78.710938 C 179.238281 78.789062 180.257812 78.867188 181.277344 78.945312 C 180.570312 78.476562 179.863281 78.003906 179.160156 77.535156 C 178.453125 77.066406 177.75 76.59375 177.042969 76.121094 C 177.433594 76.042969 177.828125 75.96875 178.21875 75.886719 C 178.605469 75.808594 179.003906 75.730469 179.394531 75.652344 C 178.925781 75.335938 178.453125 75.027344 177.980469 74.710938 C 177.042969 74.085938 176.414062 73.300781 176.097656 72.359375 C 175.785156 71.417969 175.394531 69.066406 174.921875 65.300781 C 174.453125 61.539062 173.75 58.164062 172.804688 55.183594 C 172.335938 53.695312 171.867188 52.203125 171.394531 50.714844 C 172.804688 53.378906 174.21875 56.046875 175.628906 58.714844 C 178.453125 64.046875 180.882812 67.890625 182.925781 70.242188 C 184.960938 72.59375 186.21875 74.476562 186.6875 75.886719 C 187.15625 77.300781 187.472656 80.90625 187.628906 86.710938 C 187.785156 92.511719 187.628906 96.039062 187.15625 97.296875 C 186.6875 98.554688 185.589844 99.964844 183.863281 101.53125 C 183.003906 102.316406 182.136719 103.097656 181.277344 103.882812 C 182.21875 103.414062 183.160156 102.941406 184.101562 102.472656 C 185.980469 101.53125 188.101562 99.570312 190.449219 96.59375 C 192.804688 93.613281 194.136719 91.335938 194.453125 89.765625 C 194.605469 88.980469 194.765625 88.203125 194.921875 87.417969 C 194.605469 87.964844 194.296875 88.511719 193.980469 89.0625 C 193.664062 89.613281 193.355469 90.160156 193.039062 90.710938 C 192.960938 90.394531 192.882812 90.082031 192.804688 89.765625 C 192.648438 89.140625 192.804688 88.121094 193.277344 86.710938 C 193.746094 85.296875 194.0625 83.097656 194.214844 80.121094 C 194.296875 78.628906 194.371094 77.144531 194.453125 75.652344 C 194.921875 76.4375 195.390625 77.21875 195.863281 78.003906 C 196.804688 79.574219 197.746094 82.867188 198.6875 87.886719 C 199.628906 92.90625 199.945312 96.59375 199.628906 98.941406 C 199.3125 101.296875 198.605469 103.332031 197.507812 105.0625 C 196.960938 105.921875 196.414062 106.785156 195.863281 107.648438 C 196.488281 107.332031 197.117188 107.023438 197.746094 106.707031 C 199 106.082031 200.015625 105.296875 200.800781 104.355469 C 201.195312 103.882812 201.589844 103.414062 201.980469 102.941406 C 201.746094 103.570312 201.507812 104.199219 201.273438 104.824219 C 200.800781 106.082031 200.253906 106.945312 199.628906 107.414062 C 199.3125 107.648438 199 107.882812 198.6875 108.117188 C 199 108.117188 199.3125 108.117188 199.628906 108.117188 C 200.253906 108.117188 200.882812 107.730469 201.507812 106.945312 C 202.136719 106.15625 202.683594 104.980469 203.15625 103.414062 C 203.390625 102.625 203.628906 101.847656 203.863281 101.0625 C 203.78125 102.707031 203.707031 104.355469 203.628906 106 C 203.472656 109.292969 202.605469 111.882812 201.039062 113.765625 C 200.253906 114.707031 199.472656 115.648438 198.6875 116.589844 C 199.3125 116.433594 199.945312 116.273438 200.570312 116.121094 C 201.824219 115.804688 202.921875 115.257812 203.863281 114.46875 C 204.332031 114.078125 204.800781 113.683594 205.273438 113.292969 C 206.214844 116.433594 207.15625 119.566406 208.097656 122.707031 C 209.976562 128.976562 211.074219 134.550781 211.390625 139.410156 C 211.546875 141.839844 211.707031 144.269531 211.859375 146.703125 C 212.097656 144.976562 212.332031 143.253906 212.566406 141.527344 C 213.035156 138.078125 213.195312 133.917969 213.035156 129.058594 C 212.882812 124.195312 211.78125 117.921875 209.742188 110.238281 C 208.722656 106.390625 207.707031 102.554688 206.683594 98.707031 C 208.414062 101.214844 210.132812 103.730469 211.859375 106.238281 C 215.308594 111.257812 218.765625 115.492188 222.210938 118.941406 C 225.664062 122.390625 228.410156 124.820312 230.445312 126.234375 C 231.46875 126.941406 232.484375 127.644531 233.507812 128.351562 C 233.035156 128.273438 232.5625 128.195312 232.09375 128.117188 C 231.152344 127.960938 229.035156 126.785156 225.742188 124.589844 C 224.09375 123.492188 222.449219 122.390625 220.800781 121.292969 C 223.78125 123.960938 226.761719 126.625 229.742188 129.292969 C 235.703125 134.625 241.191406 139.09375 246.210938 142.703125 C 251.230469 146.3125 256.246094 150.230469 261.265625 154.46875 C 266.289062 158.699219 270.597656 162.621094 274.207031 166.230469 C 277.816406 169.835938 280.714844 173.132812 282.914062 176.109375 C 284.007812 177.601562 285.109375 179.089844 286.207031 180.582031 C 281.890625 176.5 277.578125 172.425781 273.265625 168.347656 C 264.640625 160.191406 258.128906 154.46875 253.738281 151.171875 C 249.347656 147.878906 244.246094 144.429688 238.445312 140.820312 C 232.644531 137.210938 228.484375 134.234375 225.976562 131.878906 C 224.71875 130.703125 223.46875 129.527344 222.210938 128.351562 C 223.234375 129.683594 224.25 131.019531 225.273438 132.351562 C 227.308594 135.019531 231.46875 139.410156 237.738281 145.527344 C 244.011719 151.640625 250.128906 157.992188 256.089844 164.582031 C 262.054688 171.167969 264.949219 174.621094 264.796875 174.933594 C 264.714844 175.089844 264.640625 175.25 264.5625 175.40625 C 262.523438 173.441406 260.480469 171.484375 258.445312 169.523438 C 254.363281 165.605469 249.738281 161.679688 244.566406 157.761719 C 239.386719 153.839844 235.855469 150.9375 233.976562 149.054688 C 233.035156 148.113281 232.09375 147.171875 231.152344 146.230469 C 233.894531 149.445312 236.644531 152.664062 239.386719 155.878906 C 244.878906 162.308594 248.796875 167.328125 251.152344 170.933594 C 253.503906 174.542969 255.464844 178.382812 257.03125 182.464844 C 258.601562 186.542969 259.539062 190.695312 259.855469 194.933594 C 260.171875 199.164062 259.855469 203.402344 258.914062 207.636719 C 257.972656 211.871094 256.246094 216.261719 253.738281 220.8125 C 251.230469 225.359375 248.171875 229.359375 244.566406 232.808594 C 240.953125 236.257812 238.054688 238.6875 235.855469 240.101562 C 233.660156 241.515625 231.542969 242.609375 229.507812 243.394531 C 228.484375 243.785156 227.46875 244.179688 226.449219 244.570312 C 227.777344 243.632812 229.117188 242.6875 230.445312 241.75 C 233.117188 239.867188 235.855469 237.515625 238.683594 234.691406 C 241.503906 231.871094 244.09375 228.574219 246.445312 224.808594 C 248.796875 221.046875 250.445312 217.75 251.386719 214.929688 C 252.328125 212.105469 252.953125 209.515625 253.265625 207.167969 C 253.582031 204.8125 253.660156 201.832031 253.503906 198.226562 C 253.347656 194.617188 252.875 191.402344 252.089844 188.578125 C 251.304688 185.757812 249.972656 182.933594 248.089844 180.109375 C 247.152344 178.699219 246.210938 177.285156 245.269531 175.875 C 245.976562 177.601562 246.679688 179.324219 247.386719 181.050781 C 248.796875 184.5 249.503906 187.875 249.503906 191.167969 C 249.503906 194.460938 249.035156 197.753906 248.089844 201.046875 C 247.152344 204.339844 245.503906 208.105469 243.152344 212.34375 C 240.800781 216.574219 238.367188 219.949219 235.855469 222.457031 C 234.601562 223.714844 233.347656 224.964844 232.09375 226.222656 C 232.953125 224.808594 233.820312 223.398438 234.683594 221.988281 C 236.410156 219.164062 237.660156 216.574219 238.445312 214.222656 C 239.230469 211.871094 239.703125 208.496094 239.859375 204.105469 C 240.011719 199.714844 239.777344 196.421875 239.152344 194.226562 C 238.835938 193.128906 238.527344 192.03125 238.210938 190.933594 C 238.292969 192.816406 238.367188 194.695312 238.445312 196.578125 C 238.601562 200.339844 238.527344 203.085938 238.210938 204.8125 C 237.898438 206.539062 237.113281 209.046875 235.855469 212.34375 C 234.601562 215.636719 232.800781 218.929688 230.445312 222.222656 C 229.269531 223.867188 228.09375 225.515625 226.917969 227.164062 C 227.386719 225.597656 227.859375 224.023438 228.332031 222.457031 C 229.269531 219.320312 229.894531 215.164062 230.210938 209.988281 C 230.527344 204.8125 230.292969 198.539062 229.507812 191.167969 C 228.722656 183.792969 228.410156 179.25 228.5625 177.519531 C 228.644531 176.660156 228.722656 175.796875 228.800781 174.933594 C 228.484375 176.582031 228.175781 178.226562 227.859375 179.875 C 227.234375 183.167969 226.601562 185.441406 225.976562 186.695312 C 225.664062 187.324219 225.351562 187.953125 225.035156 188.578125 C 225.273438 184.109375 225.503906 179.640625 225.742188 175.167969 C 226.210938 166.230469 226.132812 160.03125 225.503906 156.582031 C 224.878906 153.132812 223.941406 150.3125 222.683594 148.113281 C 222.058594 147.015625 221.425781 145.917969 220.800781 144.820312 C 221.273438 145.917969 221.742188 147.015625 222.210938 148.113281 C 223.15625 150.3125 223.703125 153.054688 223.859375 156.347656 C 224.015625 159.644531 223.46875 163.40625 222.210938 167.640625 C 220.957031 171.875 220.175781 174.382812 219.859375 175.167969 C 219.542969 175.957031 219.234375 176.34375 218.917969 176.34375 C 218.605469 176.34375 217.742188 175.089844 216.332031 172.582031 C 214.917969 170.074219 214.214844 168.503906 214.214844 167.875 C 214.214844 167.558594 214.214844 167.25 214.214844 166.933594 C 213.898438 167.875 213.589844 168.816406 213.273438 169.757812 C 212.957031 170.699219 212.644531 171.640625 212.332031 172.582031 C 211.390625 171.40625 210.449219 170.230469 209.507812 169.050781 C 207.628906 166.699219 206.683594 165.289062 206.683594 164.820312 C 206.683594 164.582031 206.683594 164.347656 206.683594 164.113281 C 206.53125 164.265625 206.371094 164.425781 206.214844 164.582031 C 206.058594 164.738281 205.898438 164.898438 205.746094 165.050781 C 204.722656 163.875 203.707031 162.699219 202.683594 161.523438 C 200.648438 159.171875 198.839844 156.816406 197.273438 154.46875 C 195.707031 152.113281 194.296875 149.445312 193.039062 146.464844 C 192.414062 144.976562 191.785156 143.488281 191.15625 141.996094 C 191.3125 143.019531 191.472656 144.035156 191.628906 145.054688 C 191.941406 147.09375 192.960938 150.703125 194.6875 155.878906 C 196.414062 161.054688 197.898438 164.820312 199.15625 167.167969 C 200.414062 169.523438 201.746094 171.40625 203.15625 172.816406 C 204.566406 174.226562 206.921875 177.367188 210.214844 182.226562 C 213.507812 187.085938 215.941406 191.324219 217.507812 194.933594 C 219.074219 198.539062 220.09375 201.988281 220.566406 205.285156 C 220.800781 206.929688 221.035156 208.578125 221.273438 210.222656 C 221.351562 208.96875 221.425781 207.714844 221.507812 206.460938 C 221.664062 203.953125 221.585938 201.597656 221.273438 199.402344 C 221.117188 198.304688 220.957031 197.203125 220.800781 196.109375 C 221.191406 197.285156 221.585938 198.460938 221.976562 199.636719 C 222.765625 201.988281 223.074219 205.753906 222.917969 210.929688 C 222.765625 216.105469 221.820312 221.28125 220.09375 226.457031 C 218.371094 231.632812 216.644531 235.554688 214.917969 238.21875 C 213.195312 240.886719 211.390625 243.242188 209.507812 245.277344 C 207.628906 247.316406 205.191406 249.433594 202.214844 251.628906 C 199.238281 253.824219 197.273438 255.078125 196.332031 255.394531 C 195.863281 255.550781 195.390625 255.707031 194.921875 255.867188 C 196.179688 254.769531 197.429688 253.667969 198.6875 252.570312 C 201.195312 250.375 203.546875 247.316406 205.746094 243.394531 C 207.941406 239.476562 209.351562 236.183594 209.976562 233.511719 C 210.605469 230.847656 210.921875 226.691406 210.921875 221.046875 C 210.921875 215.398438 210.605469 211.007812 209.976562 207.871094 C 209.351562 204.730469 208.332031 201.285156 206.921875 197.519531 C 205.507812 193.753906 202.53125 187.792969 197.980469 179.640625 C 193.429688 171.484375 189.664062 164.191406 186.6875 157.761719 C 183.710938 151.328125 181.355469 144.507812 179.628906 137.289062 C 178.769531 133.683594 177.902344 130.078125 177.042969 126.46875 C 177.121094 128.585938 177.195312 130.703125 177.277344 132.820312 C 177.433594 137.058594 178.21875 141.761719 179.628906 146.9375 C 181.042969 152.113281 184.414062 159.957031 189.746094 170.460938 C 195.078125 180.972656 198.765625 189.203125 200.800781 195.164062 C 202.84375 201.128906 204.015625 206.070312 204.332031 209.988281 C 204.648438 213.90625 204.648438 217.125 204.332031 219.632812 C 204.015625 222.140625 203.472656 224.574219 202.683594 226.925781 C 201.898438 229.28125 200.253906 232.492188 197.746094 236.574219 C 195.238281 240.652344 192.722656 243.945312 190.21875 246.453125 C 187.710938 248.960938 182.84375 252.492188 175.628906 257.039062 C 168.417969 261.589844 161.90625 264.960938 156.101562 267.15625 C 150.300781 269.355469 145.75 270.839844 142.457031 271.628906 C 139.164062 272.414062 135.714844 273.039062 132.105469 273.511719 C 128.496094 273.980469 123.953125 274.058594 118.457031 273.742188 C 115.71875 273.589844 112.96875 273.429688 110.226562 273.273438 C 112.65625 273.824219 115.085938 274.371094 117.519531 274.921875 C 122.378906 276.019531 128.421875 276.566406 135.632812 276.566406 C 142.847656 276.566406 148.257812 276.25 151.867188 275.625 C 155.476562 275 159.160156 273.980469 162.925781 272.566406 C 166.691406 271.15625 169.746094 269.664062 172.101562 268.097656 C 173.277344 267.3125 174.453125 266.53125 175.628906 265.746094 C 175.707031 265.898438 175.785156 266.0625 175.867188 266.214844 C 176.019531 266.53125 174.769531 268.335938 172.101562 271.628906 C 169.433594 274.921875 166.0625 278.449219 161.984375 282.214844 C 157.902344 285.980469 148.964844 292.09375 135.164062 300.5625 C 121.363281 309.035156 111.871094 315.386719 106.695312 319.621094 C 101.519531 323.855469 97.675781 327.304688 95.167969 329.972656 C 93.914062 331.304688 92.660156 332.640625 91.40625 333.972656 C 95.167969 331.148438 98.929688 328.324219 102.695312 325.503906 C 110.226562 319.855469 117.203125 315.304688 123.632812 311.859375 C 130.066406 308.410156 137.125 305.269531 144.808594 302.445312 C 152.492188 299.625 159.394531 297.351562 165.515625 295.625 C 168.574219 294.761719 171.628906 293.898438 174.6875 293.035156 C 172.804688 294.761719 170.925781 296.484375 169.042969 298.214844 C 165.277344 301.660156 162.0625 305.269531 159.394531 309.035156 C 156.730469 312.796875 154.140625 317.582031 151.632812 323.386719 C 149.125 329.1875 147.480469 334.207031 146.691406 338.441406 C 146.300781 340.558594 145.90625 342.675781 145.515625 344.792969 C 146.066406 343.066406 146.613281 341.347656 147.164062 339.617188 C 148.257812 336.171875 150.21875 332.246094 153.046875 327.855469 C 155.867188 323.464844 158.847656 319.703125 161.984375 316.5625 C 165.121094 313.421875 169.199219 310.210938 174.21875 306.917969 C 179.238281 303.625 188.414062 299.234375 201.746094 293.742188 C 215.074219 288.25 224.332031 284.097656 229.507812 281.273438 C 234.683594 278.449219 239.308594 275.546875 243.386719 272.566406 C 247.46875 269.589844 249.660156 268.175781 249.972656 268.335938 C 250.128906 268.414062 250.289062 268.488281 250.445312 268.570312 C 249.035156 269.898438 247.621094 271.234375 246.210938 272.566406 C 243.386719 275.234375 239.9375 278.058594 235.855469 281.035156 C 231.777344 284.015625 223.78125 288.648438 211.859375 294.917969 C 199.945312 301.191406 191.863281 305.820312 187.628906 308.800781 C 183.394531 311.777344 179.160156 315.386719 174.921875 319.621094 C 170.691406 323.855469 167.550781 327.464844 165.515625 330.441406 C 163.476562 333.421875 162.375 335.304688 162.21875 336.089844 C 162.140625 336.480469 162.0625 336.875 161.984375 337.265625 C 162.769531 336.089844 163.550781 334.914062 164.335938 333.738281 C 165.90625 331.386719 167.785156 329.109375 169.984375 326.914062 C 172.183594 324.71875 175.242188 322.289062 179.160156 319.621094 C 183.078125 316.953125 187.785156 314.367188 193.277344 311.859375 C 198.765625 309.351562 207.3125 306.132812 218.917969 302.210938 C 230.527344 298.292969 240.175781 294.214844 247.855469 289.976562 C 255.542969 285.742188 260.953125 282.371094 264.089844 279.863281 C 267.226562 277.351562 270.679688 274.058594 274.441406 269.980469 C 278.207031 265.898438 281.34375 261.667969 283.851562 257.277344 C 286.359375 252.886719 288.167969 249.042969 289.265625 245.75 C 289.8125 244.101562 290.359375 242.453125 290.910156 240.808594 C 290.828125 242.300781 290.757812 243.785156 290.675781 245.277344 C 290.519531 248.257812 289.5 252.492188 287.617188 257.980469 C 285.734375 263.472656 283.617188 268.253906 281.265625 272.332031 C 278.914062 276.414062 276.089844 280.179688 272.792969 283.625 C 271.148438 285.355469 269.5 287.074219 267.855469 288.800781 C 268.953125 288.09375 270.054688 287.390625 271.148438 286.683594 C 273.347656 285.273438 276.324219 282.527344 280.089844 278.449219 C 283.851562 274.371094 287.226562 269.589844 290.203125 264.097656 C 293.183594 258.605469 295.226562 254.136719 296.324219 250.691406 C 297.417969 247.238281 298.359375 243.394531 299.144531 239.160156 C 299.933594 234.925781 300.476562 228.890625 300.792969 221.046875 C 300.949219 217.125 301.109375 213.199219 301.261719 209.28125 C 301.417969 209.90625 301.578125 210.539062 301.734375 211.164062 C 302.046875 212.421875 302.046875 218.144531 301.734375 228.335938 C 301.417969 238.535156 300.710938 246.0625 299.617188 250.925781 C 298.519531 255.785156 297.109375 260.488281 295.382812 265.042969 C 293.65625 269.589844 291.851562 273.511719 289.972656 276.804688 C 288.089844 280.097656 285.734375 283.308594 282.914062 286.449219 C 280.089844 289.585938 276.949219 292.484375 273.5 295.152344 C 270.054688 297.820312 266.832031 299.9375 263.855469 301.507812 C 262.363281 302.292969 260.878906 303.074219 259.386719 303.859375 C 260.011719 303.703125 260.640625 303.542969 261.265625 303.390625 C 262.523438 303.074219 265.421875 301.660156 269.972656 299.152344 C 274.523438 296.644531 278.441406 294.132812 281.734375 291.625 C 285.027344 289.117188 288.167969 286.371094 291.148438 283.390625 C 294.125 280.410156 296.949219 277.039062 299.617188 273.273438 C 302.285156 269.511719 305.027344 264.414062 307.847656 257.980469 C 310.675781 251.546875 312.710938 244.808594 313.96875 237.75 C 315.222656 230.691406 315.769531 224.105469 315.613281 217.988281 C 315.460938 211.871094 314.59375 205.4375 313.023438 198.695312 C 311.460938 191.953125 309.730469 186.542969 307.847656 182.464844 C 305.96875 178.382812 304.007812 174.851562 301.96875 171.875 C 299.933594 168.898438 297.8125 166.230469 295.617188 163.875 C 294.519531 162.699219 293.417969 161.523438 292.320312 160.347656 C 292.636719 160.347656 292.949219 160.347656 293.265625 160.347656 C 293.890625 160.347656 296.007812 161.445312 299.617188 163.640625 C 303.226562 165.839844 305.730469 167.089844 307.144531 167.40625 C 307.847656 167.558594 308.554688 167.722656 309.261719 167.875 C 307.222656 166.621094 305.183594 165.367188 303.144531 164.113281 C 299.066406 161.605469 294.753906 158.464844 290.203125 154.703125 C 285.652344 150.9375 280.246094 145.679688 273.972656 138.941406 C 267.699219 132.195312 260.328125 124.667969 251.855469 116.351562 C 243.386719 108.039062 231.234375 98.082031 231.152344 98.238281 C 228.09375 95.730469 225.035156 93.21875 221.976562 90.710938 C 215.859375 85.6875 208.957031 80.984375 201.273438 76.59375 C 193.589844 72.203125 187.472656 67.183594 182.925781 61.539062 C 178.375 55.890625 173.984375 49.773438 169.746094 43.1875 C 165.515625 36.597656 163.007812 32.914062 162.21875 32.128906 C 161.433594 31.34375 160.652344 30.875 159.867188 30.714844 " fill-opacity="1" fill-rule="nonzero"/></g><path fill="#ffffff" d="M 148.808594 165.050781 C 150.847656 165.992188 152.890625 166.933594 154.925781 167.875 C 156.964844 168.816406 159.007812 169.757812 161.042969 170.699219 C 159.867188 169.992188 158.691406 169.289062 157.515625 168.582031 C 155.160156 167.167969 153.125 166.230469 151.398438 165.757812 C 150.535156 165.523438 149.671875 165.289062 148.808594 165.050781 " fill-opacity="1" fill-rule="nonzero"/><path fill="#ffffff" d="M 187.863281 135.878906 C 188.648438 136.976562 189.429688 138.078125 190.21875 139.171875 C 191.785156 141.371094 194.765625 144.347656 199.15625 148.113281 C 201.355469 149.996094 203.546875 151.878906 205.746094 153.761719 C 202.765625 150.78125 199.78125 147.800781 196.804688 144.820312 C 193.824219 141.839844 190.839844 138.859375 187.863281 135.878906 " fill-opacity="1" fill-rule="nonzero"/><path fill="#ffffff" d="M 150.21875 158.464844 C 147.398438 158.464844 144.574219 158.9375 141.75 159.875 C 140.339844 160.347656 138.929688 160.816406 137.515625 161.289062 C 139.554688 161.445312 141.597656 161.605469 143.632812 161.757812 C 147.710938 162.074219 151.398438 162.855469 154.691406 164.113281 C 157.984375 165.367188 160.730469 166.777344 162.925781 168.347656 C 165.121094 169.914062 167.550781 172.34375 170.21875 175.640625 C 171.550781 177.285156 172.886719 178.933594 174.21875 180.582031 C 173.359375 178.777344 172.492188 176.972656 171.628906 175.167969 C 169.90625 171.558594 167.785156 168.425781 165.277344 165.757812 C 162.769531 163.089844 160.335938 161.207031 157.984375 160.113281 C 155.632812 159.015625 153.046875 158.464844 150.21875 158.464844 " fill-opacity="1" fill-rule="nonzero"/><path fill="#ffffff" d="M 137.636719 170.640625 C 135.28125 170.601562 132.96875 170.699219 130.691406 170.933594 C 126.144531 171.40625 122.929688 171.953125 121.046875 172.582031 C 120.105469 172.898438 119.164062 173.207031 118.222656 173.523438 C 120.421875 173.441406 122.613281 173.367188 124.8125 173.289062 C 129.203125 173.132812 132.730469 173.367188 135.398438 173.996094 C 138.066406 174.621094 141.125 175.875 144.574219 177.757812 C 148.023438 179.640625 151.164062 181.757812 153.984375 184.109375 C 155.394531 185.285156 156.808594 186.460938 158.222656 187.640625 C 157.199219 187.324219 156.179688 187.011719 155.160156 186.695312 C 153.125 186.070312 146.847656 185.910156 136.339844 186.226562 C 125.832031 186.542969 119.480469 187.085938 117.285156 187.875 C 115.085938 188.660156 112.496094 189.988281 109.519531 191.871094 C 106.542969 193.753906 101.601562 195.554688 94.699219 197.285156 C 87.792969 199.011719 83.640625 199.871094 82.230469 199.871094 C 80.816406 199.871094 78.78125 199.636719 78.699219 199.871094 C 78.308594 200.027344 77.914062 200.1875 77.523438 200.339844 C 77.132812 200.5 76.738281 200.65625 76.347656 200.8125 C 77.601562 201.285156 78.855469 201.753906 80.109375 202.222656 C 82.617188 203.167969 85.914062 204.027344 89.992188 204.8125 C 94.070312 205.597656 97.992188 205.988281 101.757812 205.988281 C 105.519531 205.988281 109.519531 205.363281 113.753906 204.105469 C 117.988281 202.847656 122.304688 201.832031 126.695312 201.046875 C 131.085938 200.261719 134.539062 199.871094 137.046875 199.871094 C 139.554688 199.871094 142.066406 200.1875 144.574219 200.8125 C 147.082031 201.4375 149.671875 202.695312 152.339844 204.578125 C 155.007812 206.460938 156.886719 208.421875 157.984375 210.460938 C 159.082031 212.496094 159.710938 215.242188 159.867188 218.691406 C 160.023438 222.140625 159.710938 225.203125 158.925781 227.867188 C 158.535156 229.199219 158.140625 230.535156 157.75 231.871094 C 158.140625 231.316406 158.535156 230.773438 158.925781 230.21875 C 159.710938 229.125 160.570312 226.925781 161.515625 223.632812 C 162.453125 220.339844 162.925781 217.28125 162.925781 214.457031 C 162.925781 211.636719 162.691406 209.203125 162.21875 207.167969 C 161.75 205.128906 161.125 203.402344 160.335938 201.988281 C 159.550781 200.578125 159.316406 199.714844 159.632812 199.402344 C 159.785156 199.246094 159.945312 199.085938 160.101562 198.929688 C 160.652344 199.480469 161.199219 200.027344 161.75 200.578125 C 162.84375 201.675781 163.785156 203.085938 164.570312 204.8125 C 165.359375 206.539062 165.828125 209.363281 165.984375 213.28125 C 166.140625 217.199219 165.515625 221.359375 164.101562 225.75 C 162.691406 230.140625 160.417969 233.984375 157.277344 237.277344 C 155.710938 238.925781 154.140625 240.570312 152.574219 242.21875 C 154.066406 241.125 155.554688 240.023438 157.042969 238.925781 C 160.023438 236.726562 162.21875 234.609375 163.632812 232.574219 C 165.042969 230.535156 166.300781 228.257812 167.398438 225.75 C 168.492188 223.242188 169.511719 219.632812 170.453125 214.929688 C 171.394531 210.222656 171.710938 205.4375 171.394531 200.578125 C 171.082031 195.71875 170.21875 191.558594 168.808594 188.109375 C 167.398438 184.660156 165.746094 181.910156 163.867188 179.875 C 161.984375 177.835938 159.550781 176.027344 156.574219 174.464844 C 153.59375 172.898438 149.671875 171.796875 144.808594 171.167969 C 142.375 170.855469 139.988281 170.679688 137.636719 170.640625 " fill-opacity="1" fill-rule="nonzero"/></svg>