<svg xmlns="http://www.w3.org/2000/svg" xmlns:xlink="http://www.w3.org/1999/xlink" width="500" zoomAndPan="magnify" viewBox="0 0 375 374.999991" height="500" preserveAspectRatio="xMidYMid meet" version="1.0"><defs><clipPath id="9649d4a06f"><path d="M 33 57.695312 L 341.96875 57.695312 L 341.96875 317.195312 L 33 317.195312 Z M 33 57.695312 " clip-rule="nonzero"/></clipPath></defs><g clip-path="url(#9649d4a06f)"><path fill="#ffffff" d="M 126.457031 310.808594 C 126.703125 311.179688 127.015625 311.488281 127.324219 311.738281 C 127.074219 311.488281 126.828125 311.179688 126.457031 310.808594 Z M 279.5 152.960938 C 273.171875 153.519531 269.386719 151.78125 268.210938 147.6875 C 269.511719 144.898438 271.808594 144.398438 275.09375 146.199219 C 278.257812 147.875 279.6875 150.167969 279.5 152.960938 Z M 264.546875 142.230469 C 258.160156 139.5625 253.195312 137.949219 249.660156 137.515625 C 246.496094 137.019531 246.929688 136.773438 250.964844 136.773438 C 254.5625 136.648438 257.289062 136.710938 259.089844 136.957031 C 264.546875 137.328125 270.566406 138.878906 277.078125 141.671875 C 276.519531 141.796875 274.414062 141.671875 270.9375 141.296875 C 268.019531 141.050781 265.914062 141.359375 264.546875 142.230469 Z M 257.476562 149.300781 C 248.730469 145.640625 244.757812 143.902344 245.503906 144.027344 C 247.304688 143.28125 252.082031 144.089844 259.835938 146.382812 C 259.710938 146.632812 259.152344 147.003906 258.222656 147.5 C 257.601562 147.9375 257.351562 148.554688 257.476562 149.300781 Z M 258.59375 156.558594 C 258.34375 158.726562 256.605469 159.71875 253.507812 159.46875 C 250.714844 159.347656 248.230469 158.542969 246 157.113281 C 246 157.113281 247.800781 157.238281 251.273438 157.484375 C 253.691406 157.734375 255.183594 156.988281 255.679688 155.316406 C 255.058594 154.324219 253.070312 153.332031 249.660156 152.402344 C 251.707031 151.78125 253.753906 151.902344 255.863281 152.773438 C 257.910156 153.578125 258.839844 154.882812 258.59375 156.558594 Z M 263.308594 127.839844 C 262.8125 128.707031 262.625 129.761719 262.75 130.941406 C 263.617188 131.191406 265.230469 131.683594 267.652344 132.429688 C 269.695312 132.863281 271.25 133.359375 272.179688 133.855469 C 272.300781 133.855469 268.765625 133.546875 261.445312 132.925781 C 256.234375 132.429688 252.140625 132.554688 249.101562 133.296875 C 253.507812 130.632812 258.222656 128.832031 263.308594 127.839844 Z M 227.699219 149.300781 C 231.171875 148.183594 234.398438 149.113281 237.316406 152.027344 C 241.035156 155.75 243.582031 157.921875 244.945312 158.355469 C 242.277344 158.726562 239.363281 157.546875 236.195312 154.757812 C 232.597656 151.46875 229.746094 149.671875 227.699219 149.300781 Z M 232.414062 166.542969 C 232.972656 164.371094 235.390625 163.007812 239.488281 162.386719 C 238.246094 165.175781 238.492188 167.597656 240.230469 169.644531 C 238.992188 170.140625 237.5625 170.015625 235.824219 169.269531 C 234.152344 168.527344 232.972656 167.660156 232.414062 166.542969 Z M 210.949219 162.386719 C 212.066406 163.007812 213.679688 164.0625 215.847656 165.671875 C 218.519531 167.472656 220.378906 168.710938 221.496094 169.457031 C 226.457031 172.496094 231.296875 173.550781 236.011719 172.558594 C 238.679688 174.730469 240.105469 175.96875 240.230469 176.214844 C 229.558594 177.519531 219.820312 172.929688 210.949219 162.386719 Z M 189.484375 153.457031 C 193.765625 158.542969 206.855469 166.726562 228.753906 178.015625 C 222.921875 180.808594 215.664062 178.824219 206.980469 172 C 200.15625 166.914062 194.324219 160.773438 189.484375 153.457031 Z M 216.964844 189.800781 C 214.421875 186.574219 207.972656 183.039062 197.671875 179.253906 C 188.492188 175.785156 182.785156 171.503906 180.613281 166.542969 C 183.28125 170.570312 189.796875 173.984375 200.214844 176.898438 C 210.640625 179.9375 217.214844 183.472656 219.882812 187.445312 C 219.140625 187.445312 218.144531 188.25 216.964844 189.800781 Z M 194.261719 180.929688 C 202.949219 181.613281 209.894531 185.582031 215.105469 192.714844 C 211.011719 194.328125 207.167969 193.152344 203.691406 189.242188 C 199.097656 184.15625 195.9375 181.367188 194.261719 180.929688 Z M 206.234375 201.832031 C 197.734375 189.550781 190.417969 182.171875 184.210938 179.628906 C 184.210938 179.253906 184.398438 179.132812 184.769531 179.253906 C 185.140625 179.253906 185.328125 179.378906 185.328125 179.628906 C 193.953125 182.417969 201.273438 187.816406 207.289062 195.816406 C 206.609375 199.910156 206.234375 201.957031 206.234375 201.832031 Z M 203.875 211.820312 C 203.503906 211.695312 203.007812 211.199219 202.390625 210.328125 C 201.832031 209.648438 201.085938 209.339844 200.214844 209.460938 C 201.210938 207.847656 201.644531 205.304688 201.519531 201.832031 C 203.195312 203.136719 204 206.484375 203.875 211.820312 Z M 194.261719 215.972656 C 191.222656 209.898438 186.816406 204.933594 181.171875 201.089844 C 183.714844 200.839844 187.746094 202.761719 193.332031 206.917969 C 199.285156 211.261719 199.535156 214.300781 194.261719 215.972656 Z M 189.484375 219.632812 C 185.019531 217.214844 180.179688 212.5 174.96875 205.617188 C 169.136719 197.863281 164.671875 192.777344 161.507812 190.359375 C 165.414062 191.910156 170.375 196.0625 176.394531 202.699219 C 182.597656 209.648438 187.746094 214.050781 191.839844 215.972656 C 191.71875 216.34375 191.34375 216.90625 190.601562 217.648438 C 189.980469 218.328125 189.609375 219.011719 189.484375 219.632812 Z M 177.699219 226.703125 C 170.996094 212.871094 167.832031 206.175781 168.082031 206.546875 C 171.554688 207.601562 175.773438 212.378906 180.613281 220.6875 C 180.613281 220.441406 179.621094 222.484375 177.699219 226.703125 Z M 175.898438 246.304688 C 175.277344 246.429688 174.71875 246.179688 174.222656 245.621094 C 173.726562 245.125 173.105469 245 172.238281 245.25 C 172.609375 249.839844 175.03125 253.0625 179.496094 254.863281 C 180.488281 255.359375 185.019531 256.476562 193.144531 258.335938 C 194.574219 258.210938 196.679688 258.210938 199.347656 258.335938 C 201.953125 258.582031 201.707031 258.769531 198.417969 258.894531 C 190.042969 260.320312 181.605469 259.019531 173.167969 255.046875 C 169.261719 253.25 167.152344 251.265625 166.777344 249.21875 C 166.15625 246.796875 168.019531 244.441406 172.238281 242.148438 C 171.992188 239.480469 170.625 237.746094 168.082031 236.875 C 165.972656 237.125 164.855469 239.292969 164.609375 243.390625 C 162.933594 240.96875 161.257812 236.566406 159.707031 230.175781 C 158.09375 223.480469 156.542969 218.949219 154.992188 216.53125 C 156.917969 218.082031 158.777344 220.8125 160.574219 224.71875 C 162.808594 229.558594 164.296875 232.59375 165.167969 233.773438 C 166.46875 232.84375 166.65625 231.417969 165.664062 229.621094 C 163.988281 226.332031 163.179688 225.027344 163.304688 225.585938 C 171.929688 230.796875 176.085938 237.746094 175.898438 246.304688 Z M 160.453125 253.621094 C 160.636719 259.761719 160.078125 264.101562 158.589844 266.644531 C 156.917969 253 155.675781 245.433594 154.992188 243.945312 C 161.132812 247.480469 164.359375 252.011719 164.609375 257.59375 C 164.113281 257.34375 163.492188 256.539062 162.808594 255.234375 C 162.191406 254.117188 161.382812 253.621094 160.453125 253.621094 Z M 152.636719 195.816406 C 156.976562 199.351562 160.390625 203.320312 162.808594 207.785156 C 165.910156 213.617188 166.53125 218.949219 164.609375 223.789062 C 162.191406 221.742188 160.203125 217.089844 158.589844 209.835938 C 157.039062 202.515625 155.054688 197.863281 152.636719 195.816406 Z M 152.636719 230.363281 C 151.394531 229.621094 150.773438 227.820312 150.773438 224.90625 C 150.648438 222.484375 150.898438 220.253906 151.519531 218.328125 C 151.765625 218.828125 152.261719 219.570312 152.945312 220.503906 C 153.566406 221.492188 154.0625 222.175781 154.433594 222.546875 C 152.945312 226.023438 152.386719 228.628906 152.636719 230.363281 Z M 150.21875 258.894531 C 150.835938 261.746094 150.464844 265.34375 149.160156 269.5625 C 145.066406 269.808594 142.769531 271.980469 142.398438 276.136719 C 142.398438 277.191406 143.019531 279.175781 144.261719 281.964844 C 144.882812 283.269531 144.261719 282.898438 142.398438 280.847656 C 141.097656 281.46875 140.226562 282.960938 139.917969 285.378906 C 139.792969 286.246094 139.730469 287.425781 139.730469 288.851562 C 139.730469 290.402344 139.667969 291.515625 139.546875 292.136719 C 138.675781 291.144531 138.304688 288.417969 138.429688 283.949219 C 137.5625 284.882812 136.566406 287.050781 135.328125 290.277344 C 134.273438 293.316406 133.09375 295.300781 131.914062 296.292969 C 129.496094 293.007812 129.25 289.46875 131.171875 285.566406 C 131.792969 284.507812 132.785156 282.832031 134.273438 280.664062 C 135.949219 278.367188 137.125 276.695312 137.683594 275.578125 C 140.351562 270.988281 141.902344 265.46875 142.273438 259.019531 C 142.523438 256.722656 142.523438 253.558594 142.398438 249.402344 C 142.398438 243.820312 142.398438 240.039062 142.398438 237.992188 C 148.105469 241.464844 151.703125 247.855469 153.132812 257.035156 C 153.257812 257.777344 152.882812 258.085938 152.078125 257.960938 C 151.082031 257.960938 150.464844 258.273438 150.21875 258.894531 Z M 146.617188 274.832031 C 146.617188 273.035156 146.867188 271.917969 147.363281 271.421875 C 150.339844 272.226562 152.140625 275.578125 152.636719 281.40625 C 152.636719 281.40625 151.953125 279.734375 150.585938 276.507812 C 149.78125 274.523438 148.417969 274.027344 146.617188 274.832031 Z M 118.082031 195.257812 C 118.949219 194.636719 120.316406 194.140625 122.238281 193.644531 C 124.347656 193.027344 125.710938 192.53125 126.457031 192.15625 C 130.550781 187.445312 132.535156 185.457031 132.410156 186.203125 C 139.730469 184.09375 145.253906 180.1875 149.160156 174.355469 C 152.449219 173.054688 157.785156 170.078125 165.167969 165.488281 C 164.546875 167.285156 162.683594 168.898438 159.519531 170.386719 C 155.363281 172.308594 152.882812 173.671875 152.078125 174.355469 C 151.332031 174.976562 149.964844 176.960938 147.859375 180.371094 C 146.304688 182.914062 144.507812 184.28125 142.398438 184.527344 C 142.089844 184.898438 141.097656 186.140625 139.546875 188.1875 C 138.179688 189.738281 137.003906 190.917969 135.886719 191.660156 C 134.582031 191.414062 132.722656 191.476562 130.425781 191.785156 C 128.132812 192.15625 126.828125 192.28125 126.457031 192.15625 C 126.890625 194.824219 129.125 196.683594 132.96875 197.617188 C 138.054688 198.855469 141.035156 199.785156 141.902344 200.53125 C 132.101562 201.152344 124.160156 199.414062 118.082031 195.257812 Z M 128.8125 261.25 C 127.324219 261.621094 125.277344 264.226562 122.609375 269.066406 C 120.5625 272.910156 117.894531 273.902344 114.605469 271.980469 C 113.921875 272.042969 112.808594 272.972656 111.382812 274.648438 C 110.265625 275.886719 108.898438 276.199219 107.347656 275.578125 C 109.890625 272.664062 112.3125 267.640625 114.605469 260.503906 C 117.273438 252.503906 119.445312 247.171875 121.179688 244.503906 C 123.105469 245.992188 126.457031 250.953125 131.171875 259.390625 C 129 258.582031 127.574219 258.210938 126.953125 258.335938 C 126.394531 258.957031 127.015625 259.886719 128.8125 261.25 Z M 103.875 280.289062 C 102.449219 280.414062 101.828125 279.609375 102.074219 277.933594 C 99.78125 279.421875 98.230469 281.78125 97.359375 285.007812 C 96.246094 284.820312 94.691406 284.882812 92.648438 285.378906 C 90.910156 285.625 89.730469 285.503906 88.984375 285.007812 C 88.859375 282.832031 90.289062 281.285156 93.203125 280.289062 C 100.585938 271.859375 106.292969 266.085938 110.449219 263.050781 C 110.324219 264.722656 109.269531 267.453125 107.347656 271.238281 C 105.300781 274.957031 104.125 277.996094 103.875 280.289062 Z M 126.457031 221.429688 C 125.589844 221.804688 124.53125 221.492188 123.355469 220.503906 C 121.863281 219.570312 121.179688 218.453125 121.179688 217.277344 C 121.058594 217.152344 121.800781 217.152344 123.539062 217.277344 C 125.09375 219.945312 126.082031 221.308594 126.457031 221.429688 Z M 114.605469 204.191406 C 116.34375 201.894531 118.640625 201.335938 121.554688 202.515625 C 123.851562 203.382812 125.898438 204.871094 127.695312 207.105469 C 126.765625 207.226562 124.84375 206.671875 122.050781 205.429688 C 119.257812 204.128906 116.777344 203.695312 114.605469 204.191406 Z M 112.808594 194.015625 C 113.058594 193.519531 113.800781 192.839844 114.980469 191.972656 C 115.972656 191.289062 116.65625 190.542969 116.964844 189.800781 C 115.785156 188.25 113.863281 187.753906 111.195312 188.375 C 108.527344 188.871094 106.851562 189.925781 106.292969 191.660156 C 106.355469 187.507812 109.828125 185.273438 116.65625 184.898438 C 125.09375 184.40625 129.742188 183.910156 130.613281 183.289062 C 131.730469 184.21875 130.488281 186.078125 126.953125 188.746094 C 123.230469 191.535156 118.515625 193.273438 112.808594 194.015625 Z M 96.058594 215.972656 C 96.554688 217.214844 98.351562 218.390625 101.332031 219.632812 C 101.207031 219.632812 97.917969 219.261719 91.34375 218.519531 C 86.628906 218.019531 83.835938 219.199219 83.03125 221.988281 C 82.285156 221.492188 82.160156 220.6875 82.65625 219.632812 C 82.78125 219.386719 82.96875 218.949219 83.15625 218.328125 C 83.402344 217.710938 83.527344 217.402344 83.527344 217.277344 C 85.386719 217.027344 87.1875 217.027344 88.984375 217.277344 C 88.984375 214.363281 91.53125 212.746094 96.617188 212.5 C 101.828125 212.316406 105.050781 213.617188 106.292969 216.53125 C 106.167969 216.65625 104.558594 216.222656 101.515625 215.230469 C 98.972656 214.546875 97.171875 214.796875 96.058594 215.972656 Z M 72.792969 224.90625 C 72.113281 225.152344 71.679688 224.90625 71.554688 224.160156 C 71.429688 223.167969 71.242188 222.671875 70.996094 222.546875 C 70.5 222.671875 69.878906 222.859375 69.007812 223.230469 C 68.140625 223.605469 67.523438 223.789062 67.023438 223.789062 C 69.070312 210.082031 75.585938 199.226562 86.628906 191.101562 C 86.132812 191.910156 86.316406 192.652344 87.1875 193.273438 C 88.054688 193.769531 88.613281 193.582031 88.984375 192.714844 C 89.234375 193.089844 89.480469 193.769531 89.730469 194.699219 C 89.976562 195.570312 90.351562 196.125 90.785156 196.375 C 92.648438 196.746094 94.320312 196.4375 95.871094 195.445312 C 97.980469 194.265625 99.40625 193.582031 100.277344 193.460938 C 98.789062 194.203125 98.351562 195.136719 98.789062 196.375 C 99.285156 197.554688 100.585938 197.988281 102.632812 197.617188 C 101.515625 198.734375 101.023438 200.21875 101.023438 202.203125 C 101.144531 204.375 102.074219 205.617188 103.875 205.988281 C 93.390625 210.207031 87.1875 213.367188 85.386719 215.417969 C 85.820312 215.664062 86.441406 214.484375 87.1875 211.820312 C 84.023438 212.316406 81.292969 214.175781 79 217.460938 C 75.710938 221.804688 73.664062 224.285156 72.792969 224.90625 Z M 80.117188 225.585938 C 78.128906 226.582031 76.515625 226.953125 75.214844 226.703125 C 77.011719 226.703125 77.941406 225.710938 78.066406 223.789062 C 78.191406 221.617188 78.625 220.378906 79.371094 220.128906 C 79.867188 220.625 80.117188 222.484375 80.117188 225.585938 Z M 67.023438 227.945312 C 67.398438 226.890625 68.082031 226.332031 69.195312 226.332031 C 70.375 226.457031 70.996094 227.199219 70.996094 228.503906 C 68.203125 228.128906 66.902344 227.945312 67.023438 227.945312 Z M 70.4375 238.675781 C 69.132812 237.992188 68.140625 236.75 67.523438 235.078125 C 66.839844 233.152344 66.839844 231.355469 67.523438 229.804688 C 69.507812 229.929688 70.5625 230.921875 70.808594 232.90625 C 70.808594 232.90625 70.683594 234.828125 70.4375 238.675781 Z M 103.875 181.429688 C 102.695312 181.429688 101.640625 180.25 100.835938 177.828125 C 100.089844 175.660156 99.71875 173.304688 99.71875 170.761719 C 99.84375 170.882812 101.207031 174.417969 103.875 181.429688 Z M 87.1875 157.113281 C 96.246094 159.90625 101.828125 165.054688 103.875 172.558594 C 102.695312 170.015625 99.96875 167.347656 95.75 164.558594 C 91.21875 161.644531 88.367188 159.160156 87.1875 157.113281 Z M 69.382812 130.941406 C 71.304688 130.691406 73.539062 131.4375 76.082031 133.113281 C 76.703125 133.484375 77.820312 134.289062 79.371094 135.46875 C 80.675781 136.335938 81.726562 137.019531 82.472656 137.515625 C 80.488281 139.933594 79.496094 140.863281 79.371094 140.367188 C 80.488281 144.277344 84.640625 149.050781 91.902344 154.757812 C 87.558594 154.015625 83.339844 150.664062 79.371094 144.773438 C 74.160156 136.773438 70.808594 132.179688 69.382812 130.941406 Z M 234.773438 125.484375 C 234.894531 125.109375 235.019531 125.050781 235.144531 125.296875 C 235.390625 125.546875 235.453125 125.855469 235.332031 126.226562 C 224.039062 132.304688 215.910156 138.816406 210.949219 145.824219 C 210.949219 145.824219 208.777344 145.578125 204.433594 145.144531 C 211.324219 138.074219 221.433594 131.558594 234.773438 125.484375 Z M 250.964844 186.203125 C 248.542969 187.132812 245.75 187.570312 242.589844 187.445312 C 239.300781 187.195312 236.878906 186.453125 235.332031 185.085938 C 236.136719 185.210938 238.492188 185.394531 242.402344 185.644531 C 246.496094 185.769531 249.347656 185.953125 250.964844 186.203125 Z M 112.808594 305.226562 C 112.4375 305.351562 111.816406 305.84375 111.007812 306.835938 C 110.265625 307.832031 109.828125 308.261719 109.707031 308.261719 C 108.28125 307.953125 107.285156 306.09375 106.789062 302.867188 C 107.410156 302.867188 107.96875 302.992188 108.464844 303.363281 C 109.023438 303.734375 109.457031 303.984375 109.707031 304.109375 C 110.449219 303.859375 111.753906 302.867188 113.738281 301.191406 C 115.785156 299.519531 117.214844 298.464844 118.082031 298.09375 C 118.699219 297.84375 119.199219 297.78125 119.695312 297.90625 C 120.316406 297.90625 119.941406 298.152344 118.640625 298.652344 C 119.257812 299.769531 119.632812 301.441406 119.878906 303.734375 C 120.128906 306.03125 120.75 307.953125 121.742188 309.378906 C 120.996094 309.257812 119.507812 308.324219 117.335938 306.652344 C 115.660156 305.472656 114.109375 304.976562 112.808594 305.226562 Z M 104.433594 304.109375 C 103.625 303.734375 102.136719 302.3125 100.089844 299.769531 C 98.539062 297.78125 96.367188 297.097656 93.699219 297.59375 C 95.4375 295.488281 97.792969 295.488281 100.835938 297.59375 C 103.8125 299.769531 105.054688 301.9375 104.433594 304.109375 Z M 84.273438 304.667969 C 83.402344 304.667969 83.03125 304.046875 83.03125 302.867188 C 82.90625 301.753906 83.03125 300.945312 83.527344 300.449219 C 89.730469 300.820312 94.074219 301.628906 96.617188 302.867188 C 95.933594 302.929688 93.453125 302.804688 89.355469 302.3125 C 86.816406 302.0625 85.140625 302.867188 84.273438 304.667969 Z M 80.117188 298.09375 C 80.550781 294.617188 78.378906 293.007812 73.539062 293.378906 C 72.113281 291.332031 70.066406 289.90625 67.398438 289.035156 C 64.359375 288.167969 62.0625 288.851562 60.449219 291.023438 C 60.695312 287.859375 61.75 286.183594 63.550781 285.933594 C 64.789062 285.6875 66.777344 286.246094 69.566406 287.546875 C 76.332031 290.710938 80.796875 291.269531 83.03125 289.222656 C 82.65625 291.890625 82.84375 294.492188 83.527344 297.035156 C 80.859375 297.78125 79.742188 298.09375 80.117188 298.09375 Z M 47.175781 289.78125 C 46.492188 287.113281 48.039062 285.933594 51.949219 286.308594 C 55.921875 286.679688 57.90625 288.046875 57.90625 290.464844 C 56.230469 289.285156 54.492188 288.480469 52.632812 288.105469 C 49.964844 287.609375 48.167969 288.167969 47.175781 289.78125 Z M 295.441406 126.785156 C 298.234375 125.050781 302.640625 122.628906 308.53125 119.46875 C 314.488281 116.367188 318.890625 113.886719 321.808594 112.023438 C 331.859375 106.007812 338.621094 99.558594 341.96875 92.796875 C 321.496094 106.6875 305.367188 114.257812 293.644531 115.496094 C 310.953125 107.246094 326.648438 93.914062 340.730469 75.492188 C 313.929688 94.285156 298.234375 104.394531 293.644531 105.882812 C 311.945312 89.136719 322.675781 73.074219 325.839844 57.691406 C 306.796875 85.230469 288.742188 102.660156 271.683594 110.039062 C 289.488281 89.445312 299.597656 72.019531 302.019531 57.691406 C 301.769531 58.4375 301.085938 59.550781 300.035156 60.980469 C 299.039062 62.34375 298.542969 63.585938 298.542969 64.824219 C 285.207031 81.757812 277.078125 91.804688 274.226562 94.964844 C 264.054688 105.511719 253.257812 112.332031 241.84375 115.496094 C 241.84375 115 242.277344 114.195312 243.148438 113.140625 C 243.582031 112.269531 243.582031 111.652344 243.148438 111.34375 C 241.90625 112.023438 240.355469 113.449219 238.371094 115.496094 C 235.578125 118.289062 233.902344 119.964844 233.28125 120.582031 C 229.0625 124.492188 225.21875 125.109375 221.683594 122.566406 C 221.929688 121.761719 222.550781 120.707031 223.480469 119.46875 C 224.472656 118.410156 225.09375 117.421875 225.28125 116.613281 C 214.050781 120.332031 199.160156 131.5 180.613281 150.042969 C 170.8125 159.84375 154.558594 169.707031 131.914062 179.628906 C 121.617188 172.992188 113.863281 167.039062 108.652344 161.828125 C 109.207031 160.523438 111.007812 159.90625 113.921875 160.027344 C 116.777344 160.152344 118.390625 160.898438 118.640625 162.386719 C 118.886719 163.007812 118.824219 163.566406 118.453125 164.183594 C 118.082031 164.804688 117.957031 165.425781 118.082031 165.984375 C 122.296875 167.96875 127.136719 167.472656 132.597656 164.558594 C 133.835938 163.9375 136.070312 162.632812 139.359375 160.585938 C 142.027344 158.851562 144.074219 157.734375 145.5 157.113281 C 144.199219 157.363281 141.902344 158.042969 138.613281 159.101562 C 135.824219 160.089844 133.652344 160.710938 132.101562 160.898438 C 127.199219 161.644531 123.601562 160.214844 121.183594 156.558594 C 116.21875 157.546875 111.566406 157.238281 107.347656 155.6875 C 106.167969 155.191406 104.371094 154.324219 102.074219 153.082031 C 99.65625 151.902344 97.855469 151.035156 96.617188 150.539062 C 89.605469 147.6875 85.820312 145.453125 85.386719 144.027344 C 85.945312 143.53125 86.9375 143.28125 88.242188 143.28125 C 89.730469 143.28125 90.785156 143.53125 91.34375 144.027344 C 89.171875 140.179688 85.386719 136.398438 79.929688 132.738281 C 71.183594 127.09375 66.652344 124.117188 66.28125 123.871094 C 68.082031 124.367188 71.367188 124.988281 76.082031 125.855469 C 80.363281 126.597656 83.21875 127.21875 84.832031 127.839844 C 81.042969 123.128906 76.269531 120.148438 70.4375 118.96875 C 70.808594 119.09375 69.507812 119.15625 66.464844 119.15625 C 64.914062 119.15625 63.863281 118.535156 63.367188 117.296875 C 63.613281 115.992188 64.730469 115.0625 66.652344 114.566406 C 70.625 113.761719 72.359375 113.449219 71.742188 113.699219 C 70.746094 112.828125 68.328125 111.652344 64.484375 110.039062 C 64.730469 109.789062 66.714844 108.179688 70.4375 105.140625 C 72.980469 103.09375 74.222656 101.167969 74.097656 99.308594 C 71.925781 101.355469 69.507812 102.84375 66.839844 103.710938 C 63.550781 104.890625 60.820312 104.644531 58.648438 102.96875 C 59.023438 102.222656 59.644531 101.292969 60.449219 100.054688 C 61.691406 98.625 62.371094 97.636719 62.621094 97.140625 C 64.359375 94.597656 64.789062 92.175781 63.925781 89.882812 C 63.179688 91.558594 61.9375 92.980469 60.078125 94.039062 C 58.152344 95.15625 56.292969 95.339844 54.492188 94.597656 C 54.492188 92.671875 55.921875 90.316406 58.835938 87.523438 C 61.378906 85.230469 62.125 82.625 61.007812 79.710938 C 60.265625 82.253906 58.214844 84.484375 54.804688 86.410156 C 50.957031 88.828125 48.660156 90.625 47.917969 91.679688 C 47.671875 91.929688 47.113281 93.292969 46.304688 95.710938 C 45.683594 97.261719 44.628906 98.316406 43.203125 98.75 C 42.335938 96.582031 42.398438 94.039062 43.390625 91.121094 C 44.691406 87.523438 45.4375 85.105469 45.558594 83.863281 C 45.1875 84.609375 42.519531 87.957031 37.558594 93.851562 C 34.269531 97.757812 32.964844 102.164062 33.585938 107.125 C 34.144531 112.332031 36.007812 116.738281 39.046875 120.210938 C 40.472656 122.070312 43.515625 124.304688 48.101562 126.972656 C 52.816406 129.761719 56.109375 132.054688 57.90625 133.855469 C 59.828125 135.902344 62.125 139.128906 64.667969 143.46875 C 67.460938 148.304688 69.566406 151.65625 70.996094 153.457031 C 72.238281 154.945312 74.34375 157.238281 77.382812 160.402344 C 80.175781 163.378906 82.222656 165.859375 83.527344 167.660156 C 88.054688 173.613281 90.226562 180 90.101562 186.886719 C 81.480469 191.414062 74.964844 198.113281 70.4375 207.105469 C 65.472656 217.152344 64.542969 227.695312 67.523438 238.675781 C 70.683594 240.660156 73.476562 242.023438 75.898438 242.890625 C 75.898438 242.023438 75.648438 241.09375 75.214844 240.164062 C 74.71875 239.292969 74.53125 238.363281 74.65625 237.433594 C 80.550781 225.898438 89.917969 221.183594 102.632812 223.230469 C 103.625 224.71875 106.605469 227.324219 111.691406 231.046875 C 115.722656 234.085938 117.832031 237.1875 118.082031 240.351562 C 118.203125 242.394531 117.398438 245.3125 115.722656 249.03125 C 113.921875 253.1875 112.933594 256.476562 112.808594 258.894531 C 110.761719 260.195312 105.609375 265.160156 97.359375 273.78125 C 91.28125 280.042969 85.140625 284.011719 78.8125 285.566406 C 79.183594 285.933594 80.054688 286.183594 81.355469 286.308594 C 82.71875 286.429688 83.402344 286.804688 83.527344 287.425781 C 82.472656 288.105469 80.117188 288.914062 76.457031 289.78125 C 73.785156 287.363281 70.808594 285.625 67.523438 284.695312 C 63.179688 283.332031 60.203125 284.261719 58.648438 287.425781 C 52.074219 284.261719 47.734375 284.074219 45.558594 286.867188 C 45.3125 288.789062 45.746094 290.527344 46.863281 292.136719 C 47.050781 292.511719 47.546875 293.070312 48.292969 293.9375 C 48.910156 294.679688 49.40625 295.238281 49.714844 295.734375 C 50.585938 295.734375 51.144531 295.113281 51.390625 293.75 C 51.765625 292.324219 52.320312 291.578125 53.191406 291.578125 C 53.8125 292.074219 55.550781 292.386719 58.464844 292.511719 C 61.007812 292.570312 62.433594 293.316406 62.808594 294.679688 C 62.558594 295.054688 61.75 295.425781 60.265625 295.921875 C 59.085938 296.292969 58.527344 297.035156 58.648438 298.09375 C 58.648438 298.835938 59.582031 300.078125 61.378906 301.753906 C 63.179688 303.550781 64.230469 305.164062 64.484375 306.464844 C 65.785156 305.472656 66.03125 304.480469 65.164062 303.363281 C 63.984375 301.8125 63.367188 300.636719 63.367188 299.953125 C 63.613281 297.535156 65.96875 296.230469 70.4375 296.109375 C 74.839844 295.984375 77.632812 296.851562 78.8125 298.652344 C 78.9375 300.015625 78.5 301.8125 77.570312 304.109375 C 83.21875 299.023438 86.257812 295.859375 86.628906 294.679688 C 86.753906 294.0625 86.316406 293.8125 85.386719 293.9375 C 84.394531 294.0625 84.023438 293.875 84.273438 293.378906 C 89.605469 289.160156 95.5625 288.355469 102.074219 291.023438 C 104.246094 287.859375 105.425781 286.308594 105.546875 286.308594 C 105.796875 286.804688 105.671875 287.671875 105.179688 289.035156 C 104.804688 289.96875 104.929688 290.648438 105.546875 291.023438 C 105.921875 290.527344 106.355469 289.410156 106.976562 287.546875 C 107.472656 286.121094 108.03125 285.066406 108.652344 284.507812 C 108.777344 284.507812 109.148438 284.820312 109.890625 285.378906 C 110.265625 285.75 110.449219 285.441406 110.449219 284.507812 C 110.324219 284.136719 110.140625 283.640625 109.890625 283.023438 C 109.644531 282.277344 109.457031 281.84375 109.335938 281.59375 C 109.085938 280.476562 109.457031 279.671875 110.449219 279.050781 C 108.15625 279.175781 108.960938 282.214844 112.808594 288.105469 C 113.425781 287.488281 113.984375 285.503906 114.421875 282.152344 C 114.667969 279.363281 115.722656 277.933594 117.523438 277.933594 C 117.769531 278.554688 117.644531 279.484375 117.152344 280.664062 C 116.777344 281.65625 116.902344 282.277344 117.523438 282.648438 C 117.769531 282.152344 118.265625 280.789062 119.011719 278.492188 C 119.570312 276.820312 120.316406 275.578125 121.183594 274.832031 C 121.679688 274.707031 122.050781 274.894531 122.421875 275.390625 C 122.796875 275.886719 123.167969 276.136719 123.539062 276.136719 C 123.789062 273.84375 124.347656 272.226562 125.152344 271.421875 C 124.90625 271.421875 125.957031 272.539062 128.253906 274.832031 C 129 274.152344 130.363281 271.734375 132.410156 267.578125 C 134.148438 264.414062 135.886719 262.304688 137.683594 261.25 C 138.429688 261.5 139.234375 262.492188 140.042969 264.289062 C 139.730469 268.941406 135.761719 276.261719 128.253906 286.308594 C 120.996094 295.859375 113.425781 300.820312 105.546875 301.191406 C 103.8125 297.71875 100.898438 294.929688 96.617188 292.820312 C 93.015625 295.613281 90.785156 297.96875 90.101562 299.953125 C 86.816406 299.210938 84.457031 299.210938 83.03125 299.953125 C 83.464844 299.085938 83.277344 303.054688 82.472656 311.921875 C 83.527344 311.921875 83.714844 311.488281 83.03125 310.683594 C 84.832031 303.613281 92.769531 303.175781 106.789062 309.378906 C 106.789062 311.675781 106.789062 312.914062 106.789062 313.039062 C 108.15625 313.039062 109.332031 312.234375 110.449219 310.683594 C 111.503906 309.070312 112.683594 308.261719 113.921875 308.261719 C 115.476562 308.757812 116.65625 310.1875 117.523438 312.480469 C 121.058594 312.359375 123.230469 312.417969 124.097656 312.667969 C 126.019531 313.289062 126.828125 314.777344 126.457031 317.195312 C 127.882812 317.070312 128.875 315.894531 129.371094 313.535156 C 128.75 313.101562 128.070312 312.480469 127.324219 311.738281 C 128.441406 313.289062 128.566406 314.527344 127.695312 315.398438 C 125.277344 312.109375 124.285156 310.558594 124.59375 310.683594 C 125.09375 310.3125 125.710938 310.375 126.457031 310.808594 C 124.160156 308.261719 122.917969 305.84375 122.796875 303.550781 C 122.671875 300.636719 124.472656 298.652344 128.253906 297.59375 C 128.503906 297.71875 129.496094 299.890625 131.171875 304.109375 C 132.96875 301.070312 134.394531 299.519531 135.328125 299.394531 C 136.195312 299.519531 136.753906 300.386719 137.003906 301.9375 C 137.375 303.488281 137.808594 304.417969 138.429688 304.667969 C 138.800781 303.175781 139.792969 302.25 141.34375 301.753906 C 143.144531 302.867188 143.515625 303.425781 142.398438 303.550781 C 142.523438 302.25 143.082031 300.511719 144.074219 298.464844 C 145.066406 296.542969 145.5 294.867188 145.5 293.378906 C 146.121094 293.378906 146.492188 294 146.617188 295.238281 C 146.742188 296.417969 147.175781 297.035156 147.859375 297.035156 C 147.859375 296.167969 147.609375 294.742188 146.988281 292.632812 C 146.367188 291.085938 146.246094 289.96875 146.617188 289.222656 C 147.484375 289.46875 148.230469 290.152344 148.976562 291.394531 C 149.71875 292.820312 150.277344 293.6875 150.773438 293.9375 C 151.269531 289.097656 151.519531 286.742188 151.519531 286.867188 C 152.015625 286.617188 152.699219 286.988281 153.503906 287.921875 C 154 288.664062 154.308594 288.480469 154.433594 287.425781 C 155.859375 285.6875 155.675781 283.703125 153.875 281.40625 C 153.753906 280.789062 154.183594 280.414062 155.179688 280.289062 C 156.109375 280.289062 156.667969 280.105469 156.792969 279.734375 C 155.796875 279.734375 155.242188 278.988281 154.992188 277.378906 C 154.742188 275.949219 155.179688 275.082031 156.234375 274.832031 C 156.730469 275.082031 157.226562 275.949219 157.722656 277.378906 C 158.03125 278.617188 158.714844 279.175781 159.707031 279.050781 C 159.707031 278.804688 159.457031 278.183594 158.960938 277.191406 C 158.589844 276.136719 158.339844 275.328125 158.21875 274.832031 C 157.660156 272.910156 157.972656 271.609375 159.148438 270.863281 C 159.769531 271.113281 160.328125 272.105469 160.761719 273.964844 C 161.132812 275.515625 161.816406 276.445312 162.808594 276.695312 C 163.054688 275.949219 162.996094 274.769531 162.621094 273.222656 C 162.25 271.980469 162.3125 271.238281 162.808594 270.863281 C 163.054688 270.863281 163.179688 271.050781 163.304688 271.421875 C 163.554688 271.796875 163.738281 271.980469 163.863281 271.980469 C 163.988281 271.484375 164.113281 270.679688 164.234375 269.5625 C 164.484375 268.632812 164.609375 267.886719 164.609375 267.390625 C 165.105469 265.71875 165.847656 264.660156 166.964844 264.289062 C 168.640625 265.035156 170.375 265.035156 172.050781 264.289062 C 172.425781 264.164062 173.167969 263.917969 174.222656 263.421875 C 175.089844 262.925781 175.835938 262.617188 176.394531 262.492188 C 183.09375 263.730469 188.863281 265.65625 193.703125 268.320312 C 193.953125 268.320312 194.015625 267.824219 193.890625 266.832031 C 193.640625 265.902344 194.015625 265.40625 194.941406 265.40625 C 198.109375 265.035156 202.078125 266.398438 206.976562 269.375 C 211.195312 272.042969 214.859375 272.722656 218.023438 271.421875 C 217.648438 271.300781 217.027344 271.113281 216.035156 270.863281 C 215.167969 270.617188 214.546875 270.429688 214.050781 270.304688 C 212.6875 269.683594 212.128906 268.695312 212.191406 267.203125 C 214.546875 266.957031 218.394531 268.320312 223.851562 271.238281 C 228.816406 273.902344 233.46875 274.523438 237.871094 273.222656 C 235.761719 273.34375 234.398438 272.289062 233.65625 270.121094 C 236.445312 270.617188 240.789062 269.625 246.746094 267.203125 C 246.621094 267.082031 246.371094 266.957031 246 266.832031 C 245.566406 266.644531 245.191406 266.460938 244.945312 266.335938 C 244.199219 265.964844 244.199219 265.65625 244.945312 265.40625 C 245.8125 266.023438 246.867188 266.210938 248.230469 265.964844 C 249.660156 265.59375 250.589844 265.035156 250.964844 264.289062 C 249.96875 264.164062 249.226562 263.421875 248.730469 261.933594 C 248.171875 260.382812 247.488281 259.515625 246.746094 259.390625 C 251.953125 258.832031 255.304688 257.40625 256.730469 255.234375 C 255.304688 254.738281 252.761719 254.800781 249.101562 255.421875 C 245.378906 255.917969 242.773438 255.855469 241.285156 255.234375 C 241.53125 254.863281 242.464844 254.675781 244.015625 254.675781 C 245.628906 254.800781 246.496094 254.613281 246.746094 254.117188 C 245.691406 253.746094 245.441406 253.1875 246 252.320312 C 253.445312 250.273438 257.785156 248.289062 259.089844 246.304688 C 246.621094 249.464844 233.34375 250.707031 219.324219 249.960938 C 205.738281 249.21875 195.5625 247.605469 188.800781 245.0625 C 178.8125 241.277344 173.914062 235.203125 174.039062 226.703125 C 174.65625 226.953125 175.214844 227.449219 175.710938 228.128906 C 176.269531 229 176.707031 229.558594 176.953125 229.804688 C 178.566406 229.433594 179.992188 227.820312 181.296875 224.90625 C 182.539062 222.363281 184.085938 220.9375 186.074219 220.6875 C 187.003906 220.6875 187.871094 221 188.617188 221.617188 C 189.671875 222.609375 190.417969 223.105469 190.785156 223.230469 C 191.65625 220.128906 193.640625 218.703125 196.742188 219.074219 C 198.605469 215.664062 200.339844 213.679688 202.015625 213.058594 C 202.390625 213.058594 202.757812 213.304688 203.132812 213.804688 C 203.378906 214.300781 203.816406 214.421875 204.433594 214.175781 C 209.027344 208.964844 210.578125 206.421875 209.148438 206.546875 C 210.824219 207.972656 211.382812 210.328125 210.765625 213.617188 C 210.265625 216.90625 208.964844 218.703125 206.792969 219.074219 C 205.800781 219.324219 204.871094 218.886719 204.0625 217.773438 C 203.316406 216.84375 202.636719 216.65625 202.015625 217.277344 C 199.71875 223.292969 202.140625 227.324219 209.335938 229.246094 C 219.507812 232.164062 225.03125 234.085938 225.839844 235.078125 C 225.03125 232.90625 222.425781 230.734375 218.023438 228.6875 C 213.804688 226.890625 211.445312 224.84375 210.949219 222.546875 C 210.703125 221.308594 211.070312 219.632812 212.066406 217.460938 C 213.246094 214.796875 213.925781 212.875 214.050781 211.820312 C 213.925781 211.941406 212.871094 206.796875 210.949219 196.375 C 213.121094 196 215.105469 196 216.964844 196.375 C 212.6875 206.175781 226.582031 206.980469 258.59375 198.734375 C 250.964844 197.492188 246.558594 194.699219 245.503906 190.359375 C 246.1875 188.3125 248.230469 187.570312 251.460938 188.1875 C 252.328125 188.4375 253.566406 188.808594 255.121094 189.242188 C 256.296875 189.613281 257.105469 189.800781 257.476562 189.800781 C 255.925781 186.636719 251.523438 184.527344 244.386719 183.472656 C 236.382812 182.234375 231.421875 180.808594 229.496094 179.070312 C 233.34375 175.847656 239.296875 176.589844 247.304688 181.429688 C 247.304688 180.25 246 177.085938 243.457031 172 C 241.65625 168.527344 242.152344 165.921875 244.945312 164.183594 C 244.820312 164.0625 246.371094 165.363281 249.660156 168.03125 C 251.582031 169.582031 252.574219 171.503906 252.574219 173.796875 C 252.699219 174.292969 252.203125 174.480469 251.085938 174.355469 C 250.15625 174.355469 249.847656 174.730469 250.21875 175.472656 C 251.890625 179.195312 256.296875 181.800781 263.496094 183.289062 C 272.796875 185.085938 278.320312 186.511719 279.996094 187.445312 C 278.691406 185.644531 275.777344 184.03125 271.3125 182.542969 C 266.597656 180.992188 263.558594 179.441406 262.191406 178.015625 C 261.695312 174.851562 259.773438 171.9375 256.359375 169.269531 C 252.390625 166.230469 249.96875 163.9375 249.101562 162.386719 C 250.839844 162.261719 252.574219 162.632812 254.375 163.441406 C 256.296875 164.433594 257.910156 164.929688 259.089844 164.929688 C 260.082031 164.929688 263.183594 164 268.394531 162.199219 C 271.683594 160.960938 274.164062 161.644531 275.839844 164.183594 C 275.839844 161.269531 274.164062 159.160156 270.753906 157.859375 C 266.535156 156.121094 263.988281 154.695312 263.308594 153.457031 C 264.859375 151.40625 266.90625 150.976562 269.449219 152.214844 C 269.820312 152.460938 270.875 153.082031 272.550781 154.199219 C 273.914062 155.066406 274.972656 155.5625 275.839844 155.8125 C 277.265625 156.308594 279.25 156.621094 281.671875 156.742188 C 284.585938 156.867188 286.386719 156.988281 287.128906 157.113281 C 283.59375 153.578125 281.671875 150.601562 281.296875 148.183594 C 283.222656 147.75 285.828125 148.617188 289.113281 150.914062 C 292.402344 153.332031 295.070312 154.199219 297.304688 153.457031 C 293.144531 152.402344 291.597656 150.976562 292.527344 149.300781 C 292.773438 149.300781 297.117188 149.796875 305.429688 150.726562 C 311.015625 151.34375 315.046875 150.476562 317.464844 148.183594 C 301.832031 150.292969 292.464844 147.6875 289.488281 140.367188 C 289.796875 140.242188 290.230469 140.058594 290.726562 139.875 C 291.222656 139.625 291.660156 139.4375 292.03125 139.3125 C 294.574219 141.734375 298.046875 142.660156 302.578125 142.230469 C 306.917969 141.855469 310.332031 140.429688 312.75 138.011719 C 304.875 139.875 298.480469 138.878906 293.644531 135.097656 C 314.984375 131.5 330.863281 123.746094 341.285156 111.839844 C 325.15625 118.535156 316.410156 121.949219 315.109375 122.007812 C 314.238281 125.296875 311.632812 126.910156 307.292969 126.785156 C 300.035156 126.660156 296.0625 126.660156 295.441406 126.785156 Z M 119.320312 255.976562 C 119.816406 256.910156 119.816406 258.769531 119.320312 261.4375 C 118.886719 264.101562 118.886719 265.839844 119.320312 266.644531 C 120.316406 265.46875 120.933594 263.605469 121.183594 261.0625 C 121.433594 258.398438 120.8125 256.660156 119.320312 255.976562 Z M 129.371094 151.097656 C 132.101562 151.097656 135.761719 149.359375 140.226562 145.824219 C 144.882812 142.105469 148.789062 140.058594 152.078125 139.875 C 153.753906 139.75 140.722656 141.980469 112.996094 146.570312 C 115.414062 146.445312 118.328125 147.191406 121.742188 148.742188 C 125.214844 150.355469 127.757812 151.097656 129.371094 151.097656 Z M 109.707031 146.941406 C 110.699219 146.820312 111.753906 146.695312 112.996094 146.570312 C 111.878906 146.570312 110.824219 146.695312 109.707031 146.941406 Z M 109.148438 135.097656 C 107.222656 133.296875 103.128906 132.492188 96.804688 132.738281 C 90.414062 133.113281 86.195312 132.492188 84.273438 130.941406 C 91.902344 139.8125 101.390625 143.34375 112.808594 141.671875 C 107.597656 140.179688 105.179688 139.5625 105.546875 139.6875 C 103.007812 138.695312 101.578125 136.957031 101.332031 134.414062 C 102.449219 133.671875 103.875 133.671875 105.734375 134.414062 C 107.535156 135.21875 108.714844 135.46875 109.148438 135.097656 Z M 106.292969 126.785156 C 113.800781 127.839844 121.742188 126.476562 130.054688 122.566406 C 127.261719 123.683594 123.914062 123.871094 119.878906 123.128906 C 114.667969 122.257812 111.691406 121.949219 111.007812 122.007812 C 110.015625 122.007812 108.589844 122.382812 106.605469 123.128906 C 104.929688 123.871094 103.441406 124.117188 102.074219 123.871094 C 102.324219 123.871094 98.476562 121.265625 90.660156 116.054688 C 85.574219 112.644531 80.796875 113.078125 76.457031 117.296875 C 80.921875 115.867188 86.070312 116.800781 91.902344 120.027344 C 99.285156 124.179688 104.0625 126.414062 106.292969 126.785156 Z M 106.292969 126.785156 " fill-opacity="1" fill-rule="nonzero"/></g></svg>