<svg xmlns="http://www.w3.org/2000/svg" xmlns:xlink="http://www.w3.org/1999/xlink" width="500" zoomAndPan="magnify" viewBox="0 0 375 374.999991" height="500" preserveAspectRatio="xMidYMid meet" version="1.0"><defs><clipPath id="9e191de1f0"><path d="M 37.5 42.621094 L 329.25 42.621094 L 329.25 337.371094 L 37.5 337.371094 Z M 37.5 42.621094 " clip-rule="nonzero"/></clipPath></defs><g clip-path="url(#9e191de1f0)"><path fill="#ffffff" d="M 252.59375 42.820312 C 250.214844 43.332031 246.746094 45.027344 243.246094 47.398438 C 238.542969 50.582031 234.003906 55.160156 231.414062 59.34375 C 230.816406 60.296875 230.488281 60.894531 228.800781 64.054688 C 228.367188 64.867188 227.34375 66.601562 226.535156 67.910156 C 223.25 73.195312 221.640625 76.5 219.683594 81.9375 C 218.953125 83.960938 218.605469 84.539062 217.667969 85.300781 C 216.273438 86.4375 214.75 86.398438 211.847656 85.175781 C 210.921875 84.78125 210.671875 84.636719 210.710938 84.511719 C 211.125 83.101562 211.867188 80.058594 212.128906 78.628906 C 212.609375 76 212.746094 72.816406 212.457031 70.429688 C 212.3125 69.214844 211.933594 67.816406 211.742188 67.75 C 211.683594 67.730469 211.636719 67.730469 211.628906 67.75 C 211.628906 67.757812 211.589844 69.117188 211.539062 70.765625 C 211.414062 75.015625 211.019531 77.425781 209.507812 82.929688 L 209.207031 84 L 208.273438 83.574219 C 206.019531 82.523438 201.96875 80.308594 201.410156 79.816406 C 201.277344 79.691406 201.277344 79.585938 201.382812 78.851562 C 201.75 76.394531 201.855469 74.609375 201.855469 70.957031 C 201.855469 67.449219 201.84375 67.246094 201.613281 66.0625 C 201.480469 65.386719 201.34375 64.835938 201.304688 64.835938 C 201.257812 64.835938 201.226562 64.894531 201.226562 64.953125 C 201.21875 65.019531 201.160156 65.425781 201.082031 65.847656 C 200.996094 66.273438 200.890625 67.382812 200.84375 68.308594 C 200.648438 71.671875 200.324219 74.753906 199.871094 77.417969 C 199.761719 78.050781 199.65625 78.582031 199.636719 78.601562 C 199.628906 78.621094 198.75 78.015625 197.699219 77.261719 C 194.367188 74.871094 193.527344 74.378906 192.746094 74.378906 C 191.964844 74.378906 191.398438 74.9375 191.398438 75.71875 C 191.398438 76.5 192.507812 78.3125 194.261719 80.394531 C 195.820312 82.253906 195.800781 82.234375 195.621094 82.160156 C 195.53125 82.128906 194.703125 81.886719 193.789062 81.617188 C 189.414062 80.367188 185.132812 79.515625 181.039062 79.101562 C 179.929688 78.988281 178.878906 78.871094 178.707031 78.851562 C 178.425781 78.8125 178.386719 78.757812 178.183594 78.160156 C 177.375 75.652344 175.804688 71.921875 175.015625 70.574219 C 174.707031 70.042969 174.417969 69.53125 174.378906 69.433594 C 174.347656 69.347656 174.261719 69.269531 174.203125 69.269531 C 174.042969 69.269531 174.339844 70.359375 175.351562 73.414062 C 176.074219 75.613281 176.941406 78.4375 176.941406 78.621094 C 176.941406 78.660156 176.410156 78.71875 175.765625 78.746094 C 174.332031 78.824219 173.914062 78.929688 173.5 79.34375 C 173.222656 79.625 173.183594 79.730469 173.183594 80.152344 C 173.183594 81.058594 173.597656 81.347656 176.355469 82.390625 C 177.714844 82.902344 178.097656 83.121094 178.097656 83.371094 C 178.097656 83.410156 177.386719 83.421875 176.488281 83.382812 C 175.417969 83.34375 174.222656 83.363281 172.992188 83.449219 C 169.773438 83.679688 170.136719 83.738281 167.875 82.601562 C 163.410156 80.375 157.792969 76.742188 153.621094 73.378906 C 149.753906 70.265625 142.226562 63.285156 137.71875 58.609375 C 136.792969 57.65625 135.425781 56.238281 134.683594 55.476562 C 133.179688 53.925781 132.6875 53.597656 132.023438 53.683594 C 131.484375 53.753906 131.175781 53.992188 130.953125 54.503906 C 130.613281 55.246094 130.578125 55.121094 133.332031 61.847656 C 134.902344 65.683594 136.023438 68.722656 137.515625 73.203125 C 139.972656 80.558594 141.332031 85.53125 142.527344 91.632812 C 143.453125 96.367188 143.855469 99.304688 144.078125 103.007812 C 144.136719 103.933594 144.289062 106.121094 144.425781 107.867188 C 144.617188 110.527344 144.695312 111.09375 144.859375 111.46875 L 145.0625 111.90625 L 145.332031 111.480469 C 145.609375 111.046875 145.910156 109.785156 146.207031 107.777344 C 146.402344 106.515625 146.371094 101.859375 146.160156 99.875 C 145.042969 89.253906 141.398438 75.738281 135.933594 61.945312 C 135.425781 60.644531 134.972656 59.515625 134.941406 59.4375 C 134.914062 59.363281 135.625 60.054688 136.53125 60.992188 C 140.4375 64.992188 148.058594 72.007812 151.644531 74.910156 C 154.265625 77.03125 157.339844 79.132812 160.203125 80.78125 C 161.851562 81.726562 164.730469 83.210938 165.859375 83.679688 C 166.207031 83.824219 166.640625 84.007812 166.824219 84.097656 L 167.160156 84.230469 L 166.339844 84.472656 C 163.738281 85.222656 162.6875 86.699219 163.84375 88.019531 C 164.5 88.761719 165.550781 89.03125 170.097656 89.609375 C 174.570312 90.179688 174.832031 90.207031 174.792969 90.253906 C 174.765625 90.273438 174.089844 90.4375 173.28125 90.621094 C 169.714844 91.421875 166.15625 92.625 163.625 93.910156 C 163.265625 94.089844 162.929688 94.234375 162.890625 94.234375 C 162.84375 94.234375 162.773438 94.015625 162.738281 93.746094 C 162.582031 92.585938 161.636719 90.371094 160.539062 88.605469 C 159.480469 86.902344 158.140625 85.253906 156.328125 83.429688 C 154.34375 81.445312 152.066406 79.410156 151.402344 79.035156 C 151.160156 78.902344 150.824219 78.6875 150.640625 78.5625 C 150.457031 78.4375 150.277344 78.359375 150.238281 78.390625 C 150.074219 78.484375 151.210938 79.980469 152.828125 81.792969 C 154.660156 83.855469 155.625 85.019531 157.851562 87.875 C 159.644531 90.167969 160.839844 91.941406 161.617188 93.464844 L 162.207031 94.621094 L 161.40625 95.015625 C 160.964844 95.238281 160.085938 95.710938 159.449219 96.066406 C 155.035156 98.542969 152.734375 100.261719 152.464844 101.273438 C 152.320312 101.800781 152.40625 102.246094 152.722656 102.621094 C 153.128906 103.113281 153.476562 103.238281 154.371094 103.238281 C 154.804688 103.238281 155.160156 103.25 155.160156 103.269531 C 155.160156 103.277344 154.890625 103.46875 154.574219 103.691406 C 153.734375 104.261719 152.625 105.339844 151.972656 106.207031 C 151.671875 106.613281 151.105469 107.585938 150.71875 108.367188 C 150.113281 109.601562 149.929688 109.890625 149.300781 110.546875 C 148.820312 111.054688 148.339844 111.433594 147.796875 111.742188 C 146.496094 112.492188 144.234375 113.957031 142.265625 115.324219 C 141.234375 116.03125 140.386719 116.597656 140.378906 116.578125 C 140.367188 116.570312 140.097656 115.769531 139.800781 114.816406 C 137.121094 106.457031 133.023438 97.6875 129.0625 91.875 C 127.839844 90.0625 126.132812 87.777344 125.007812 86.429688 C 123.078125 84.113281 119.695312 80.839844 116.5625 78.234375 C 113.363281 75.574219 108.757812 72.125 106.957031 71.042969 C 106.359375 70.6875 105.65625 70.253906 105.382812 70.070312 C 104.835938 69.703125 104.671875 69.8125 105.152344 70.207031 C 105.335938 70.359375 105.953125 70.917969 106.539062 71.449219 C 107.121094 71.988281 108.34375 73.03125 109.238281 73.761719 C 113.59375 77.300781 115.984375 79.421875 118.972656 82.417969 C 122.203125 85.667969 123.792969 87.535156 126.335938 91.101562 C 128.949219 94.765625 130.527344 97.425781 132.890625 102.140625 C 134.605469 105.582031 135.636719 107.867188 137.015625 111.34375 C 137.988281 113.792969 139.316406 117.445312 139.25 117.503906 C 139.230469 117.515625 138.933594 117.746094 138.585938 118.003906 C 138.238281 118.265625 137.457031 118.882812 136.851562 119.382812 L 135.75 120.289062 L 135.578125 120.058594 C 135.492188 119.933594 134.953125 119.152344 134.382812 118.332031 C 129.390625 111.085938 124.253906 105.695312 115.261719 98.292969 C 112.796875 96.261719 111.359375 95.152344 110.300781 94.476562 C 109.796875 94.160156 109.152344 93.726562 108.855469 93.523438 C 108.554688 93.320312 108.296875 93.175781 108.265625 93.203125 C 108.167969 93.292969 110.628906 95.835938 112.035156 97.109375 C 116.832031 101.457031 121.507812 106.109375 124.9375 109.984375 C 126.203125 111.402344 129.34375 115.179688 130.652344 116.839844 C 131.78125 118.277344 134.027344 121.339844 134.105469 121.542969 C 134.132812 121.601562 133.601562 122.226562 132.929688 122.910156 C 130.152344 125.734375 128.425781 128.175781 127.269531 130.902344 C 126.433594 132.851562 126.066406 134.535156 125.621094 138.382812 C 125.101562 142.863281 124.824219 143.617188 121.855469 148.417969 C 119.347656 152.476562 118.375 155.066406 118.046875 158.480469 C 117.882812 160.222656 118.007812 161.707031 118.683594 166.527344 C 119.300781 170.921875 119.347656 171.628906 119.300781 176.117188 C 119.242188 182.289062 119.261719 184.503906 119.398438 185.660156 C 119.464844 186.238281 119.53125 186.808594 119.5625 186.914062 C 119.609375 187.109375 119.570312 187.109375 114.808594 187.078125 C 106.339844 187.019531 99.378906 187.492188 90.839844 188.707031 C 77.511719 190.597656 68.097656 193.257812 56.957031 198.296875 C 52.675781 200.234375 44.148438 204.632812 40.667969 206.695312 C 39.6875 207.273438 38.617188 207.898438 38.289062 208.082031 C 37.730469 208.378906 37.546875 208.554688 37.777344 208.554688 C 37.828125 208.554688 38.25 208.390625 38.714844 208.179688 C 39.175781 207.976562 40.167969 207.582031 40.910156 207.300781 C 41.652344 207.023438 43.800781 206.058594 45.679688 205.152344 C 59.984375 198.316406 68.523438 195.242188 80.433594 192.613281 C 89.445312 190.625 100.835938 189.121094 110.828125 188.601562 C 113.796875 188.449219 119.726562 188.304688 119.800781 188.378906 C 119.839844 188.429688 119.976562 188.832031 120.109375 189.304688 L 120.351562 190.144531 L 120.140625 190.191406 C 120.035156 190.210938 119.242188 190.347656 118.394531 190.480469 C 112.835938 191.398438 103.929688 193.421875 97.144531 195.308594 C 76.164062 201.160156 63.683594 207.128906 49.441406 218.097656 C 48.351562 218.933594 47.144531 219.898438 46.769531 220.238281 C 46.382812 220.5625 45.605469 221.25 45.035156 221.75 C 44.457031 222.25 43.976562 222.695312 43.964844 222.742188 C 43.898438 222.90625 44.128906 222.808594 44.726562 222.425781 C 45.0625 222.203125 45.777344 221.777344 46.308594 221.488281 C 46.835938 221.199219 48.554688 220.082031 50.113281 219.003906 C 62.75 210.328125 73.542969 204.96875 88.664062 199.859375 C 98.214844 196.640625 109.433594 193.574219 118.761719 191.636719 L 120.757812 191.222656 L 121.285156 192.253906 C 121.574219 192.8125 122.078125 193.679688 122.394531 194.171875 C 122.710938 194.664062 122.972656 195.097656 122.972656 195.136719 C 122.972656 195.175781 122.375 195.347656 121.644531 195.53125 C 118.335938 196.339844 113.777344 197.671875 109.769531 199.011719 C 94.976562 203.925781 84.964844 209.296875 76.097656 217.066406 C 72.578125 220.160156 64.964844 228.015625 62.652344 230.945312 C 62.304688 231.398438 61.71875 232.140625 61.339844 232.613281 C 60.976562 233.085938 60.65625 233.5 60.636719 233.539062 C 60.5625 233.722656 60.898438 233.597656 61.109375 233.363281 C 61.234375 233.21875 61.792969 232.738281 62.355469 232.296875 C 62.914062 231.84375 64.964844 229.925781 66.929688 228.035156 C 71.691406 223.445312 72.53125 222.664062 75.21875 220.351562 C 78.582031 217.460938 81.203125 215.464844 84.617188 213.191406 C 91.207031 208.796875 98.109375 205.375 107.792969 201.699219 C 112.273438 200.003906 119.050781 197.738281 123.425781 196.46875 L 123.925781 196.324219 L 124.503906 196.976562 L 125.09375 197.644531 L 123.425781 198.53125 C 119.359375 200.71875 114.269531 204.035156 110.492188 206.953125 C 103.910156 212.042969 98.523438 217.605469 91.535156 226.53125 C 90.273438 228.140625 88.21875 231.175781 88.328125 231.28125 C 88.421875 231.378906 90.792969 228.960938 92.789062 226.722656 C 97.394531 221.566406 102.136719 216.691406 105.382812 213.769531 C 111.1875 208.542969 118.066406 203.425781 124.359375 199.675781 L 126.09375 198.644531 L 126.867188 199.328125 C 127.917969 200.265625 128.832031 200.96875 131.839844 203.15625 C 135.078125 205.507812 137.015625 207.050781 137.410156 207.601562 C 137.476562 207.695312 137.574219 208.304688 137.621094 208.988281 C 137.796875 211.214844 138.335938 213.160156 139.40625 215.351562 C 141.449219 219.542969 144.742188 222.828125 149.214844 225.132812 L 150.632812 225.867188 L 148.878906 227.601562 C 145.773438 230.65625 142.757812 232.980469 139.078125 235.175781 C 137.148438 236.324219 135.28125 237.269531 131.019531 239.253906 C 125.507812 241.816406 123.6875 242.78125 121.238281 244.449219 C 118.859375 246.058594 116.121094 248.574219 115.511719 249.703125 C 115.023438 250.617188 115.175781 251.484375 115.910156 251.949219 C 116.707031 252.441406 118.027344 252.171875 120.988281 250.90625 C 121.789062 250.570312 122.441406 250.308594 122.453125 250.320312 C 122.460938 250.328125 121.921875 250.78125 121.246094 251.3125 C 118.570312 253.460938 116.054688 255.765625 114.171875 257.78125 C 112.816406 259.246094 112.226562 260.027344 112.074219 260.613281 C 111.929688 261.144531 112.003906 261.480469 112.363281 261.878906 C 112.582031 262.128906 112.707031 262.183594 113.171875 262.222656 C 113.875 262.28125 114.550781 261.972656 116.1875 260.84375 C 116.84375 260.394531 117.382812 260.035156 117.382812 260.054688 C 117.382812 260.085938 117.160156 260.566406 116.890625 261.144531 C 115.753906 263.5625 113.132812 270.109375 112.621094 271.804688 C 111.804688 274.523438 112.054688 276.015625 113.402344 276.414062 C 114.144531 276.632812 114.964844 276.296875 116.46875 275.167969 C 116.890625 274.851562 117.25 274.609375 117.265625 274.628906 C 117.324219 274.675781 116.929688 277.136719 116.652344 278.484375 C 115.214844 285.425781 111.8125 292.894531 106.695312 300.328125 C 104.804688 303.0625 103.207031 305.136719 99.832031 309.234375 C 97.136719 312.511719 93.878906 317.128906 93.539062 318.140625 C 93.453125 318.417969 93.394531 318.667969 93.414062 318.699219 C 93.445312 318.71875 93.683594 318.621094 93.964844 318.46875 C 94.300781 318.285156 94.9375 317.695312 96.015625 316.558594 C 103.003906 309.222656 108.546875 301.886719 112.554688 294.679688 C 112.871094 294.089844 113.144531 293.648438 113.144531 293.675781 C 113.144531 293.703125 112.929688 294.515625 112.671875 295.460938 C 111.609375 299.363281 111.589844 300.433594 112.59375 300.925781 C 113.441406 301.347656 114.171875 300.875 116.21875 298.59375 C 116.988281 297.734375 117.644531 297.039062 117.691406 297.039062 C 117.828125 297.039062 117.777344 298.863281 117.574219 301.359375 C 117.199219 306.089844 117.113281 309.128906 117.285156 310.929688 C 117.46875 312.683594 118.046875 314.871094 118.335938 314.871094 C 118.480469 314.871094 118.53125 314.246094 118.578125 311.449219 C 118.625 308.710938 118.742188 307.410156 119.457031 301.761719 C 120.035156 297.183594 119.964844 295.75 119.117188 294.976562 C 118.136719 294.089844 117.066406 294.554688 115.15625 296.703125 C 114.609375 297.320312 114.144531 297.761719 114.125 297.695312 C 114.117188 297.628906 114.464844 296.09375 114.914062 294.292969 C 115.359375 292.492188 115.996094 289.753906 116.324219 288.21875 C 116.96875 285.183594 117.265625 283.929688 117.855469 281.847656 C 118.617188 279.128906 119.183594 276.105469 119.273438 274.386719 C 119.320312 273.464844 119.308594 273.335938 119.097656 272.941406 C 118.808594 272.382812 118.367188 272.140625 117.777344 272.210938 C 117.265625 272.277344 116.988281 272.441406 115.476562 273.589844 C 114.828125 274.078125 114.230469 274.484375 114.144531 274.484375 C 113.972656 274.484375 114.011719 274.15625 114.367188 272.894531 C 114.789062 271.363281 117.519531 264.632812 118.992188 261.472656 C 119.800781 259.746094 119.925781 259.417969 119.964844 258.859375 C 120.003906 258.292969 119.984375 258.203125 119.746094 257.925781 C 119.214844 257.289062 118.367188 257.289062 117.132812 257.914062 L 116.371094 258.300781 L 117.429688 257.230469 C 118.78125 255.863281 120.804688 254.011719 122.585938 252.507812 C 125.816406 249.78125 126.382812 249.277344 126.644531 248.855469 C 127.089844 248.171875 126.980469 247.523438 126.375 247.214844 C 125.84375 246.945312 125.179688 247.140625 121.101562 248.691406 C 120.042969 249.097656 119.164062 249.402344 119.148438 249.386719 C 119.070312 249.308594 121.046875 247.824219 122.492188 246.871094 C 124.882812 245.289062 126.78125 244.285156 131.308594 242.195312 C 134.429688 240.75 137.378906 239.273438 138.828125 238.425781 C 144.308594 235.214844 148.828125 231.136719 151.238281 227.234375 L 151.796875 226.328125 L 153.0625 226.753906 C 155.394531 227.523438 158.140625 228.09375 161.28125 228.429688 C 162.785156 228.59375 169.28125 228.59375 171.0625 228.429688 C 171.777344 228.363281 173.394531 228.199219 174.65625 228.0625 C 175.921875 227.929688 176.972656 227.832031 176.980469 227.851562 C 177.578125 228.730469 178.039062 229.875 178.667969 232.023438 C 179.378906 234.503906 179.957031 237.289062 180.277344 239.832031 C 180.515625 241.710938 180.515625 245.53125 180.277344 248.152344 C 180.179688 249.242188 180.132812 250.339844 180.160156 250.617188 C 180.324219 251.871094 181.308594 252.460938 182.289062 251.890625 C 183.0625 251.4375 183.773438 250.300781 185.597656 246.636719 L 186.917969 243.988281 L 186.992188 245.53125 C 187.082031 247.246094 186.945312 251.410156 186.722656 253.855469 C 186.648438 254.734375 186.578125 255.851562 186.578125 256.335938 C 186.578125 257.183594 186.589844 257.242188 186.859375 257.539062 C 187.089844 257.800781 187.207031 257.859375 187.542969 257.859375 C 188.1875 257.859375 188.449219 257.460938 189.335938 255.226562 C 189.742188 254.183594 190.105469 253.296875 190.144531 253.261719 C 190.175781 253.210938 190.28125 253.664062 190.367188 254.253906 C 190.589844 255.613281 191.109375 257.703125 191.601562 259.140625 C 192.179688 260.835938 193.460938 263.351562 194.367188 264.558594 C 195.820312 266.503906 198.53125 269.25 199.859375 270.128906 C 200.4375 270.511719 200.707031 270.628906 200.628906 270.457031 C 200.3125 269.753906 199.800781 268.972656 198.992188 267.960938 C 196.542969 264.914062 195.300781 262.9375 194.078125 260.179688 C 192.902344 257.53125 192.101562 254.464844 191.785156 251.398438 C 191.609375 249.730469 191.339844 249.230469 190.617188 249.230469 C 190.164062 249.230469 189.769531 249.703125 189.289062 250.820312 C 189.066406 251.351562 188.84375 251.871094 188.796875 251.976562 C 188.738281 252.09375 188.738281 251.851562 188.777344 251.351562 C 188.882812 250.019531 188.84375 243.792969 188.71875 242.578125 C 188.574219 241.230469 188.476562 240.835938 188.160156 240.46875 C 187.679688 239.898438 186.867188 239.996094 186.40625 240.679688 C 186.25 240.902344 185.835938 241.730469 185.472656 242.53125 C 184.640625 244.363281 182.714844 248.199219 182.65625 248.132812 C 182.628906 248.113281 182.667969 247.601562 182.734375 246.996094 C 182.90625 245.441406 182.886719 241.855469 182.6875 240.324219 C 182.03125 235.273438 180.160156 230 178.386719 228.226562 C 177.933594 227.773438 177.914062 227.734375 178.117188 227.6875 C 178.398438 227.628906 182.300781 227.214844 184.554688 227.003906 C 186.878906 226.792969 191.53125 226.714844 192.996094 226.867188 C 196.6875 227.246094 199.976562 228.238281 202.257812 229.683594 C 202.820312 230.039062 203.742188 230.9375 204.089844 231.457031 C 204.542969 232.160156 204.496094 231.042969 204.023438 230.078125 C 202.875 227.746094 198.683594 225.617188 193.691406 224.824219 C 192.449219 224.632812 191.964844 224.613281 188.746094 224.601562 C 184.679688 224.601562 184.035156 224.652344 174.628906 225.558594 C 170.679688 225.941406 168.742188 226.03125 165.394531 225.972656 C 162.1875 225.921875 160.800781 225.796875 158.390625 225.363281 C 153.648438 224.515625 149.523438 222.761719 146.554688 220.332031 C 145.609375 219.550781 143.945312 217.816406 143.289062 216.941406 C 141.648438 214.714844 140.582031 212.273438 140.164062 209.828125 C 139.953125 208.59375 140.019531 206.597656 140.308594 205.585938 C 141.535156 201.34375 145.542969 200.582031 152.03125 203.347656 C 152.558594 203.570312 154.140625 204.332031 155.546875 205.035156 C 158.621094 206.578125 160.203125 207.234375 160.644531 207.148438 C 161 207.070312 161.039062 206.828125 160.761719 206.375 C 160.578125 206.066406 159.171875 204.746094 158.4375 204.1875 C 155.941406 202.289062 151.433594 200.226562 148.394531 199.582031 C 147.289062 199.347656 147.144531 199.28125 146.410156 198.585938 C 145.195312 197.441406 143.800781 195.589844 142.488281 193.371094 C 142.046875 192.628906 141.554688 191.886719 141.378906 191.714844 C 140.617188 190.945312 139.65625 191.144531 139.222656 192.175781 C 139.144531 192.359375 139.007812 193.296875 138.921875 194.25 C 138.835938 195.195312 138.664062 196.792969 138.527344 197.808594 C 138.074219 201.324219 137.921875 202.730469 137.804688 204.167969 C 137.746094 204.957031 137.6875 205.625 137.679688 205.632812 C 137.667969 205.644531 137.507812 205.449219 137.324219 205.199219 C 136.417969 203.996094 134.789062 202.492188 132.070312 200.359375 C 131.230469 199.707031 130.066406 198.78125 129.488281 198.296875 C 128.523438 197.5 128.457031 197.421875 128.621094 197.304688 C 128.988281 197.035156 132.117188 195.550781 133.140625 195.164062 C 135.839844 194.132812 136.332031 193.902344 135.78125 193.902344 C 135.375 193.902344 133.1875 194.386719 132.109375 194.710938 C 131.175781 195 129.226562 195.742188 127.878906 196.339844 L 127.53125 196.496094 L 127.078125 196.035156 L 126.617188 195.5625 L 128.628906 195.070312 C 129.730469 194.800781 131.375 194.421875 132.273438 194.242188 C 135.65625 193.535156 136.417969 193.335938 136.253906 193.179688 C 136.078125 193.007812 130.007812 193.757812 127.261719 194.296875 L 125.816406 194.578125 L 125.507812 194.230469 C 124.871094 193.507812 123.261719 190.886719 123.378906 190.761719 C 123.453125 190.683594 126.816406 190.144531 128.753906 189.902344 C 131.492188 189.554688 133.863281 189.171875 133.863281 189.074219 C 133.863281 188.8125 127.847656 189.160156 124.246094 189.625 C 123.589844 189.710938 123.011719 189.757812 122.945312 189.730469 C 122.808594 189.679688 122.335938 188.429688 122.421875 188.351562 C 122.453125 188.320312 124.070312 188.273438 126.007812 188.265625 C 127.957031 188.246094 129.574219 188.195312 129.601562 188.167969 C 129.730469 188.050781 129.371094 187.945312 128.378906 187.792969 C 126.671875 187.542969 123.53125 187.253906 122.421875 187.253906 C 122.132812 187.253906 122.113281 187.234375 122.019531 186.742188 C 121.699219 185.121094 121.679688 184.640625 121.671875 178.144531 C 121.671875 173.621094 121.625 171.230469 121.546875 170.433594 C 121.402344 169.0625 121.027344 166.09375 120.746094 164.070312 C 120.628906 163.191406 120.523438 161.835938 120.496094 160.601562 C 120.449219 158.835938 120.46875 158.421875 120.640625 157.410156 C 121.035156 155.097656 121.921875 152.929688 123.570312 150.238281 C 124.070312 149.417969 124.804688 148.222656 125.1875 147.585938 C 126.519531 145.417969 127.25 143.75 127.675781 141.902344 C 127.792969 141.417969 128.011719 140.058594 128.175781 138.863281 C 128.8125 134.179688 129.101562 133.050781 130.296875 130.671875 C 131.308594 128.648438 132.445312 127.113281 134.652344 124.800781 C 135.460938 123.953125 135.625 123.816406 135.734375 123.933594 C 135.945312 124.164062 137.035156 125.957031 138.71875 128.859375 C 140.945312 132.675781 141.46875 133.339844 141.324219 132.183594 C 141.160156 130.75 139.511719 126.796875 137.871094 123.886719 C 137.46875 123.171875 137.140625 122.554688 137.140625 122.496094 C 137.140625 122.363281 139.855469 120.070312 140.03125 120.070312 C 140.214844 120.070312 141.496094 125.070312 142.140625 128.308594 C 142.75 131.375 142.882812 131.925781 143.027344 131.925781 C 143.230469 131.925781 142.855469 128.183594 142.335938 125.082031 C 142.074219 123.480469 141.4375 120.445312 141.1875 119.597656 C 141.140625 119.414062 141.121094 119.230469 141.148438 119.191406 C 141.332031 118.894531 145.648438 115.933594 148.464844 114.1875 C 150.855469 112.695312 151.652344 112.15625 152.703125 111.296875 C 153.503906 110.640625 153.582031 110.554688 153.667969 110.226562 C 153.714844 110.015625 153.6875 109.957031 153.4375 109.851562 C 153.261719 109.785156 153.003906 109.753906 152.800781 109.792969 C 152.617188 109.832031 152.464844 109.832031 152.464844 109.804688 C 152.464844 109.765625 152.683594 109.320312 152.945312 108.808594 C 153.839844 107.074219 154.890625 106.042969 157.167969 104.636719 C 160.289062 102.707031 160.65625 102.390625 160.65625 101.609375 C 160.65625 101.3125 160.585938 101.136719 160.414062 100.945312 C 159.941406 100.433594 159.480469 100.394531 157.492188 100.695312 C 156.78125 100.800781 156.171875 100.886719 156.144531 100.886719 C 156.039062 100.886719 157.292969 100.066406 158.515625 99.324219 C 164.269531 95.847656 168.171875 94.128906 173.136719 92.878906 C 174.851562 92.441406 178.917969 91.632812 179.351562 91.632812 C 179.496094 91.632812 179.554688 91.894531 179.765625 93.484375 C 181.027344 102.691406 181.113281 110.101562 180.066406 119.828125 C 179.746094 122.804688 179.542969 124.347656 178.859375 128.851562 C 178.3125 132.550781 178.195312 133.660156 178.378906 133.660156 C 178.878906 133.660156 180.066406 129.226562 180.933594 124.117188 C 182.792969 113.167969 182.964844 103.191406 181.460938 92.90625 C 181.367188 92.203125 181.277344 91.546875 181.277344 91.460938 C 181.277344 91.363281 181.441406 91.21875 181.65625 91.121094 C 182.15625 90.890625 182.398438 90.410156 182.242188 89.957031 C 182.109375 89.53125 181.90625 89.367188 181.335938 89.203125 L 180.855469 89.078125 L 180.566406 87.507812 C 180.410156 86.648438 180.304688 85.925781 180.335938 85.898438 C 180.410156 85.820312 182.492188 86.179688 184.074219 86.535156 C 185.480469 86.851562 186.859375 87.21875 188.601562 87.71875 C 190.183594 88.183594 190.203125 88.183594 190.578125 88.027344 C 191.050781 87.828125 191.261719 87.335938 191.070312 86.882812 C 191.003906 86.707031 190.839844 86.496094 190.714844 86.410156 C 190.40625 86.214844 185.980469 84.242188 182.195312 82.613281 C 180.554688 81.90625 179.195312 81.289062 179.179688 81.234375 C 179.160156 81.183594 179.304688 81.164062 179.515625 81.183594 C 184.785156 81.753906 187.28125 82.179688 191.542969 83.238281 C 193.808594 83.796875 195.648438 84.347656 197.160156 84.894531 C 198.007812 85.203125 198.242188 85.328125 198.242188 85.472656 C 198.242188 86.0625 196.667969 92.296875 195.492188 96.40625 C 192.4375 107.035156 189.085938 115.867188 186.019531 121.320312 C 184.988281 123.164062 184.351562 124.484375 184.460938 124.550781 C 184.566406 124.617188 185.722656 123.308594 186.394531 122.332031 C 189.269531 118.226562 192.417969 111.035156 195.878906 100.644531 C 197.46875 95.894531 198.695312 91.683594 199.589844 87.894531 C 199.851562 86.8125 200.070312 85.917969 200.089844 85.90625 C 200.109375 85.898438 200.234375 85.8125 200.378906 85.726562 C 200.515625 85.636719 200.6875 85.417969 200.746094 85.222656 C 200.84375 84.925781 200.832031 84.828125 200.660156 84.472656 C 200.46875 84.078125 200.46875 84.058594 200.621094 83.226562 C 200.707031 82.757812 200.8125 82.378906 200.84375 82.378906 C 200.882812 82.378906 201.46875 82.707031 202.152344 83.113281 C 203.367188 83.824219 206.894531 85.597656 208.003906 86.042969 C 208.300781 86.167969 208.550781 86.304688 208.550781 86.339844 C 208.550781 86.515625 207.425781 90.226562 206.828125 92.019531 C 205.035156 97.386719 202.945312 102.332031 199.859375 108.5 C 196.226562 115.769531 193.160156 120.800781 188.941406 126.429688 C 187.753906 128.011719 186.484375 129.910156 186.484375 130.101562 C 186.484375 130.304688 186.742188 130.152344 187.484375 129.496094 C 191.15625 126.265625 196.363281 118.226562 201.644531 107.683594 C 205.007812 100.945312 207.570312 94.726562 209.46875 88.695312 C 209.765625 87.738281 210.027344 86.949219 210.035156 86.929688 C 210.054688 86.921875 210.46875 87.066406 210.972656 87.246094 C 212.550781 87.855469 213.582031 88.085938 214.769531 88.097656 C 215.703125 88.105469 216.234375 88.027344 216.8125 87.808594 C 217.128906 87.679688 216.203125 88.742188 214.046875 90.976562 C 212.148438 92.933594 211.636719 93.53125 211.636719 93.820312 C 211.636719 93.851562 211.886719 93.851562 212.207031 93.832031 C 213.015625 93.773438 214.902344 92.839844 215.878906 92 C 218.21875 89.996094 219.433594 88 221.515625 82.765625 C 223.472656 77.851562 225.195312 74.378906 227.441406 70.863281 C 227.847656 70.226562 228.636719 68.992188 229.195312 68.113281 C 229.753906 67.238281 230.757812 65.53125 231.433594 64.328125 C 233.023438 61.453125 233.542969 60.625 234.726562 59.054688 C 236.355469 56.90625 238.71875 54.445312 241.070312 52.453125 C 245.300781 48.875 251.042969 45.789062 253.847656 45.589844 C 255.285156 45.492188 256.488281 46.148438 258.378906 48.054688 C 260.988281 50.675781 264.488281 56.027344 267.246094 61.609375 C 269.855469 66.890625 270.464844 68.972656 271.53125 76.308594 C 272.3125 81.714844 272.679688 83.679688 273.769531 88.375 L 274.40625 91.140625 L 274.066406 91.519531 C 273.441406 92.210938 273.035156 93.589844 271.628906 99.769531 C 270.550781 104.519531 269.796875 106.851562 267.117188 113.804688 C 265.085938 119.074219 264.410156 121.773438 264.410156 124.597656 C 264.421875 126.316406 264.535156 126.941406 265.074219 128.308594 C 265.21875 128.667969 265.316406 128.964844 265.296875 128.984375 C 265.25 129.03125 262.058594 128.386719 259.871094 127.886719 C 257.636719 127.367188 253.695312 126.332031 251.902344 125.792969 C 251.777344 125.753906 251.84375 125.609375 252.277344 125.003906 C 252.578125 124.597656 253 123.867188 253.230469 123.394531 C 253.945312 121.878906 255.140625 117.753906 254.910156 117.609375 C 254.78125 117.535156 254.136719 118.621094 253.570312 119.855469 C 253.25 120.53125 252.519531 122.0625 251.929688 123.277344 C 250.871094 125.4375 250.851562 125.464844 250.589844 125.410156 C 250.445312 125.371094 248.527344 124.78125 246.332031 124.097656 C 239.199219 121.871094 238.1875 121.609375 234.988281 121.128906 C 233.050781 120.828125 231.972656 120.761719 231.972656 120.9375 C 231.972656 121.121094 233.097656 121.601562 235.304688 122.363281 C 236.519531 122.785156 239.101562 123.742188 241.039062 124.484375 C 245.347656 126.140625 247.074219 126.769531 249.964844 127.722656 C 256.199219 129.765625 263.003906 131.402344 267.824219 132.03125 C 270.753906 132.40625 274.597656 132.445312 277.113281 132.117188 C 277.535156 132.070312 277.894531 132.039062 277.914062 132.058594 C 277.980469 132.125 276.179688 134.035156 275.175781 134.96875 C 272.121094 137.804688 269.507812 139.945312 266.328125 142.238281 C 263.871094 144.003906 263.417969 144.523438 263.515625 145.398438 C 263.601562 146.199219 264.207031 146.699219 265.066406 146.691406 C 266.058594 146.683594 267.824219 145.957031 272.253906 143.730469 C 273.980469 142.875 275.734375 141.96875 276.160156 141.726562 C 276.582031 141.496094 276.941406 141.324219 276.949219 141.359375 C 276.988281 141.457031 273.230469 148.8125 272.265625 150.527344 C 271.773438 151.40625 270.714844 153.109375 269.921875 154.316406 C 269.125 155.519531 268.390625 156.726562 268.292969 156.996094 C 267.695312 158.558594 268.660156 159.734375 270.375 159.539062 C 272.199219 159.335938 274.367188 158.152344 282.019531 153.1875 L 282.578125 152.832031 L 282.421875 153.199219 C 281.46875 155.480469 277.402344 162.015625 275.214844 164.773438 C 273.847656 166.5 270.261719 170.046875 267.4375 172.476562 C 264.660156 174.867188 263.679688 175.839844 263.339844 176.5625 C 263.042969 177.207031 263.042969 177.546875 263.320312 178.09375 C 263.726562 178.894531 264.605469 179.117188 265.703125 178.691406 C 266.445312 178.402344 268.390625 177.324219 271.589844 175.433594 C 275.128906 173.34375 278.144531 171.589844 278.636719 171.339844 L 279.019531 171.136719 L 278.703125 171.597656 C 276.84375 174.191406 272.640625 178.363281 269.46875 180.746094 C 267.6875 182.09375 265.394531 183.367188 261.625 185.082031 C 260.132812 185.769531 259.707031 186.09375 259.582031 186.664062 C 259.449219 187.28125 259.902344 187.976562 260.585938 188.207031 C 261.375 188.464844 263.515625 188.304688 266.839844 187.722656 C 268.960938 187.347656 270.847656 187.070312 270.886719 187.109375 C 270.945312 187.15625 267.195312 189.941406 266.058594 190.710938 C 263.832031 192.195312 261.125 193.816406 257.847656 195.609375 C 256.738281 196.226562 255.324219 197.027344 254.695312 197.390625 L 253.578125 198.058594 L 251.660156 197.34375 C 233.667969 190.558594 214.113281 186.289062 193.566406 184.648438 C 181.25 183.675781 168.671875 183.886719 162.246094 185.1875 C 160.914062 185.449219 159.402344 185.894531 159.402344 186.019531 C 159.402344 186.132812 160.636719 186.113281 162.246094 185.949219 C 167.304688 185.460938 177 185.390625 184.410156 185.804688 C 195.378906 186.421875 207.78125 187.996094 218.238281 190.09375 C 226.535156 191.753906 235.105469 194.007812 243.09375 196.632812 C 246.871094 197.875 251.246094 199.4375 251.21875 199.53125 C 251.207031 199.570312 250.746094 199.878906 250.207031 200.207031 C 249.308594 200.757812 248.199219 201.683594 248.308594 201.789062 C 248.324219 201.816406 248.652344 201.855469 249.019531 201.875 C 249.789062 201.921875 250.398438 201.777344 252.652344 201.015625 L 254.109375 200.523438 L 255.640625 201.132812 C 263.273438 204.167969 269.414062 207.203125 276.738281 211.542969 C 278.585938 212.640625 282.347656 214.597656 282.433594 214.5 C 282.460938 214.472656 282.230469 214.261719 281.921875 214.027344 C 281.613281 213.808594 280.863281 213.21875 280.253906 212.738281 C 278.511719 211.347656 273.34375 207.976562 269.75 205.882812 C 266.222656 203.820312 261.675781 201.5 258.253906 200.015625 L 256.738281 199.359375 L 257.269531 199.058594 C 262.570312 196.1875 266.847656 193.324219 270.964844 189.894531 C 273.363281 187.898438 273.796875 187.359375 273.796875 186.421875 C 273.796875 186.039062 273.75 185.929688 273.429688 185.613281 C 273.210938 185.390625 272.902344 185.199219 272.640625 185.132812 C 272.042969 184.96875 270.105469 185.0625 268.015625 185.371094 C 267.089844 185.507812 266.289062 185.613281 266.230469 185.613281 C 266.183594 185.613281 266.617188 185.351562 267.195312 185.027344 C 269.828125 183.570312 271.839844 182.046875 274.808594 179.261719 C 278.605469 175.714844 281.980469 171.359375 282.230469 169.671875 C 282.335938 169.003906 282.027344 168.40625 281.449219 168.15625 C 280.554688 167.753906 279.996094 168.003906 273.507812 171.703125 C 268.988281 174.289062 269.191406 174.183594 269.894531 173.554688 C 273.5 170.324219 276.109375 167.53125 278.097656 164.773438 C 280.765625 161.074219 284.378906 154.789062 285.082031 152.648438 C 285.371094 151.734375 285.390625 150.933594 285.113281 150.554688 C 284.726562 150.046875 284.425781 149.902344 283.792969 149.910156 C 282.960938 149.921875 282.414062 150.191406 279.378906 152.117188 C 274.964844 154.933594 271.5625 156.898438 271.40625 156.746094 C 271.386719 156.726562 271.765625 156.15625 272.238281 155.472656 C 273.992188 152.957031 275.183594 150.808594 278.027344 145.128906 C 280.070312 141.035156 280.542969 139.894531 280.542969 139.085938 C 280.542969 138.171875 279.886719 137.515625 279 137.515625 C 278.460938 137.515625 278.066406 137.699219 276.535156 138.625 C 274.953125 139.585938 271.628906 141.285156 272.015625 140.9375 C 272.179688 140.792969 272.976562 140.078125 273.796875 139.355469 C 275.523438 137.832031 278.539062 134.863281 279.628906 133.609375 C 281.113281 131.90625 281.429688 131.164062 281.035156 130.351562 C 280.804688 129.882812 280.332031 129.5625 279.714844 129.457031 C 279.503906 129.429688 278.636719 129.476562 277.789062 129.574219 C 276.613281 129.71875 275.582031 129.753906 273.316406 129.746094 C 270.453125 129.746094 269.316406 129.660156 267.089844 129.3125 L 266.40625 129.207031 L 266.230469 128.039062 C 266.019531 126.585938 266.070312 125.246094 266.425781 123.441406 C 267.023438 120.367188 267.640625 118.371094 269.375 113.976562 C 272.035156 107.199219 272.851562 104.625 274.386719 98.304688 C 274.714844 96.914062 275.023438 95.828125 275.058594 95.894531 C 275.089844 95.960938 275.417969 97.148438 275.78125 98.527344 L 276.449219 101.03125 L 276.449219 103.488281 C 276.449219 105.425781 276.410156 106.167969 276.273438 107.007812 C 275.820312 109.746094 275.28125 111.742188 273.941406 115.730469 C 272.941406 118.699219 272.613281 119.546875 271.195312 123.007812 C 270.644531 124.328125 270.085938 125.765625 269.941406 126.199219 C 269.652344 127.058594 269.488281 127.972656 269.625 127.972656 C 270.03125 127.972656 273.34375 121.707031 274.808594 118.1875 C 275.695312 116.058594 276.59375 113.628906 277.121094 111.921875 C 277.585938 110.429688 278.230469 107.847656 278.230469 107.460938 C 278.230469 107.09375 278.375 107.230469 278.617188 107.796875 C 280.621094 112.773438 283.667969 117.175781 288.023438 121.417969 C 291.769531 125.070312 295.058594 127.394531 303.539062 132.386719 C 308.9375 135.558594 310.941406 136.871094 314.46875 139.53125 C 318.1875 142.324219 321.898438 145.449219 322.390625 146.21875 C 322.554688 146.449219 322.523438 146.449219 321.667969 146.046875 C 319.875 145.214844 315.828125 143.800781 310.613281 142.191406 C 306.257812 140.839844 305.351562 140.773438 304.722656 141.71875 C 304.433594 142.160156 304.484375 142.777344 304.878906 143.566406 C 305.070312 143.945312 306.003906 145.390625 306.96875 146.789062 C 308.9375 149.652344 310.167969 151.558594 311.191406 153.324219 C 312.28125 155.222656 313.976562 158.710938 314.726562 160.601562 C 315.460938 162.460938 316.617188 165.757812 316.550781 165.824219 C 316.492188 165.890625 313.222656 161.757812 311.816406 159.839844 C 310.351562 157.835938 309.878906 157.3125 309.4375 157.199219 C 308.722656 157.003906 308.105469 157.46875 308.105469 158.191406 C 308.105469 158.539062 308.195312 158.730469 308.550781 159.269531 C 309.175781 160.1875 310.496094 161.929688 312.15625 164.023438 C 312.925781 165.003906 313.746094 166.046875 313.957031 166.335938 C 314.4375 166.972656 315.527344 168.773438 315.480469 168.824219 C 315.460938 168.851562 314.601562 168.234375 313.582031 167.464844 C 311.34375 165.785156 308.839844 164.078125 308.125 163.753906 C 307.421875 163.433594 306.921875 163.492188 306.496094 163.964844 C 305.871094 164.648438 305.976562 165.292969 307.054688 167.25 C 309.089844 170.960938 309.851562 172.496094 310.746094 174.683594 C 312.066406 177.929688 313.292969 182.132812 313.832031 185.324219 C 314.417969 188.71875 314.554688 190.894531 314.660156 198.722656 C 314.71875 202.25 314.785156 205.410156 314.8125 205.757812 C 314.851562 206.105469 314.851562 206.367188 314.824219 206.335938 C 314.640625 206.164062 310.429688 197.277344 309.734375 195.589844 C 309.3125 194.566406 308.53125 194.296875 307.875 194.953125 C 307.507812 195.328125 307.507812 195.800781 307.894531 196.84375 C 308.972656 199.753906 309.851562 203.878906 310.035156 206.878906 C 310.265625 210.742188 309.667969 214 308.164062 217.179688 C 307.308594 218.992188 304.714844 223.515625 303.480469 225.375 C 303.125 225.90625 302.804688 226.433594 302.769531 226.550781 C 302.585938 227.226562 302.566406 227.175781 302.96875 227.109375 C 303.507812 227.011719 303.960938 226.683594 305.175781 225.480469 L 306.277344 224.402344 L 306.199219 225.085938 C 306.074219 226.320312 306.140625 230.203125 306.3125 231.679688 C 307.394531 240.796875 310.863281 253.261719 314.851562 262.339844 C 317.707031 268.835938 320.480469 273.261719 325.25 278.910156 L 325.695312 279.4375 L 325.058594 279.082031 C 324.703125 278.878906 323.796875 278.484375 323.035156 278.207031 C 322.273438 277.917969 320.828125 277.308594 319.816406 276.847656 C 317.734375 275.890625 316.5 275.449219 315.921875 275.449219 C 315.121094 275.449219 314.5625 275.960938 314.5625 276.671875 C 314.5625 277.808594 315.265625 278.242188 319.410156 279.601562 C 321.820312 280.402344 324 281.28125 324.074219 281.492188 C 324.210938 281.847656 323.140625 283.640625 321.753906 285.367188 C 321.347656 285.867188 320.421875 286.957031 319.679688 287.777344 C 318.351562 289.28125 317.90625 289.753906 314.167969 293.722656 C 311.683594 296.355469 310.640625 297.550781 309.542969 298.988281 C 307.703125 301.433594 307.289062 303.140625 308.050781 305.175781 C 308.367188 306.023438 308.558594 306.371094 309.890625 308.605469 C 312.15625 312.40625 313.667969 315.210938 314.535156 317.222656 L 314.863281 317.984375 L 313.5625 316.730469 C 312.046875 315.257812 311.488281 314.921875 310.699219 314.988281 C 310.101562 315.046875 309.765625 315.285156 309.484375 315.835938 C 309.117188 316.539062 309.167969 316.761719 310.21875 319.789062 C 311.414062 323.25 311.722656 325.023438 311.644531 327.980469 C 311.585938 329.890625 311.210938 334.074219 310.949219 335.625 C 310.699219 337.089844 310.796875 337.371094 311.335938 336.734375 C 312.742188 335.066406 314.121094 329.097656 313.957031 325.378906 C 313.890625 323.902344 313.714844 322.796875 313.261719 320.992188 C 313.089844 320.296875 312.953125 319.730469 312.972656 319.710938 C 312.984375 319.703125 313.609375 320.28125 314.371094 320.992188 C 315.875 322.429688 316.261719 322.679688 316.925781 322.679688 C 317.292969 322.679688 317.425781 322.621094 317.726562 322.351562 C 318.082031 322.023438 318.082031 322.015625 318.082031 321.261719 C 318.070312 320.65625 317.996094 320.25 317.667969 319.179688 C 316.664062 315.914062 315.21875 312.945312 311.992188 307.515625 C 310.3125 304.703125 310.09375 304.210938 310.09375 303.355469 C 310.09375 302.574219 310.273438 302.101562 310.96875 301.070312 C 311.867188 299.738281 313.511719 297.851562 317.117188 294.050781 C 323.015625 287.824219 324.875 285.597656 325.9375 283.515625 C 326.207031 282.988281 326.417969 282.503906 326.417969 282.4375 C 326.417969 282.339844 326.601562 282.320312 327.21875 282.359375 C 327.929688 282.40625 328.035156 282.390625 328.335938 282.1875 C 328.796875 281.867188 329.03125 281.519531 329.085938 281.058594 C 329.203125 280.191406 328.605469 279.101562 326.746094 276.847656 C 325.269531 275.054688 323.554688 272.738281 322.417969 271.015625 C 319.21875 266.195312 316.355469 260.015625 313.890625 252.605469 C 311.585938 245.703125 310.121094 240.054688 309.117188 234.144531 C 308.539062 230.722656 308.453125 229.691406 308.472656 226.144531 C 308.484375 224.160156 308.453125 222.703125 308.386719 222.269531 L 308.28125 221.585938 L 308.90625 220.488281 C 310.652344 217.488281 311.664062 214.558594 312.019531 211.523438 C 312.136719 210.519531 312.164062 209.566406 312.144531 208.003906 L 312.105469 205.863281 L 312.898438 207.4375 C 313.984375 209.59375 314.542969 210.191406 315.449219 210.191406 C 316.183594 210.191406 316.730469 209.691406 316.992188 208.796875 C 317.070312 208.515625 317.097656 206.433594 317.078125 201.035156 C 317.058594 193.554688 316.984375 190.742188 316.722656 188.214844 C 316.046875 181.574219 313.820312 174.632812 310.371094 168.371094 C 310.121094 167.9375 309.984375 167.597656 310.054688 167.648438 C 310.273438 167.773438 312.460938 169.304688 313.40625 170.007812 C 314.707031 170.960938 315.757812 171.472656 316.433594 171.472656 C 316.769531 171.472656 317.070312 171.40625 317.28125 171.289062 C 317.628906 171.085938 318.035156 170.402344 318.035156 170 C 318.035156 169.804688 318.128906 169.710938 318.535156 169.515625 C 318.917969 169.332031 319.082031 169.179688 319.257812 168.851562 C 319.691406 168.011719 319.535156 166.992188 318.457031 163.683594 C 316.367188 157.3125 313.695312 152.15625 309.050781 145.503906 C 308.550781 144.792969 308.105469 144.15625 308.078125 144.097656 C 308.03125 144.011719 308.097656 144.011719 308.320312 144.078125 C 310.71875 144.773438 314.59375 145.8125 318.179688 146.710938 C 320.617188 147.316406 322.871094 147.90625 323.179688 148.023438 C 323.816406 148.234375 324.105469 148.261719 324.105469 148.109375 C 324.105469 148.050781 324.164062 148.023438 324.238281 148.050781 C 324.664062 148.214844 324.703125 147.296875 324.316406 146.382812 C 323.585938 144.6875 321.523438 142.210938 318.707031 139.695312 C 314.21875 135.664062 311.382812 133.640625 304.359375 129.496094 C 296.398438 124.78125 293.199219 122.515625 289.601562 119.039062 C 284.976562 114.554688 282.007812 109.949219 280.082031 104.210938 C 279.28125 101.839844 278.433594 98.726562 278.132812 97.023438 C 277.757812 94.882812 277.410156 93.242188 276.4375 88.886719 C 275.167969 83.226562 274.65625 80.558594 274.136719 76.886719 C 273.160156 69.976562 272.613281 67.585938 271.167969 64.019531 C 269.683594 60.308594 267.398438 55.960938 264.765625 51.777344 C 261.335938 46.339844 258.53125 43.574219 255.71875 42.859375 C 254.839844 42.628906 253.539062 42.621094 252.59375 42.820312 Z M 198.058594 80.421875 L 199.175781 81.234375 L 199.039062 81.871094 C 198.972656 82.226562 198.894531 82.523438 198.875 82.542969 C 198.800781 82.621094 195.457031 78.765625 195.445312 78.59375 C 195.445312 78.554688 195.78125 78.765625 196.199219 79.074219 C 196.601562 79.371094 197.441406 79.988281 198.058594 80.421875 Z M 178.292969 85.648438 C 178.523438 85.707031 178.542969 85.792969 178.800781 87.285156 C 178.945312 88.152344 179.0625 88.875 179.042969 88.886719 C 178.976562 88.953125 167.113281 87.09375 166.589844 86.9375 C 166.320312 86.863281 166.523438 86.777344 167.640625 86.488281 C 168.921875 86.167969 170.667969 85.878906 172.289062 85.714844 C 173.664062 85.582031 177.867188 85.53125 178.292969 85.648438 Z M 143.09375 197.59375 C 143.394531 197.980469 143.835938 198.5 144.070312 198.75 C 144.414062 199.128906 144.472656 199.234375 144.359375 199.308594 C 144.289062 199.359375 144.144531 199.398438 144.039062 199.398438 C 143.269531 199.40625 141.417969 200.199219 140.582031 200.882812 C 140.273438 201.132812 140.003906 201.324219 139.972656 201.304688 C 139.953125 201.285156 140.070312 200.621094 140.214844 199.820312 C 140.492188 198.421875 140.8125 196.359375 140.945312 195.222656 L 141.015625 194.664062 L 141.773438 195.78125 C 142.199219 196.410156 142.789062 197.21875 143.09375 197.59375 Z M 143.09375 197.59375 " fill-opacity="1" fill-rule="nonzero"/></g><path fill="#ffffff" d="M 228.484375 71.769531 C 226.410156 73.597656 223.835938 80.421875 223.289062 85.550781 C 223.152344 86.871094 223.222656 89.109375 223.441406 90.332031 C 223.800781 92.296875 224.628906 94.265625 225.785156 95.863281 C 227.328125 98.023438 231.144531 101.292969 232.222656 101.378906 C 232.597656 101.417969 232.597656 101.40625 232.589844 101.070312 C 232.578125 100.570312 231.066406 98.390625 229.714844 96.914062 C 228.230469 95.296875 227.972656 94.976562 227.382812 94.082031 C 225.425781 91.101562 225.011719 87.335938 226.054688 81.945312 C 226.566406 79.335938 227.519531 75.921875 228.414062 73.597656 C 229.234375 71.460938 229.242188 71.101562 228.484375 71.769531 Z M 228.484375 71.769531 " fill-opacity="1" fill-rule="nonzero"/><path fill="#ffffff" d="M 224.703125 99.324219 C 224.589844 99.519531 225.128906 100.316406 225.898438 101.078125 C 226.574219 101.765625 226.890625 101.996094 227.683594 102.398438 C 228.753906 102.949219 230.757812 103.625 232.511719 104.027344 C 234.507812 104.492188 236.925781 104.328125 237.898438 103.671875 L 238.234375 103.441406 L 238.015625 103.277344 C 237.78125 103.09375 237.667969 103.066406 236.210938 102.921875 C 235.652344 102.871094 234.785156 102.707031 234.285156 102.574219 C 233.785156 102.4375 232.300781 102.054688 230.980469 101.707031 C 228.320312 101.023438 227.394531 100.675781 226.074219 99.894531 C 225.109375 99.324219 224.792969 99.191406 224.703125 99.324219 Z M 224.703125 99.324219 " fill-opacity="1" fill-rule="nonzero"/><path fill="#ffffff" d="M 229.082031 106.273438 C 229.082031 106.507812 229.589844 107.054688 230.167969 107.449219 C 231.710938 108.484375 234.652344 109.195312 237.367188 109.207031 C 238.8125 109.207031 239.566406 109.109375 240.644531 108.78125 C 241.175781 108.628906 241.800781 108.242188 241.800781 108.078125 C 241.800781 107.941406 241.078125 107.828125 240.257812 107.828125 C 239.140625 107.828125 236.933594 107.625 234.429688 107.289062 C 232.242188 107 231.105469 106.765625 230.179688 106.4375 C 229.476562 106.179688 229.082031 106.121094 229.082031 106.273438 Z M 229.082031 106.273438 " fill-opacity="1" fill-rule="nonzero"/><path fill="#ffffff" d="M 247.585938 110.226562 C 247.449219 110.273438 247.132812 110.410156 246.859375 110.546875 C 246.28125 110.84375 245.386719 111.105469 244.019531 111.394531 C 243.460938 111.519531 242.359375 111.847656 241.5625 112.136719 C 240.625 112.472656 239.855469 112.695312 239.34375 112.753906 C 237.695312 112.964844 237.609375 112.984375 237.609375 113.117188 C 237.609375 113.207031 237.832031 113.339844 238.140625 113.457031 C 238.574219 113.609375 238.910156 113.648438 239.921875 113.648438 C 241.097656 113.648438 241.28125 113.621094 242.988281 113.195312 C 245.589844 112.539062 246.378906 112.210938 247.46875 111.324219 C 247.902344 110.96875 248.105469 110.710938 248.210938 110.351562 C 248.257812 110.179688 248.238281 110.140625 248.046875 110.148438 C 247.921875 110.148438 247.71875 110.1875 247.585938 110.226562 Z M 247.585938 110.226562 " fill-opacity="1" fill-rule="nonzero"/><path fill="#ffffff" d="M 251.109375 113.195312 C 251.003906 113.226562 250.640625 113.4375 250.292969 113.667969 C 249.945312 113.890625 248.980469 114.34375 248.164062 114.671875 C 246.871094 115.171875 246.523438 115.355469 245.636719 116.011719 C 244.683594 116.714844 244.316406 116.90625 242.832031 117.464844 C 242.523438 117.589844 242.292969 117.734375 242.3125 117.792969 C 242.371094 117.96875 244.039062 117.976562 244.722656 117.8125 C 245.050781 117.726562 245.839844 117.40625 246.476562 117.089844 C 247.113281 116.78125 248.132812 116.28125 248.75 115.980469 C 250.359375 115.199219 251.4375 114.179688 251.4375 113.425781 C 251.4375 113.261719 251.410156 113.136719 251.371094 113.136719 C 251.324219 113.148438 251.207031 113.175781 251.109375 113.195312 Z M 251.109375 113.195312 " fill-opacity="1" fill-rule="nonzero"/><path fill="#ffffff" d="M 253.847656 115.441406 C 253.664062 115.539062 253.183594 115.914062 252.789062 116.28125 C 252.394531 116.648438 251.699219 117.226562 251.246094 117.5625 C 250.792969 117.910156 250.253906 118.382812 250.042969 118.613281 C 249.828125 118.855469 249.28125 119.433594 248.816406 119.90625 C 248.34375 120.386719 247.96875 120.800781 247.96875 120.847656 C 247.96875 121.003906 248.703125 121.03125 249.144531 120.898438 C 250.4375 120.511719 252.402344 118.765625 253.605469 116.9375 C 253.886719 116.511719 254.136719 116.03125 254.175781 115.875 C 254.214844 115.710938 254.261719 115.507812 254.292969 115.414062 C 254.359375 115.210938 254.273438 115.210938 253.847656 115.441406 Z M 253.847656 115.441406 " fill-opacity="1" fill-rule="nonzero"/><path fill="#ffffff" d="M 194.335938 136.019531 C 186.597656 136.964844 180.015625 142.316406 177.105469 150.046875 C 176.914062 150.546875 176.566406 151.394531 176.324219 151.925781 C 175.542969 153.632812 175.410156 154.894531 175.882812 156.136719 C 176.652344 158.210938 179.554688 159.347656 184.316406 159.464844 C 190.328125 159.617188 195.214844 158.132812 199.65625 154.808594 C 201.007812 153.804688 203.414062 151.433594 204.640625 149.902344 C 205.679688 148.601562 209.371094 143.085938 209.855469 142.113281 C 210.730469 140.339844 210.433594 139.019531 208.984375 138.226562 C 208.03125 137.707031 204.292969 136.675781 201.855469 136.273438 C 199.378906 135.855469 196.515625 135.761719 194.335938 136.019531 Z M 200.167969 138.527344 C 202.183594 138.835938 204.8125 139.511719 206.847656 140.234375 C 207.609375 140.492188 207.683594 140.550781 207.628906 140.734375 C 207.464844 141.332031 204.457031 146.140625 203.289062 147.703125 C 202.316406 148.996094 200.324219 151.097656 199.058594 152.148438 C 197.199219 153.707031 194.839844 155.058594 192.507812 155.90625 C 190.445312 156.65625 189.34375 156.832031 188.113281 156.601562 C 185.394531 156.078125 183.378906 152.253906 183.773438 148.320312 C 183.96875 146.421875 184.476562 144.761719 185.480469 142.808594 C 186.359375 141.101562 186.445312 141.023438 188.035156 140.222656 C 189.238281 139.617188 191.515625 138.769531 191.929688 138.769531 C 192.109375 138.769531 192.109375 138.816406 191.890625 139.453125 C 191.445312 140.761719 191.050781 142.953125 190.953125 144.773438 C 190.847656 146.539062 191.175781 148.78125 191.660156 149.726562 C 191.898438 150.191406 192.390625 150.527344 192.816406 150.527344 C 193.769531 150.527344 194.230469 149.726562 194.53125 147.585938 C 194.714844 146.277344 194.964844 141.851562 194.964844 139.789062 L 194.964844 138.257812 L 197.066406 138.316406 C 198.222656 138.34375 199.609375 138.441406 200.167969 138.527344 Z M 183.050781 144.328125 C 181.800781 147.078125 181.5 149.96875 182.183594 152.675781 C 182.578125 154.238281 183.265625 155.539062 184.277344 156.640625 L 184.769531 157.179688 L 184.007812 157.121094 C 182.011719 156.984375 180.277344 156.589844 179.160156 156.023438 C 177.847656 155.355469 177.703125 154.613281 178.445312 152.332031 C 179.523438 149.015625 180.625 146.585938 181.460938 145.679688 C 181.761719 145.351562 182.300781 144.746094 182.667969 144.328125 C 183.03125 143.925781 183.339844 143.585938 183.359375 143.585938 C 183.371094 143.585938 183.234375 143.925781 183.050781 144.328125 Z M 183.050781 144.328125 " fill-opacity="1" fill-rule="nonzero"/><path fill="#ffffff" d="M 133.042969 139.355469 C 132.359375 139.460938 131.347656 139.78125 130.855469 140.050781 C 130.132812 140.445312 130.34375 140.511719 132.351562 140.550781 C 133.265625 140.5625 134.296875 140.628906 134.664062 140.695312 L 135.308594 140.8125 L 134.613281 141.304688 C 132.417969 142.84375 130.894531 145.332031 130.238281 148.457031 C 129.960938 149.777344 129.988281 152.707031 130.289062 154.09375 C 131.15625 158.171875 133.363281 161.488281 135.933594 162.632812 L 136.492188 162.875 L 136.070312 163.328125 C 135.839844 163.570312 134.796875 164.648438 133.765625 165.710938 C 131.636719 167.898438 130.835938 168.9375 130.007812 170.625 C 129.035156 172.589844 128.660156 174.289062 128.660156 176.707031 C 128.660156 178.453125 128.824219 179.25 129.46875 180.554688 C 129.980469 181.59375 130.683594 182.402344 131.664062 183.078125 C 133.167969 184.109375 133.890625 184.332031 134.683594 183.984375 C 134.933594 183.867188 135.15625 183.792969 135.164062 183.800781 C 135.183594 183.820312 135.433594 184.628906 135.734375 185.605469 C 136.40625 187.773438 136.820312 188.660156 137.523438 189.371094 C 139.40625 191.300781 142.804688 190.914062 144.347656 188.609375 C 145.140625 187.425781 145.4375 186.105469 145.246094 184.601562 C 145.1875 184.109375 145.121094 183.636719 145.089844 183.570312 C 145.042969 183.453125 145.148438 183.425781 145.609375 183.425781 C 146.730469 183.425781 147.867188 182.636719 148.464844 181.441406 C 148.597656 181.171875 148.703125 180.824219 148.703125 180.679688 C 148.703125 180.28125 148.347656 180.320312 147.816406 180.765625 C 147.355469 181.152344 146.671875 181.496094 145.988281 181.671875 C 145.621094 181.777344 145.515625 181.765625 145.378906 181.660156 C 144.996094 181.332031 144.570312 180.011719 144.558594 179.097656 C 144.558594 178.335938 144.945312 178.199219 147.355469 178.09375 C 150.257812 177.96875 151.613281 177.566406 152.183594 176.660156 C 152.386719 176.339844 152.464844 176.117188 152.445312 175.878906 C 152.414062 175.570312 152.386719 175.539062 152.125 175.558594 C 151.972656 175.570312 151.597656 175.636719 151.304688 175.714844 C 150.082031 176.03125 149.503906 176.101562 147.257812 176.167969 C 145.148438 176.226562 144.839844 176.253906 144.359375 176.445312 C 143.664062 176.714844 142.988281 177.304688 142.652344 177.941406 C 142.410156 178.402344 142.390625 178.5 142.402344 179.6875 C 142.402344 180.871094 142.429688 181.035156 142.902344 182.835938 C 143.597656 185.46875 143.578125 186.472656 142.796875 187.597656 C 141.9375 188.84375 139.933594 189.074219 138.953125 188.042969 C 138.46875 187.542969 138.179688 186.925781 137.667969 185.265625 C 136.898438 182.78125 136.503906 181.882812 135.636719 180.726562 C 134.992188 179.859375 133.871094 178.742188 133.292969 178.375 C 132.523438 177.882812 131.734375 178.09375 131.589844 178.828125 C 131.5 179.269531 131.628906 179.523438 132.339844 180.371094 C 132.660156 180.746094 133.015625 181.207031 133.128906 181.382812 L 133.332031 181.710938 L 133.035156 181.496094 C 132.226562 180.917969 131.5 179.8125 131.210938 178.703125 C 130.972656 177.765625 131.019531 177.46875 131.628906 176.117188 C 132.425781 174.335938 132.5625 174.289062 135.460938 174.835938 C 136.851562 175.097656 137.3125 175.144531 138.585938 175.144531 C 140.308594 175.15625 140.964844 175.019531 143.78125 174.09375 C 146.121094 173.324219 146.824219 173.179688 148.125 173.179688 C 149.929688 173.179688 150.988281 173.554688 151.902344 174.507812 C 152.597656 175.230469 152.859375 175.917969 152.867188 176.996094 C 152.867188 177.855469 152.636719 178.847656 152.222656 179.78125 C 151.914062 180.496094 151.902344 180.734375 152.203125 180.648438 C 153.15625 180.359375 154.332031 178.394531 154.527344 176.734375 C 154.757812 174.78125 153.542969 172.707031 151.585938 171.742188 C 150.3125 171.117188 149.484375 170.941406 147.835938 170.921875 C 146.207031 170.914062 145.609375 171.019531 143.164062 171.753906 C 139.585938 172.8125 138.796875 172.890625 136.011719 172.40625 C 134.132812 172.082031 133.207031 172.050781 132.378906 172.261719 C 132.0625 172.351562 131.789062 172.390625 131.773438 172.371094 C 131.664062 172.261719 132.667969 170.453125 133.265625 169.652344 C 133.621094 169.179688 134.71875 167.964844 135.703125 166.953125 C 140.253906 162.277344 142.660156 158.972656 144.109375 155.394531 C 144.9375 153.371094 145.265625 151.75 145.253906 149.707031 C 145.253906 147.441406 144.792969 145.488281 143.875 143.933594 C 143.347656 143.039062 141.929688 141.621094 141.03125 141.089844 C 138.710938 139.722656 135.425781 139.007812 133.042969 139.355469 Z M 137.882812 141.582031 C 138.027344 141.648438 138.160156 141.707031 138.179688 141.707031 C 138.191406 141.71875 138.113281 142.152344 138.007812 142.679688 C 137.890625 143.203125 137.738281 143.964844 137.660156 144.359375 C 137.574219 144.78125 137.496094 145.910156 137.457031 147.058594 C 137.417969 148.6875 137.4375 149.148438 137.5625 149.707031 C 137.824219 150.808594 138.285156 151.296875 139.066406 151.296875 C 139.625 151.296875 140.136719 150.789062 140.359375 150.035156 C 140.714844 148.832031 140.8125 146.054688 140.570312 144.070312 C 140.503906 143.511719 140.464844 143.039062 140.484375 143.019531 C 140.570312 142.914062 141.8125 144.28125 142.171875 144.859375 C 142.96875 146.199219 143.394531 148.214844 143.269531 150.132812 C 143.113281 152.695312 142.160156 155.242188 140.28125 158.09375 C 139.210938 159.714844 137.921875 161.324219 137.699219 161.324219 C 137.34375 161.324219 136.332031 160.707031 135.78125 160.15625 C 134.414062 158.789062 133.199219 156.214844 132.746094 153.707031 C 132.515625 152.425781 132.503906 149.902344 132.734375 148.800781 C 133.160156 146.835938 133.785156 145.398438 134.875 143.964844 C 135.589844 143.007812 137.179688 141.46875 137.4375 141.46875 C 137.535156 141.46875 137.738281 141.515625 137.882812 141.582031 Z M 137.882812 141.582031 " fill-opacity="1" fill-rule="nonzero"/><path fill="#ffffff" d="M 170.957031 160.839844 C 170.765625 160.949219 170.070312 161.535156 169.414062 162.160156 C 168.761719 162.789062 167.601562 163.828125 166.863281 164.476562 C 166.109375 165.121094 165.070312 166.125 164.546875 166.691406 C 164.027344 167.261719 162.785156 168.542969 161.792969 169.535156 C 160.800781 170.519531 159.980469 171.40625 159.980469 171.492188 C 159.980469 171.761719 160.578125 171.597656 161.761719 171.011719 C 163.382812 170.199219 164.789062 169.082031 167.679688 166.289062 C 169.648438 164.378906 171.273438 162.113281 171.488281 160.957031 C 171.554688 160.589844 171.457031 160.570312 170.957031 160.839844 Z M 170.957031 160.839844 " fill-opacity="1" fill-rule="nonzero"/><path fill="#ffffff" d="M 164.800781 187.320312 C 163.074219 187.378906 160.316406 187.5625 159.210938 187.6875 C 157.097656 187.925781 157.167969 187.917969 157.203125 188.148438 C 157.242188 188.378906 157.898438 188.542969 161.472656 189.179688 C 168.375 190.414062 174.839844 192.101562 183.15625 194.839844 C 196.324219 199.175781 208.726562 204.457031 220.019531 210.558594 C 231.382812 216.691406 240.113281 222.425781 248.644531 229.375 C 249.734375 230.25 251.035156 231.253906 251.535156 231.589844 C 252.035156 231.929688 252.703125 232.390625 253.011719 232.632812 C 253.316406 232.863281 253.597656 233.039062 253.625 233.007812 C 253.65625 232.96875 253.230469 232.46875 252.683594 231.878906 C 252.132812 231.28125 251.652344 230.753906 251.613281 230.683594 C 251.574219 230.617188 250.8125 229.886719 249.925781 229.074219 C 241.707031 221.507812 235.421875 216.890625 225.898438 211.445312 C 211.789062 203.367188 195.378906 196.554688 179.160156 192.03125 C 173.375 190.421875 167.835938 189.277344 163.0625 188.699219 C 162.140625 188.59375 161.289062 188.476562 161.183594 188.457031 C 160.789062 188.378906 167.207031 188.503906 168.558594 188.601562 C 178.761719 189.324219 189.914062 191.28125 200.265625 194.164062 C 209.921875 196.84375 219.421875 200.292969 230.035156 204.957031 C 236.714844 207.898438 241.722656 210.394531 248.886719 214.367188 C 250.425781 215.222656 252.199219 216.140625 252.835938 216.410156 C 253.472656 216.691406 254.242188 217.035156 254.542969 217.179688 C 254.851562 217.335938 255.128906 217.421875 255.167969 217.382812 C 255.207031 217.34375 255.167969 217.269531 255.082031 217.21875 C 254.945312 217.144531 253.675781 216.199219 252.488281 215.292969 C 251.074219 214.203125 243.132812 209.316406 239.441406 207.261719 C 227.566406 200.648438 210.257812 194.183594 195.589844 190.875 C 193.054688 190.308594 189.324219 189.566406 186.867188 189.140625 C 179.195312 187.820312 170.601562 187.109375 164.800781 187.320312 Z M 164.800781 187.320312 " fill-opacity="1" fill-rule="nonzero"/><path fill="#ffffff" d="M 157.6875 190.355469 C 157.734375 190.480469 158.660156 190.847656 161.570312 191.839844 C 172.046875 195.445312 184.902344 201.699219 198.289062 209.691406 C 213.332031 218.683594 224.636719 227.4375 235.777344 238.742188 C 241.339844 244.382812 245.558594 249.132812 251.910156 256.894531 C 253.039062 258.261719 254.53125 260.027344 255.234375 260.796875 C 255.949219 261.570312 256.789062 262.511719 257.125 262.890625 C 257.714844 263.582031 258.078125 263.84375 257.730469 263.324219 C 257.421875 262.851562 255.757812 260.421875 254.917969 259.214844 C 253.953125 257.828125 251.371094 254.425781 249.097656 251.542969 C 235.324219 234.089844 223.257812 223.117188 205.804688 212.199219 C 198.867188 207.851562 191.660156 203.851562 184.035156 200.121094 C 174.128906 195.261719 166.167969 192.1875 159.460938 190.636719 C 157.53125 190.183594 157.636719 190.203125 157.6875 190.355469 Z M 157.6875 190.355469 " fill-opacity="1" fill-rule="nonzero"/><path fill="#ffffff" d="M 200.8125 260.179688 C 200.613281 260.382812 201.371094 261.789062 202.511719 263.332031 C 204.476562 266.003906 209.855469 271.613281 214.304688 275.621094 C 215.164062 276.402344 215.847656 277.046875 215.839844 277.058594 C 215.820312 277.078125 214.921875 276.683594 213.832031 276.179688 C 211.675781 275.179688 210.960938 274.917969 210.230469 274.820312 C 209.042969 274.660156 208.070312 275.402344 208.070312 276.449219 C 208.070312 277.28125 208.609375 278.136719 211.511719 281.953125 C 213.832031 285.019531 215.722656 287.640625 217.996094 290.96875 C 218.816406 292.164062 219.742188 293.503906 220.058594 293.957031 C 220.367188 294.410156 220.925781 295.277344 221.292969 295.902344 C 222.007812 297.078125 222.429688 297.589844 222.625 297.472656 C 222.710938 297.425781 222.730469 297.175781 222.699219 296.664062 C 222.59375 295.101562 221.4375 292.402344 219.820312 289.957031 C 218.605469 288.132812 215.914062 284.363281 213.652344 281.328125 C 210.867188 277.597656 210.691406 277.339844 210.941406 277.414062 C 211.058594 277.453125 211.800781 277.789062 212.582031 278.167969 C 216.078125 279.835938 218.96875 280.941406 219.839844 280.941406 C 220.289062 280.941406 220.792969 280.605469 221.015625 280.152344 C 221.160156 279.855469 221.167969 279.726562 221.082031 279.410156 C 220.878906 278.648438 220.203125 277.972656 216.261719 274.582031 C 211.878906 270.792969 207.9375 267.140625 203.996094 263.1875 C 202.316406 261.5 200.917969 260.121094 200.910156 260.121094 C 200.890625 260.121094 200.851562 260.152344 200.8125 260.179688 Z M 200.8125 260.179688 " fill-opacity="1" fill-rule="nonzero"/></svg>